M48
; DRILL file {KiCad 7.0.1} date Thu Mar 21 11:39:15 2024
; FORMAT={-:-/ absolute / metric / decimal}
; #@! TF.CreationDate,2024-03-21T11:39:15+08:00
; #@! TF.GenerationSoftware,Kicad,Pcbnew,7.0.1
; #@! TF.FileFunction,Plated,1,2,PTH
FMAT,2
METRIC
; #@! TA.AperFunction,Plated,PTH,ViaDrill
T1C0.400
; #@! TA.AperFunction,Plated,PTH,ComponentDrill
T2C0.700
; #@! TA.AperFunction,Plated,PTH,ComponentDrill
T3C1.000
; #@! TA.AperFunction,Plated,PTH,ComponentDrill
T4C1.020
; #@! TA.AperFunction,Plated,PTH,ComponentDrill
T5C1.200
%
G90
G05
T1
X101.854Y-90.424
X101.854Y-94.361
X104.965Y-93.281
X106.045Y-92.583
X107.055Y-91.965
X108.077Y-91.276
X109.03Y-90.551
X110.109Y-89.662
X137.668Y-90.551
X137.668Y-94.742
X143.764Y-97.028
X144.399Y-93.345
X145.542Y-91.059
X146.685Y-88.9
X154.305Y-70.104
X154.432Y-91.313
X155.194Y-71.628
X155.448Y-89.535
X156.21Y-72.644
X156.591Y-88.265
X157.226Y-73.533
X170.688Y-68.707
X170.688Y-75.819
X172.085Y-69.469
X172.085Y-74.93
X173.609Y-70.231
X173.609Y-73.914
X185.42Y-109.855
T2
X153.71Y-102.918
X153.71Y-107.998
X157.21Y-102.949
X157.21Y-108.029
X160.71Y-102.933
X160.71Y-108.013
X164.21Y-102.997
X164.21Y-108.077
X167.71Y-102.981
X167.71Y-108.061
X171.21Y-102.965
X171.21Y-108.045
X174.71Y-102.902
X174.71Y-107.982
X178.21Y-102.87
X178.21Y-107.95
X181.71Y-102.886
X181.71Y-107.966
T3
X92.58Y-66.683
X92.58Y-69.224
X92.58Y-71.763
X92.58Y-74.303
X92.58Y-76.843
X92.58Y-79.383
X92.58Y-81.923
X92.58Y-84.463
X92.58Y-87.004
X92.58Y-89.543
X92.58Y-92.084
X92.58Y-94.623
X95.12Y-66.683
X95.12Y-69.224
X95.12Y-71.763
X95.12Y-74.303
X95.12Y-76.843
X95.12Y-79.383
X95.12Y-81.923
X95.12Y-84.463
X95.12Y-87.004
X95.12Y-89.543
X95.12Y-92.084
X95.12Y-94.623
X98.45Y-100.986
X98.48Y-62.053
X100.99Y-100.986
X101.02Y-62.053
X103.53Y-100.986
X103.56Y-62.053
X106.07Y-83.206
X106.07Y-100.986
X106.1Y-62.053
X106.1Y-79.834
X108.61Y-83.206
X108.61Y-100.986
X108.64Y-62.053
X108.64Y-79.834
X111.15Y-83.206
X111.15Y-100.986
X111.18Y-62.053
X111.18Y-79.834
X113.69Y-83.206
X113.69Y-100.986
X113.72Y-62.053
X113.72Y-79.834
X116.23Y-83.206
X116.23Y-100.986
X116.26Y-62.053
X116.26Y-79.834
X118.77Y-83.206
X118.77Y-100.986
X118.8Y-62.053
X118.8Y-79.834
X121.31Y-100.986
X121.34Y-62.053
X123.85Y-100.986
X123.88Y-62.053
X126.39Y-100.986
X126.42Y-62.053
X153.85Y-61.953
X154.99Y-94.222
X154.99Y-99.292
X156.39Y-61.953
X157.53Y-94.222
X157.53Y-99.292
X158.93Y-61.953
X160.07Y-84.052
X160.07Y-94.222
X160.07Y-99.292
X161.47Y-61.953
X161.47Y-79.733
X162.61Y-84.052
X162.61Y-94.222
X162.61Y-99.292
X164.01Y-61.953
X164.01Y-79.733
X165.15Y-84.052
X165.15Y-94.222
X165.15Y-99.292
X166.55Y-61.953
X166.55Y-79.733
X167.69Y-84.052
X167.69Y-94.222
X167.69Y-99.292
X169.09Y-61.953
X169.09Y-79.733
X170.23Y-84.052
X170.23Y-94.222
X170.23Y-99.292
X171.63Y-61.953
X171.63Y-79.733
X172.77Y-84.052
X172.77Y-94.222
X172.77Y-99.292
X174.17Y-61.953
X174.17Y-79.733
X175.31Y-84.052
X175.31Y-94.222
X175.31Y-99.292
X176.71Y-61.953
X177.85Y-84.052
X177.85Y-94.222
X177.85Y-99.292
X179.25Y-61.953
X180.39Y-94.222
X180.39Y-99.292
X181.79Y-61.953
X185.32Y-66.681
X185.32Y-69.221
X185.32Y-71.761
X185.32Y-74.301
X185.32Y-76.841
X185.32Y-79.381
X185.32Y-81.921
X185.32Y-84.461
X185.32Y-87.001
X185.32Y-89.541
X185.32Y-92.081
X185.32Y-94.621
X187.86Y-66.681
X187.86Y-69.221
X187.86Y-71.761
X187.86Y-74.301
X187.86Y-76.841
X187.86Y-79.381
X187.86Y-81.921
X187.86Y-84.461
X187.86Y-87.001
X187.86Y-89.541
X187.86Y-92.081
X187.86Y-94.621
T4
X131.22Y-58.959
X131.22Y-61.498
X131.22Y-64.038
X131.22Y-66.578
X131.22Y-69.118
X131.22Y-71.659
X131.22Y-74.198
X131.22Y-76.739
X131.22Y-79.278
X131.22Y-81.819
X131.22Y-84.358
X131.22Y-86.898
X131.22Y-89.438
X131.22Y-91.978
X131.22Y-94.518
X131.22Y-97.058
X131.22Y-99.599
X131.22Y-102.138
X131.22Y-104.678
X131.22Y-107.218
X137.57Y-106.989
X140.11Y-106.989
X142.65Y-106.989
X149.0Y-58.959
X149.0Y-61.498
X149.0Y-64.038
X149.0Y-66.578
X149.0Y-69.118
X149.0Y-71.659
X149.0Y-74.198
X149.0Y-76.739
X149.0Y-79.278
X149.0Y-81.819
X149.0Y-84.358
X149.0Y-86.898
X149.0Y-89.438
X149.0Y-91.978
X149.0Y-94.518
X149.0Y-97.058
X149.0Y-99.599
X149.0Y-102.138
X149.0Y-104.678
X149.0Y-107.218
T5
G00X139.11Y-57.918
M15
G01X139.11Y-58.918
M16
G05
G00X140.11Y-61.218
M15
G01X140.11Y-62.218
M16
G05
G00X141.11Y-57.938
M15
G01X141.11Y-58.938
M16
G05
T0
M30
