%TF.GenerationSoftware,KiCad,Pcbnew,7.0.1*%
%TF.CreationDate,2024-03-21T11:39:16+08:00*%
%TF.ProjectId,chupico_openithm,63687570-6963-46f5-9f6f-70656e697468,rev?*%
%TF.SameCoordinates,Original*%
%TF.FileFunction,Drillmap*%
%TF.FilePolarity,Positive*%
%FSLAX45Y45*%
G04 Gerber Fmt 4.5, Leading zero omitted, Abs format (unit mm)*
G04 Created by KiCad (PCBNEW 7.0.1) date 2024-03-21 11:39:16*
%MOMM*%
%LPD*%
G01*
G04 APERTURE LIST*
%ADD10C,0.150000*%
%ADD11C,0.200000*%
%ADD12C,0.040000*%
%ADD13C,0.070000*%
%ADD14C,0.100000*%
%ADD15C,0.102000*%
%ADD16C,0.120000*%
G04 APERTURE END LIST*
D10*
X9020000Y-6070000D02*
X9022000Y-11049000D01*
X19022000Y-11049000D02*
X19020000Y-6070000D01*
X14017000Y-5540600D02*
X9020000Y-6070000D01*
X9022000Y-11049000D02*
X19022000Y-11049000D01*
X14017000Y-5540600D02*
X19020000Y-6070000D01*
D11*
D12*
X10165400Y-9022400D02*
X10205400Y-9062400D01*
X10205400Y-9022400D02*
X10165400Y-9062400D01*
X10165400Y-9416100D02*
X10205400Y-9456100D01*
X10205400Y-9416100D02*
X10165400Y-9456100D01*
X10476550Y-9308150D02*
X10516550Y-9348150D01*
X10516550Y-9308150D02*
X10476550Y-9348150D01*
X10584500Y-9238300D02*
X10624500Y-9278300D01*
X10624500Y-9238300D02*
X10584500Y-9278300D01*
X10685537Y-9176545D02*
X10725537Y-9216545D01*
X10725537Y-9176545D02*
X10685537Y-9216545D01*
X10787700Y-9107600D02*
X10827700Y-9147600D01*
X10827700Y-9107600D02*
X10787700Y-9147600D01*
X10883050Y-9035150D02*
X10923050Y-9075150D01*
X10923050Y-9035150D02*
X10883050Y-9075150D01*
X10990900Y-8946200D02*
X11030900Y-8986200D01*
X11030900Y-8946200D02*
X10990900Y-8986200D01*
X13746800Y-9035100D02*
X13786800Y-9075100D01*
X13786800Y-9035100D02*
X13746800Y-9075100D01*
X13746800Y-9454200D02*
X13786800Y-9494200D01*
X13786800Y-9454200D02*
X13746800Y-9494200D01*
X14356400Y-9682800D02*
X14396400Y-9722800D01*
X14396400Y-9682800D02*
X14356400Y-9722800D01*
X14419900Y-9314500D02*
X14459900Y-9354500D01*
X14459900Y-9314500D02*
X14419900Y-9354500D01*
X14534200Y-9085900D02*
X14574200Y-9125900D01*
X14574200Y-9085900D02*
X14534200Y-9125900D01*
X14648500Y-8870000D02*
X14688500Y-8910000D01*
X14688500Y-8870000D02*
X14648500Y-8910000D01*
X15410500Y-6990400D02*
X15450500Y-7030400D01*
X15450500Y-6990400D02*
X15410500Y-7030400D01*
X15423200Y-9111300D02*
X15463200Y-9151300D01*
X15463200Y-9111300D02*
X15423200Y-9151300D01*
X15499400Y-7142800D02*
X15539400Y-7182800D01*
X15539400Y-7142800D02*
X15499400Y-7182800D01*
X15524800Y-8933500D02*
X15564800Y-8973500D01*
X15564800Y-8933500D02*
X15524800Y-8973500D01*
X15601000Y-7244400D02*
X15641000Y-7284400D01*
X15641000Y-7244400D02*
X15601000Y-7284400D01*
X15639100Y-8806500D02*
X15679100Y-8846500D01*
X15679100Y-8806500D02*
X15639100Y-8846500D01*
X15702600Y-7333300D02*
X15742600Y-7373300D01*
X15742600Y-7333300D02*
X15702600Y-7373300D01*
X17048800Y-6850700D02*
X17088800Y-6890700D01*
X17088800Y-6850700D02*
X17048800Y-6890700D01*
X17048800Y-7561900D02*
X17088800Y-7601900D01*
X17088800Y-7561900D02*
X17048800Y-7601900D01*
X17188500Y-6926900D02*
X17228500Y-6966900D01*
X17228500Y-6926900D02*
X17188500Y-6966900D01*
X17188500Y-7473000D02*
X17228500Y-7513000D01*
X17228500Y-7473000D02*
X17188500Y-7513000D01*
X17340900Y-7003100D02*
X17380900Y-7043100D01*
X17380900Y-7003100D02*
X17340900Y-7043100D01*
X17340900Y-7371400D02*
X17380900Y-7411400D01*
X17380900Y-7371400D02*
X17340900Y-7411400D01*
X18522000Y-10965500D02*
X18562000Y-11005500D01*
X18562000Y-10965500D02*
X18522000Y-11005500D01*
D13*
X15406000Y-10291763D02*
G75*
G03*
X15406000Y-10291763I-35000J0D01*
G01*
X15406000Y-10799763D02*
G75*
G03*
X15406000Y-10799763I-35000J0D01*
G01*
X15756000Y-10294938D02*
G75*
G03*
X15756000Y-10294938I-35000J0D01*
G01*
X15756000Y-10802938D02*
G75*
G03*
X15756000Y-10802938I-35000J0D01*
G01*
X16106000Y-10293350D02*
G75*
G03*
X16106000Y-10293350I-35000J0D01*
G01*
X16106000Y-10801350D02*
G75*
G03*
X16106000Y-10801350I-35000J0D01*
G01*
X16456000Y-10299700D02*
G75*
G03*
X16456000Y-10299700I-35000J0D01*
G01*
X16456000Y-10807700D02*
G75*
G03*
X16456000Y-10807700I-35000J0D01*
G01*
X16806000Y-10298113D02*
G75*
G03*
X16806000Y-10298113I-35000J0D01*
G01*
X16806000Y-10806113D02*
G75*
G03*
X16806000Y-10806113I-35000J0D01*
G01*
X17156000Y-10296525D02*
G75*
G03*
X17156000Y-10296525I-35000J0D01*
G01*
X17156000Y-10804525D02*
G75*
G03*
X17156000Y-10804525I-35000J0D01*
G01*
X17506000Y-10290175D02*
G75*
G03*
X17506000Y-10290175I-35000J0D01*
G01*
X17506000Y-10798175D02*
G75*
G03*
X17506000Y-10798175I-35000J0D01*
G01*
X17856000Y-10287000D02*
G75*
G03*
X17856000Y-10287000I-35000J0D01*
G01*
X17856000Y-10795000D02*
G75*
G03*
X17856000Y-10795000I-35000J0D01*
G01*
X18206000Y-10288588D02*
G75*
G03*
X18206000Y-10288588I-35000J0D01*
G01*
X18206000Y-10796588D02*
G75*
G03*
X18206000Y-10796588I-35000J0D01*
G01*
D14*
X9258000Y-6618350D02*
X9258000Y-6718350D01*
X9208000Y-6668350D02*
X9308000Y-6668350D01*
X9258000Y-6872350D02*
X9258000Y-6972350D01*
X9208000Y-6922350D02*
X9308000Y-6922350D01*
X9258000Y-7126350D02*
X9258000Y-7226350D01*
X9208000Y-7176350D02*
X9308000Y-7176350D01*
X9258000Y-7380350D02*
X9258000Y-7480350D01*
X9208000Y-7430350D02*
X9308000Y-7430350D01*
X9258000Y-7634350D02*
X9258000Y-7734350D01*
X9208000Y-7684350D02*
X9308000Y-7684350D01*
X9258000Y-7888350D02*
X9258000Y-7988350D01*
X9208000Y-7938350D02*
X9308000Y-7938350D01*
X9258000Y-8142350D02*
X9258000Y-8242350D01*
X9208000Y-8192350D02*
X9308000Y-8192350D01*
X9258000Y-8396350D02*
X9258000Y-8496350D01*
X9208000Y-8446350D02*
X9308000Y-8446350D01*
X9258000Y-8650350D02*
X9258000Y-8750350D01*
X9208000Y-8700350D02*
X9308000Y-8700350D01*
X9258000Y-8904350D02*
X9258000Y-9004350D01*
X9208000Y-8954350D02*
X9308000Y-8954350D01*
X9258000Y-9158350D02*
X9258000Y-9258350D01*
X9208000Y-9208350D02*
X9308000Y-9208350D01*
X9258000Y-9412350D02*
X9258000Y-9512350D01*
X9208000Y-9462350D02*
X9308000Y-9462350D01*
X9512000Y-6618350D02*
X9512000Y-6718350D01*
X9462000Y-6668350D02*
X9562000Y-6668350D01*
X9512000Y-6872350D02*
X9512000Y-6972350D01*
X9462000Y-6922350D02*
X9562000Y-6922350D01*
X9512000Y-7126350D02*
X9512000Y-7226350D01*
X9462000Y-7176350D02*
X9562000Y-7176350D01*
X9512000Y-7380350D02*
X9512000Y-7480350D01*
X9462000Y-7430350D02*
X9562000Y-7430350D01*
X9512000Y-7634350D02*
X9512000Y-7734350D01*
X9462000Y-7684350D02*
X9562000Y-7684350D01*
X9512000Y-7888350D02*
X9512000Y-7988350D01*
X9462000Y-7938350D02*
X9562000Y-7938350D01*
X9512000Y-8142350D02*
X9512000Y-8242350D01*
X9462000Y-8192350D02*
X9562000Y-8192350D01*
X9512000Y-8396350D02*
X9512000Y-8496350D01*
X9462000Y-8446350D02*
X9562000Y-8446350D01*
X9512000Y-8650350D02*
X9512000Y-8750350D01*
X9462000Y-8700350D02*
X9562000Y-8700350D01*
X9512000Y-8904350D02*
X9512000Y-9004350D01*
X9462000Y-8954350D02*
X9562000Y-8954350D01*
X9512000Y-9158350D02*
X9512000Y-9258350D01*
X9462000Y-9208350D02*
X9562000Y-9208350D01*
X9512000Y-9412350D02*
X9512000Y-9512350D01*
X9462000Y-9462350D02*
X9562000Y-9462350D01*
X9845000Y-10048600D02*
X9845000Y-10148600D01*
X9795000Y-10098600D02*
X9895000Y-10098600D01*
X9848000Y-6155350D02*
X9848000Y-6255350D01*
X9798000Y-6205350D02*
X9898000Y-6205350D01*
X10099000Y-10048600D02*
X10099000Y-10148600D01*
X10049000Y-10098600D02*
X10149000Y-10098600D01*
X10102000Y-6155350D02*
X10102000Y-6255350D01*
X10052000Y-6205350D02*
X10152000Y-6205350D01*
X10353000Y-10048600D02*
X10353000Y-10148600D01*
X10303000Y-10098600D02*
X10403000Y-10098600D01*
X10356000Y-6155350D02*
X10356000Y-6255350D01*
X10306000Y-6205350D02*
X10406000Y-6205350D01*
X10607000Y-8270600D02*
X10607000Y-8370600D01*
X10557000Y-8320600D02*
X10657000Y-8320600D01*
X10607000Y-10048600D02*
X10607000Y-10148600D01*
X10557000Y-10098600D02*
X10657000Y-10098600D01*
X10610000Y-6155350D02*
X10610000Y-6255350D01*
X10560000Y-6205350D02*
X10660000Y-6205350D01*
X10610000Y-7933350D02*
X10610000Y-8033350D01*
X10560000Y-7983350D02*
X10660000Y-7983350D01*
X10861000Y-8270600D02*
X10861000Y-8370600D01*
X10811000Y-8320600D02*
X10911000Y-8320600D01*
X10861000Y-10048600D02*
X10861000Y-10148600D01*
X10811000Y-10098600D02*
X10911000Y-10098600D01*
X10864000Y-6155350D02*
X10864000Y-6255350D01*
X10814000Y-6205350D02*
X10914000Y-6205350D01*
X10864000Y-7933350D02*
X10864000Y-8033350D01*
X10814000Y-7983350D02*
X10914000Y-7983350D01*
X11115000Y-8270600D02*
X11115000Y-8370600D01*
X11065000Y-8320600D02*
X11165000Y-8320600D01*
X11115000Y-10048600D02*
X11115000Y-10148600D01*
X11065000Y-10098600D02*
X11165000Y-10098600D01*
X11118000Y-6155350D02*
X11118000Y-6255350D01*
X11068000Y-6205350D02*
X11168000Y-6205350D01*
X11118000Y-7933350D02*
X11118000Y-8033350D01*
X11068000Y-7983350D02*
X11168000Y-7983350D01*
X11369000Y-8270600D02*
X11369000Y-8370600D01*
X11319000Y-8320600D02*
X11419000Y-8320600D01*
X11369000Y-10048600D02*
X11369000Y-10148600D01*
X11319000Y-10098600D02*
X11419000Y-10098600D01*
X11372000Y-6155350D02*
X11372000Y-6255350D01*
X11322000Y-6205350D02*
X11422000Y-6205350D01*
X11372000Y-7933350D02*
X11372000Y-8033350D01*
X11322000Y-7983350D02*
X11422000Y-7983350D01*
X11623000Y-8270600D02*
X11623000Y-8370600D01*
X11573000Y-8320600D02*
X11673000Y-8320600D01*
X11623000Y-10048600D02*
X11623000Y-10148600D01*
X11573000Y-10098600D02*
X11673000Y-10098600D01*
X11626000Y-6155350D02*
X11626000Y-6255350D01*
X11576000Y-6205350D02*
X11676000Y-6205350D01*
X11626000Y-7933350D02*
X11626000Y-8033350D01*
X11576000Y-7983350D02*
X11676000Y-7983350D01*
X11877000Y-8270600D02*
X11877000Y-8370600D01*
X11827000Y-8320600D02*
X11927000Y-8320600D01*
X11877000Y-10048600D02*
X11877000Y-10148600D01*
X11827000Y-10098600D02*
X11927000Y-10098600D01*
X11880000Y-6155350D02*
X11880000Y-6255350D01*
X11830000Y-6205350D02*
X11930000Y-6205350D01*
X11880000Y-7933350D02*
X11880000Y-8033350D01*
X11830000Y-7983350D02*
X11930000Y-7983350D01*
X12131000Y-10048600D02*
X12131000Y-10148600D01*
X12081000Y-10098600D02*
X12181000Y-10098600D01*
X12134000Y-6155350D02*
X12134000Y-6255350D01*
X12084000Y-6205350D02*
X12184000Y-6205350D01*
X12385000Y-10048600D02*
X12385000Y-10148600D01*
X12335000Y-10098600D02*
X12435000Y-10098600D01*
X12388000Y-6155350D02*
X12388000Y-6255350D01*
X12338000Y-6205350D02*
X12438000Y-6205350D01*
X12639000Y-10048600D02*
X12639000Y-10148600D01*
X12589000Y-10098600D02*
X12689000Y-10098600D01*
X12642000Y-6155350D02*
X12642000Y-6255350D01*
X12592000Y-6205350D02*
X12692000Y-6205350D01*
X15385000Y-6145350D02*
X15385000Y-6245350D01*
X15335000Y-6195350D02*
X15435000Y-6195350D01*
X15499000Y-9372250D02*
X15499000Y-9472250D01*
X15449000Y-9422250D02*
X15549000Y-9422250D01*
X15499000Y-9879250D02*
X15499000Y-9979250D01*
X15449000Y-9929250D02*
X15549000Y-9929250D01*
X15639000Y-6145350D02*
X15639000Y-6245350D01*
X15589000Y-6195350D02*
X15689000Y-6195350D01*
X15753000Y-9372250D02*
X15753000Y-9472250D01*
X15703000Y-9422250D02*
X15803000Y-9422250D01*
X15753000Y-9879250D02*
X15753000Y-9979250D01*
X15703000Y-9929250D02*
X15803000Y-9929250D01*
X15893000Y-6145350D02*
X15893000Y-6245350D01*
X15843000Y-6195350D02*
X15943000Y-6195350D01*
X16007000Y-8355250D02*
X16007000Y-8455250D01*
X15957000Y-8405250D02*
X16057000Y-8405250D01*
X16007000Y-9372250D02*
X16007000Y-9472250D01*
X15957000Y-9422250D02*
X16057000Y-9422250D01*
X16007000Y-9879250D02*
X16007000Y-9979250D01*
X15957000Y-9929250D02*
X16057000Y-9929250D01*
X16147000Y-6145350D02*
X16147000Y-6245350D01*
X16097000Y-6195350D02*
X16197000Y-6195350D01*
X16147000Y-7923350D02*
X16147000Y-8023350D01*
X16097000Y-7973350D02*
X16197000Y-7973350D01*
X16261000Y-8355250D02*
X16261000Y-8455250D01*
X16211000Y-8405250D02*
X16311000Y-8405250D01*
X16261000Y-9372250D02*
X16261000Y-9472250D01*
X16211000Y-9422250D02*
X16311000Y-9422250D01*
X16261000Y-9879250D02*
X16261000Y-9979250D01*
X16211000Y-9929250D02*
X16311000Y-9929250D01*
X16401000Y-6145350D02*
X16401000Y-6245350D01*
X16351000Y-6195350D02*
X16451000Y-6195350D01*
X16401000Y-7923350D02*
X16401000Y-8023350D01*
X16351000Y-7973350D02*
X16451000Y-7973350D01*
X16515000Y-8355250D02*
X16515000Y-8455250D01*
X16465000Y-8405250D02*
X16565000Y-8405250D01*
X16515000Y-9372250D02*
X16515000Y-9472250D01*
X16465000Y-9422250D02*
X16565000Y-9422250D01*
X16515000Y-9879250D02*
X16515000Y-9979250D01*
X16465000Y-9929250D02*
X16565000Y-9929250D01*
X16655000Y-6145350D02*
X16655000Y-6245350D01*
X16605000Y-6195350D02*
X16705000Y-6195350D01*
X16655000Y-7923350D02*
X16655000Y-8023350D01*
X16605000Y-7973350D02*
X16705000Y-7973350D01*
X16769000Y-8355250D02*
X16769000Y-8455250D01*
X16719000Y-8405250D02*
X16819000Y-8405250D01*
X16769000Y-9372250D02*
X16769000Y-9472250D01*
X16719000Y-9422250D02*
X16819000Y-9422250D01*
X16769000Y-9879250D02*
X16769000Y-9979250D01*
X16719000Y-9929250D02*
X16819000Y-9929250D01*
X16909000Y-6145350D02*
X16909000Y-6245350D01*
X16859000Y-6195350D02*
X16959000Y-6195350D01*
X16909000Y-7923350D02*
X16909000Y-8023350D01*
X16859000Y-7973350D02*
X16959000Y-7973350D01*
X17023000Y-8355250D02*
X17023000Y-8455250D01*
X16973000Y-8405250D02*
X17073000Y-8405250D01*
X17023000Y-9372250D02*
X17023000Y-9472250D01*
X16973000Y-9422250D02*
X17073000Y-9422250D01*
X17023000Y-9879250D02*
X17023000Y-9979250D01*
X16973000Y-9929250D02*
X17073000Y-9929250D01*
X17163000Y-6145350D02*
X17163000Y-6245350D01*
X17113000Y-6195350D02*
X17213000Y-6195350D01*
X17163000Y-7923350D02*
X17163000Y-8023350D01*
X17113000Y-7973350D02*
X17213000Y-7973350D01*
X17277000Y-8355250D02*
X17277000Y-8455250D01*
X17227000Y-8405250D02*
X17327000Y-8405250D01*
X17277000Y-9372250D02*
X17277000Y-9472250D01*
X17227000Y-9422250D02*
X17327000Y-9422250D01*
X17277000Y-9879250D02*
X17277000Y-9979250D01*
X17227000Y-9929250D02*
X17327000Y-9929250D01*
X17417000Y-6145350D02*
X17417000Y-6245350D01*
X17367000Y-6195350D02*
X17467000Y-6195350D01*
X17417000Y-7923350D02*
X17417000Y-8023350D01*
X17367000Y-7973350D02*
X17467000Y-7973350D01*
X17531000Y-8355250D02*
X17531000Y-8455250D01*
X17481000Y-8405250D02*
X17581000Y-8405250D01*
X17531000Y-9372250D02*
X17531000Y-9472250D01*
X17481000Y-9422250D02*
X17581000Y-9422250D01*
X17531000Y-9879250D02*
X17531000Y-9979250D01*
X17481000Y-9929250D02*
X17581000Y-9929250D01*
X17671000Y-6145350D02*
X17671000Y-6245350D01*
X17621000Y-6195350D02*
X17721000Y-6195350D01*
X17785000Y-8355250D02*
X17785000Y-8455250D01*
X17735000Y-8405250D02*
X17835000Y-8405250D01*
X17785000Y-9372250D02*
X17785000Y-9472250D01*
X17735000Y-9422250D02*
X17835000Y-9422250D01*
X17785000Y-9879250D02*
X17785000Y-9979250D01*
X17735000Y-9929250D02*
X17835000Y-9929250D01*
X17925000Y-6145350D02*
X17925000Y-6245350D01*
X17875000Y-6195350D02*
X17975000Y-6195350D01*
X18039000Y-9372250D02*
X18039000Y-9472250D01*
X17989000Y-9422250D02*
X18089000Y-9422250D01*
X18039000Y-9879250D02*
X18039000Y-9979250D01*
X17989000Y-9929250D02*
X18089000Y-9929250D01*
X18179000Y-6145350D02*
X18179000Y-6245350D01*
X18129000Y-6195350D02*
X18229000Y-6195350D01*
X18532000Y-6618100D02*
X18532000Y-6718100D01*
X18482000Y-6668100D02*
X18582000Y-6668100D01*
X18532000Y-6872100D02*
X18532000Y-6972100D01*
X18482000Y-6922100D02*
X18582000Y-6922100D01*
X18532000Y-7126100D02*
X18532000Y-7226100D01*
X18482000Y-7176100D02*
X18582000Y-7176100D01*
X18532000Y-7380100D02*
X18532000Y-7480100D01*
X18482000Y-7430100D02*
X18582000Y-7430100D01*
X18532000Y-7634100D02*
X18532000Y-7734100D01*
X18482000Y-7684100D02*
X18582000Y-7684100D01*
X18532000Y-7888100D02*
X18532000Y-7988100D01*
X18482000Y-7938100D02*
X18582000Y-7938100D01*
X18532000Y-8142100D02*
X18532000Y-8242100D01*
X18482000Y-8192100D02*
X18582000Y-8192100D01*
X18532000Y-8396100D02*
X18532000Y-8496100D01*
X18482000Y-8446100D02*
X18582000Y-8446100D01*
X18532000Y-8650100D02*
X18532000Y-8750100D01*
X18482000Y-8700100D02*
X18582000Y-8700100D01*
X18532000Y-8904100D02*
X18532000Y-9004100D01*
X18482000Y-8954100D02*
X18582000Y-8954100D01*
X18532000Y-9158100D02*
X18532000Y-9258100D01*
X18482000Y-9208100D02*
X18582000Y-9208100D01*
X18532000Y-9412100D02*
X18532000Y-9512100D01*
X18482000Y-9462100D02*
X18582000Y-9462100D01*
X18786000Y-6618100D02*
X18786000Y-6718100D01*
X18736000Y-6668100D02*
X18836000Y-6668100D01*
X18786000Y-6872100D02*
X18786000Y-6972100D01*
X18736000Y-6922100D02*
X18836000Y-6922100D01*
X18786000Y-7126100D02*
X18786000Y-7226100D01*
X18736000Y-7176100D02*
X18836000Y-7176100D01*
X18786000Y-7380100D02*
X18786000Y-7480100D01*
X18736000Y-7430100D02*
X18836000Y-7430100D01*
X18786000Y-7634100D02*
X18786000Y-7734100D01*
X18736000Y-7684100D02*
X18836000Y-7684100D01*
X18786000Y-7888100D02*
X18786000Y-7988100D01*
X18736000Y-7938100D02*
X18836000Y-7938100D01*
X18786000Y-8142100D02*
X18786000Y-8242100D01*
X18736000Y-8192100D02*
X18836000Y-8192100D01*
X18786000Y-8396100D02*
X18786000Y-8496100D01*
X18736000Y-8446100D02*
X18836000Y-8446100D01*
X18786000Y-8650100D02*
X18786000Y-8750100D01*
X18736000Y-8700100D02*
X18836000Y-8700100D01*
X18786000Y-8904100D02*
X18786000Y-9004100D01*
X18736000Y-8954100D02*
X18836000Y-8954100D01*
X18786000Y-9158100D02*
X18786000Y-9258100D01*
X18736000Y-9208100D02*
X18836000Y-9208100D01*
X18786000Y-9412100D02*
X18786000Y-9512100D01*
X18736000Y-9462100D02*
X18836000Y-9462100D01*
D15*
X13158063Y-5931913D02*
X13158063Y-5859787D01*
X13085937Y-5859787D01*
X13085937Y-5931913D01*
X13158063Y-5931913D01*
X13158063Y-6185913D02*
X13158063Y-6113787D01*
X13085937Y-6113787D01*
X13085937Y-6185913D01*
X13158063Y-6185913D01*
X13158063Y-6439913D02*
X13158063Y-6367787D01*
X13085937Y-6367787D01*
X13085937Y-6439913D01*
X13158063Y-6439913D01*
X13158063Y-6693913D02*
X13158063Y-6621787D01*
X13085937Y-6621787D01*
X13085937Y-6693913D01*
X13158063Y-6693913D01*
X13158063Y-6947913D02*
X13158063Y-6875787D01*
X13085937Y-6875787D01*
X13085937Y-6947913D01*
X13158063Y-6947913D01*
X13158063Y-7201913D02*
X13158063Y-7129787D01*
X13085937Y-7129787D01*
X13085937Y-7201913D01*
X13158063Y-7201913D01*
X13158063Y-7455913D02*
X13158063Y-7383787D01*
X13085937Y-7383787D01*
X13085937Y-7455913D01*
X13158063Y-7455913D01*
X13158063Y-7709913D02*
X13158063Y-7637787D01*
X13085937Y-7637787D01*
X13085937Y-7709913D01*
X13158063Y-7709913D01*
X13158063Y-7963913D02*
X13158063Y-7891787D01*
X13085937Y-7891787D01*
X13085937Y-7963913D01*
X13158063Y-7963913D01*
X13158063Y-8217913D02*
X13158063Y-8145787D01*
X13085937Y-8145787D01*
X13085937Y-8217913D01*
X13158063Y-8217913D01*
X13158063Y-8471913D02*
X13158063Y-8399787D01*
X13085937Y-8399787D01*
X13085937Y-8471913D01*
X13158063Y-8471913D01*
X13158063Y-8725913D02*
X13158063Y-8653787D01*
X13085937Y-8653787D01*
X13085937Y-8725913D01*
X13158063Y-8725913D01*
X13158063Y-8979913D02*
X13158063Y-8907787D01*
X13085937Y-8907787D01*
X13085937Y-8979913D01*
X13158063Y-8979913D01*
X13158063Y-9233913D02*
X13158063Y-9161787D01*
X13085937Y-9161787D01*
X13085937Y-9233913D01*
X13158063Y-9233913D01*
X13158063Y-9487913D02*
X13158063Y-9415787D01*
X13085937Y-9415787D01*
X13085937Y-9487913D01*
X13158063Y-9487913D01*
X13158063Y-9741913D02*
X13158063Y-9669787D01*
X13085937Y-9669787D01*
X13085937Y-9741913D01*
X13158063Y-9741913D01*
X13158063Y-9995913D02*
X13158063Y-9923787D01*
X13085937Y-9923787D01*
X13085937Y-9995913D01*
X13158063Y-9995913D01*
X13158063Y-10249913D02*
X13158063Y-10177787D01*
X13085937Y-10177787D01*
X13085937Y-10249913D01*
X13158063Y-10249913D01*
X13158063Y-10503913D02*
X13158063Y-10431787D01*
X13085937Y-10431787D01*
X13085937Y-10503913D01*
X13158063Y-10503913D01*
X13158063Y-10757913D02*
X13158063Y-10685787D01*
X13085937Y-10685787D01*
X13085937Y-10757913D01*
X13158063Y-10757913D01*
X13793063Y-10734913D02*
X13793063Y-10662787D01*
X13720937Y-10662787D01*
X13720937Y-10734913D01*
X13793063Y-10734913D01*
X14047063Y-10734913D02*
X14047063Y-10662787D01*
X13974937Y-10662787D01*
X13974937Y-10734913D01*
X14047063Y-10734913D01*
X14301063Y-10734913D02*
X14301063Y-10662787D01*
X14228937Y-10662787D01*
X14228937Y-10734913D01*
X14301063Y-10734913D01*
X14936063Y-5931913D02*
X14936063Y-5859787D01*
X14863937Y-5859787D01*
X14863937Y-5931913D01*
X14936063Y-5931913D01*
X14936063Y-6185913D02*
X14936063Y-6113787D01*
X14863937Y-6113787D01*
X14863937Y-6185913D01*
X14936063Y-6185913D01*
X14936063Y-6439913D02*
X14936063Y-6367787D01*
X14863937Y-6367787D01*
X14863937Y-6439913D01*
X14936063Y-6439913D01*
X14936063Y-6693913D02*
X14936063Y-6621787D01*
X14863937Y-6621787D01*
X14863937Y-6693913D01*
X14936063Y-6693913D01*
X14936063Y-6947913D02*
X14936063Y-6875787D01*
X14863937Y-6875787D01*
X14863937Y-6947913D01*
X14936063Y-6947913D01*
X14936063Y-7201913D02*
X14936063Y-7129787D01*
X14863937Y-7129787D01*
X14863937Y-7201913D01*
X14936063Y-7201913D01*
X14936063Y-7455913D02*
X14936063Y-7383787D01*
X14863937Y-7383787D01*
X14863937Y-7455913D01*
X14936063Y-7455913D01*
X14936063Y-7709913D02*
X14936063Y-7637787D01*
X14863937Y-7637787D01*
X14863937Y-7709913D01*
X14936063Y-7709913D01*
X14936063Y-7963913D02*
X14936063Y-7891787D01*
X14863937Y-7891787D01*
X14863937Y-7963913D01*
X14936063Y-7963913D01*
X14936063Y-8217913D02*
X14936063Y-8145787D01*
X14863937Y-8145787D01*
X14863937Y-8217913D01*
X14936063Y-8217913D01*
X14936063Y-8471913D02*
X14936063Y-8399787D01*
X14863937Y-8399787D01*
X14863937Y-8471913D01*
X14936063Y-8471913D01*
X14936063Y-8725913D02*
X14936063Y-8653787D01*
X14863937Y-8653787D01*
X14863937Y-8725913D01*
X14936063Y-8725913D01*
X14936063Y-8979913D02*
X14936063Y-8907787D01*
X14863937Y-8907787D01*
X14863937Y-8979913D01*
X14936063Y-8979913D01*
X14936063Y-9233913D02*
X14936063Y-9161787D01*
X14863937Y-9161787D01*
X14863937Y-9233913D01*
X14936063Y-9233913D01*
X14936063Y-9487913D02*
X14936063Y-9415787D01*
X14863937Y-9415787D01*
X14863937Y-9487913D01*
X14936063Y-9487913D01*
X14936063Y-9741913D02*
X14936063Y-9669787D01*
X14863937Y-9669787D01*
X14863937Y-9741913D01*
X14936063Y-9741913D01*
X14936063Y-9995913D02*
X14936063Y-9923787D01*
X14863937Y-9923787D01*
X14863937Y-9995913D01*
X14936063Y-9995913D01*
X14936063Y-10249913D02*
X14936063Y-10177787D01*
X14863937Y-10177787D01*
X14863937Y-10249913D01*
X14936063Y-10249913D01*
X14936063Y-10503913D02*
X14936063Y-10431787D01*
X14863937Y-10431787D01*
X14863937Y-10503913D01*
X14936063Y-10503913D01*
X14936063Y-10757913D02*
X14936063Y-10685787D01*
X14863937Y-10685787D01*
X14863937Y-10757913D01*
X14936063Y-10757913D01*
D16*
X13911000Y-5901850D02*
X13971000Y-5841850D01*
X13911000Y-5781850D01*
X13851000Y-5841850D01*
X13911000Y-5901850D01*
D11*
X13851000Y-5791850D02*
X13851000Y-5891850D01*
X13851000Y-5891850D02*
G75*
G03*
X13971000Y-5891850I60000J0D01*
G01*
X13971000Y-5891850D02*
X13971000Y-5791850D01*
X13971000Y-5791850D02*
G75*
G03*
X13851000Y-5791850I-60000J0D01*
G01*
D16*
X14011000Y-6231850D02*
X14071000Y-6171850D01*
X14011000Y-6111850D01*
X13951000Y-6171850D01*
X14011000Y-6231850D01*
D11*
X13951000Y-6121850D02*
X13951000Y-6221850D01*
X13951000Y-6221850D02*
G75*
G03*
X14071000Y-6221850I60000J0D01*
G01*
X14071000Y-6221850D02*
X14071000Y-6121850D01*
X14071000Y-6121850D02*
G75*
G03*
X13951000Y-6121850I-60000J0D01*
G01*
D16*
X14111000Y-5903850D02*
X14171000Y-5843850D01*
X14111000Y-5783850D01*
X14051000Y-5843850D01*
X14111000Y-5903850D01*
D11*
X14051000Y-5793850D02*
X14051000Y-5893850D01*
X14051000Y-5893850D02*
G75*
G03*
X14171000Y-5893850I60000J0D01*
G01*
X14171000Y-5893850D02*
X14171000Y-5793850D01*
X14171000Y-5793850D02*
G75*
G03*
X14051000Y-5793850I-60000J0D01*
G01*
X9260119Y-11369024D02*
X9260119Y-11169024D01*
X9260119Y-11169024D02*
X9307738Y-11169024D01*
X9307738Y-11169024D02*
X9336310Y-11178548D01*
X9336310Y-11178548D02*
X9355357Y-11197595D01*
X9355357Y-11197595D02*
X9364881Y-11216643D01*
X9364881Y-11216643D02*
X9374405Y-11254738D01*
X9374405Y-11254738D02*
X9374405Y-11283309D01*
X9374405Y-11283309D02*
X9364881Y-11321405D01*
X9364881Y-11321405D02*
X9355357Y-11340452D01*
X9355357Y-11340452D02*
X9336310Y-11359500D01*
X9336310Y-11359500D02*
X9307738Y-11369024D01*
X9307738Y-11369024D02*
X9260119Y-11369024D01*
X9460119Y-11369024D02*
X9460119Y-11235690D01*
X9460119Y-11273786D02*
X9469643Y-11254738D01*
X9469643Y-11254738D02*
X9479167Y-11245214D01*
X9479167Y-11245214D02*
X9498214Y-11235690D01*
X9498214Y-11235690D02*
X9517262Y-11235690D01*
X9583929Y-11369024D02*
X9583929Y-11235690D01*
X9583929Y-11169024D02*
X9574405Y-11178548D01*
X9574405Y-11178548D02*
X9583929Y-11188071D01*
X9583929Y-11188071D02*
X9593452Y-11178548D01*
X9593452Y-11178548D02*
X9583929Y-11169024D01*
X9583929Y-11169024D02*
X9583929Y-11188071D01*
X9707738Y-11369024D02*
X9688690Y-11359500D01*
X9688690Y-11359500D02*
X9679167Y-11340452D01*
X9679167Y-11340452D02*
X9679167Y-11169024D01*
X9812500Y-11369024D02*
X9793452Y-11359500D01*
X9793452Y-11359500D02*
X9783929Y-11340452D01*
X9783929Y-11340452D02*
X9783929Y-11169024D01*
X10041071Y-11369024D02*
X10041071Y-11169024D01*
X10041071Y-11169024D02*
X10107738Y-11311881D01*
X10107738Y-11311881D02*
X10174405Y-11169024D01*
X10174405Y-11169024D02*
X10174405Y-11369024D01*
X10355357Y-11369024D02*
X10355357Y-11264262D01*
X10355357Y-11264262D02*
X10345833Y-11245214D01*
X10345833Y-11245214D02*
X10326786Y-11235690D01*
X10326786Y-11235690D02*
X10288690Y-11235690D01*
X10288690Y-11235690D02*
X10269643Y-11245214D01*
X10355357Y-11359500D02*
X10336310Y-11369024D01*
X10336310Y-11369024D02*
X10288690Y-11369024D01*
X10288690Y-11369024D02*
X10269643Y-11359500D01*
X10269643Y-11359500D02*
X10260119Y-11340452D01*
X10260119Y-11340452D02*
X10260119Y-11321405D01*
X10260119Y-11321405D02*
X10269643Y-11302357D01*
X10269643Y-11302357D02*
X10288690Y-11292833D01*
X10288690Y-11292833D02*
X10336310Y-11292833D01*
X10336310Y-11292833D02*
X10355357Y-11283309D01*
X10450595Y-11235690D02*
X10450595Y-11435690D01*
X10450595Y-11245214D02*
X10469643Y-11235690D01*
X10469643Y-11235690D02*
X10507738Y-11235690D01*
X10507738Y-11235690D02*
X10526786Y-11245214D01*
X10526786Y-11245214D02*
X10536310Y-11254738D01*
X10536310Y-11254738D02*
X10545833Y-11273786D01*
X10545833Y-11273786D02*
X10545833Y-11330928D01*
X10545833Y-11330928D02*
X10536310Y-11349976D01*
X10536310Y-11349976D02*
X10526786Y-11359500D01*
X10526786Y-11359500D02*
X10507738Y-11369024D01*
X10507738Y-11369024D02*
X10469643Y-11369024D01*
X10469643Y-11369024D02*
X10450595Y-11359500D01*
X10631548Y-11349976D02*
X10641071Y-11359500D01*
X10641071Y-11359500D02*
X10631548Y-11369024D01*
X10631548Y-11369024D02*
X10622024Y-11359500D01*
X10622024Y-11359500D02*
X10631548Y-11349976D01*
X10631548Y-11349976D02*
X10631548Y-11369024D01*
X10631548Y-11245214D02*
X10641071Y-11254738D01*
X10641071Y-11254738D02*
X10631548Y-11264262D01*
X10631548Y-11264262D02*
X10622024Y-11254738D01*
X10622024Y-11254738D02*
X10631548Y-11245214D01*
X10631548Y-11245214D02*
X10631548Y-11264262D01*
D12*
X8972500Y-11676500D02*
X9012500Y-11716500D01*
X9012500Y-11676500D02*
X8972500Y-11716500D01*
D11*
X9298214Y-11589024D02*
X9317262Y-11589024D01*
X9317262Y-11589024D02*
X9336310Y-11598548D01*
X9336310Y-11598548D02*
X9345833Y-11608071D01*
X9345833Y-11608071D02*
X9355357Y-11627119D01*
X9355357Y-11627119D02*
X9364881Y-11665214D01*
X9364881Y-11665214D02*
X9364881Y-11712833D01*
X9364881Y-11712833D02*
X9355357Y-11750928D01*
X9355357Y-11750928D02*
X9345833Y-11769976D01*
X9345833Y-11769976D02*
X9336310Y-11779500D01*
X9336310Y-11779500D02*
X9317262Y-11789024D01*
X9317262Y-11789024D02*
X9298214Y-11789024D01*
X9298214Y-11789024D02*
X9279167Y-11779500D01*
X9279167Y-11779500D02*
X9269643Y-11769976D01*
X9269643Y-11769976D02*
X9260119Y-11750928D01*
X9260119Y-11750928D02*
X9250595Y-11712833D01*
X9250595Y-11712833D02*
X9250595Y-11665214D01*
X9250595Y-11665214D02*
X9260119Y-11627119D01*
X9260119Y-11627119D02*
X9269643Y-11608071D01*
X9269643Y-11608071D02*
X9279167Y-11598548D01*
X9279167Y-11598548D02*
X9298214Y-11589024D01*
X9450595Y-11769976D02*
X9460119Y-11779500D01*
X9460119Y-11779500D02*
X9450595Y-11789024D01*
X9450595Y-11789024D02*
X9441071Y-11779500D01*
X9441071Y-11779500D02*
X9450595Y-11769976D01*
X9450595Y-11769976D02*
X9450595Y-11789024D01*
X9631548Y-11655690D02*
X9631548Y-11789024D01*
X9583929Y-11579500D02*
X9536310Y-11722357D01*
X9536310Y-11722357D02*
X9660119Y-11722357D01*
X9774405Y-11589024D02*
X9793452Y-11589024D01*
X9793452Y-11589024D02*
X9812500Y-11598548D01*
X9812500Y-11598548D02*
X9822024Y-11608071D01*
X9822024Y-11608071D02*
X9831548Y-11627119D01*
X9831548Y-11627119D02*
X9841071Y-11665214D01*
X9841071Y-11665214D02*
X9841071Y-11712833D01*
X9841071Y-11712833D02*
X9831548Y-11750928D01*
X9831548Y-11750928D02*
X9822024Y-11769976D01*
X9822024Y-11769976D02*
X9812500Y-11779500D01*
X9812500Y-11779500D02*
X9793452Y-11789024D01*
X9793452Y-11789024D02*
X9774405Y-11789024D01*
X9774405Y-11789024D02*
X9755357Y-11779500D01*
X9755357Y-11779500D02*
X9745833Y-11769976D01*
X9745833Y-11769976D02*
X9736310Y-11750928D01*
X9736310Y-11750928D02*
X9726786Y-11712833D01*
X9726786Y-11712833D02*
X9726786Y-11665214D01*
X9726786Y-11665214D02*
X9736310Y-11627119D01*
X9736310Y-11627119D02*
X9745833Y-11608071D01*
X9745833Y-11608071D02*
X9755357Y-11598548D01*
X9755357Y-11598548D02*
X9774405Y-11589024D01*
X9964881Y-11589024D02*
X9983929Y-11589024D01*
X9983929Y-11589024D02*
X10002976Y-11598548D01*
X10002976Y-11598548D02*
X10012500Y-11608071D01*
X10012500Y-11608071D02*
X10022024Y-11627119D01*
X10022024Y-11627119D02*
X10031548Y-11665214D01*
X10031548Y-11665214D02*
X10031548Y-11712833D01*
X10031548Y-11712833D02*
X10022024Y-11750928D01*
X10022024Y-11750928D02*
X10012500Y-11769976D01*
X10012500Y-11769976D02*
X10002976Y-11779500D01*
X10002976Y-11779500D02*
X9983929Y-11789024D01*
X9983929Y-11789024D02*
X9964881Y-11789024D01*
X9964881Y-11789024D02*
X9945833Y-11779500D01*
X9945833Y-11779500D02*
X9936310Y-11769976D01*
X9936310Y-11769976D02*
X9926786Y-11750928D01*
X9926786Y-11750928D02*
X9917262Y-11712833D01*
X9917262Y-11712833D02*
X9917262Y-11665214D01*
X9917262Y-11665214D02*
X9926786Y-11627119D01*
X9926786Y-11627119D02*
X9936310Y-11608071D01*
X9936310Y-11608071D02*
X9945833Y-11598548D01*
X9945833Y-11598548D02*
X9964881Y-11589024D01*
X10117262Y-11789024D02*
X10117262Y-11655690D01*
X10117262Y-11674738D02*
X10126786Y-11665214D01*
X10126786Y-11665214D02*
X10145833Y-11655690D01*
X10145833Y-11655690D02*
X10174405Y-11655690D01*
X10174405Y-11655690D02*
X10193452Y-11665214D01*
X10193452Y-11665214D02*
X10202976Y-11684262D01*
X10202976Y-11684262D02*
X10202976Y-11789024D01*
X10202976Y-11684262D02*
X10212500Y-11665214D01*
X10212500Y-11665214D02*
X10231548Y-11655690D01*
X10231548Y-11655690D02*
X10260119Y-11655690D01*
X10260119Y-11655690D02*
X10279167Y-11665214D01*
X10279167Y-11665214D02*
X10288691Y-11684262D01*
X10288691Y-11684262D02*
X10288691Y-11789024D01*
X10383929Y-11789024D02*
X10383929Y-11655690D01*
X10383929Y-11674738D02*
X10393452Y-11665214D01*
X10393452Y-11665214D02*
X10412500Y-11655690D01*
X10412500Y-11655690D02*
X10441072Y-11655690D01*
X10441072Y-11655690D02*
X10460119Y-11665214D01*
X10460119Y-11665214D02*
X10469643Y-11684262D01*
X10469643Y-11684262D02*
X10469643Y-11789024D01*
X10469643Y-11684262D02*
X10479167Y-11665214D01*
X10479167Y-11665214D02*
X10498214Y-11655690D01*
X10498214Y-11655690D02*
X10526786Y-11655690D01*
X10526786Y-11655690D02*
X10545833Y-11665214D01*
X10545833Y-11665214D02*
X10555357Y-11684262D01*
X10555357Y-11684262D02*
X10555357Y-11789024D01*
X10945833Y-11579500D02*
X10774405Y-11836643D01*
X11202976Y-11589024D02*
X11222024Y-11589024D01*
X11222024Y-11589024D02*
X11241072Y-11598548D01*
X11241072Y-11598548D02*
X11250595Y-11608071D01*
X11250595Y-11608071D02*
X11260119Y-11627119D01*
X11260119Y-11627119D02*
X11269643Y-11665214D01*
X11269643Y-11665214D02*
X11269643Y-11712833D01*
X11269643Y-11712833D02*
X11260119Y-11750928D01*
X11260119Y-11750928D02*
X11250595Y-11769976D01*
X11250595Y-11769976D02*
X11241072Y-11779500D01*
X11241072Y-11779500D02*
X11222024Y-11789024D01*
X11222024Y-11789024D02*
X11202976Y-11789024D01*
X11202976Y-11789024D02*
X11183929Y-11779500D01*
X11183929Y-11779500D02*
X11174405Y-11769976D01*
X11174405Y-11769976D02*
X11164881Y-11750928D01*
X11164881Y-11750928D02*
X11155357Y-11712833D01*
X11155357Y-11712833D02*
X11155357Y-11665214D01*
X11155357Y-11665214D02*
X11164881Y-11627119D01*
X11164881Y-11627119D02*
X11174405Y-11608071D01*
X11174405Y-11608071D02*
X11183929Y-11598548D01*
X11183929Y-11598548D02*
X11202976Y-11589024D01*
X11355357Y-11769976D02*
X11364881Y-11779500D01*
X11364881Y-11779500D02*
X11355357Y-11789024D01*
X11355357Y-11789024D02*
X11345833Y-11779500D01*
X11345833Y-11779500D02*
X11355357Y-11769976D01*
X11355357Y-11769976D02*
X11355357Y-11789024D01*
X11488691Y-11589024D02*
X11507738Y-11589024D01*
X11507738Y-11589024D02*
X11526786Y-11598548D01*
X11526786Y-11598548D02*
X11536310Y-11608071D01*
X11536310Y-11608071D02*
X11545833Y-11627119D01*
X11545833Y-11627119D02*
X11555357Y-11665214D01*
X11555357Y-11665214D02*
X11555357Y-11712833D01*
X11555357Y-11712833D02*
X11545833Y-11750928D01*
X11545833Y-11750928D02*
X11536310Y-11769976D01*
X11536310Y-11769976D02*
X11526786Y-11779500D01*
X11526786Y-11779500D02*
X11507738Y-11789024D01*
X11507738Y-11789024D02*
X11488691Y-11789024D01*
X11488691Y-11789024D02*
X11469643Y-11779500D01*
X11469643Y-11779500D02*
X11460119Y-11769976D01*
X11460119Y-11769976D02*
X11450595Y-11750928D01*
X11450595Y-11750928D02*
X11441072Y-11712833D01*
X11441072Y-11712833D02*
X11441072Y-11665214D01*
X11441072Y-11665214D02*
X11450595Y-11627119D01*
X11450595Y-11627119D02*
X11460119Y-11608071D01*
X11460119Y-11608071D02*
X11469643Y-11598548D01*
X11469643Y-11598548D02*
X11488691Y-11589024D01*
X11745833Y-11789024D02*
X11631548Y-11789024D01*
X11688691Y-11789024D02*
X11688691Y-11589024D01*
X11688691Y-11589024D02*
X11669643Y-11617595D01*
X11669643Y-11617595D02*
X11650595Y-11636643D01*
X11650595Y-11636643D02*
X11631548Y-11646167D01*
X11926786Y-11589024D02*
X11831548Y-11589024D01*
X11831548Y-11589024D02*
X11822024Y-11684262D01*
X11822024Y-11684262D02*
X11831548Y-11674738D01*
X11831548Y-11674738D02*
X11850595Y-11665214D01*
X11850595Y-11665214D02*
X11898214Y-11665214D01*
X11898214Y-11665214D02*
X11917262Y-11674738D01*
X11917262Y-11674738D02*
X11926786Y-11684262D01*
X11926786Y-11684262D02*
X11936310Y-11703309D01*
X11936310Y-11703309D02*
X11936310Y-11750928D01*
X11936310Y-11750928D02*
X11926786Y-11769976D01*
X11926786Y-11769976D02*
X11917262Y-11779500D01*
X11917262Y-11779500D02*
X11898214Y-11789024D01*
X11898214Y-11789024D02*
X11850595Y-11789024D01*
X11850595Y-11789024D02*
X11831548Y-11779500D01*
X11831548Y-11779500D02*
X11822024Y-11769976D01*
X12002976Y-11589024D02*
X12136310Y-11589024D01*
X12136310Y-11589024D02*
X12050595Y-11789024D01*
X12202976Y-11589024D02*
X12202976Y-11627119D01*
X12279167Y-11589024D02*
X12279167Y-11627119D01*
X12574405Y-11865214D02*
X12564881Y-11855690D01*
X12564881Y-11855690D02*
X12545834Y-11827119D01*
X12545834Y-11827119D02*
X12536310Y-11808071D01*
X12536310Y-11808071D02*
X12526786Y-11779500D01*
X12526786Y-11779500D02*
X12517262Y-11731881D01*
X12517262Y-11731881D02*
X12517262Y-11693786D01*
X12517262Y-11693786D02*
X12526786Y-11646167D01*
X12526786Y-11646167D02*
X12536310Y-11617595D01*
X12536310Y-11617595D02*
X12545834Y-11598548D01*
X12545834Y-11598548D02*
X12564881Y-11569976D01*
X12564881Y-11569976D02*
X12574405Y-11560452D01*
X12641072Y-11608071D02*
X12650595Y-11598548D01*
X12650595Y-11598548D02*
X12669643Y-11589024D01*
X12669643Y-11589024D02*
X12717262Y-11589024D01*
X12717262Y-11589024D02*
X12736310Y-11598548D01*
X12736310Y-11598548D02*
X12745834Y-11608071D01*
X12745834Y-11608071D02*
X12755357Y-11627119D01*
X12755357Y-11627119D02*
X12755357Y-11646167D01*
X12755357Y-11646167D02*
X12745834Y-11674738D01*
X12745834Y-11674738D02*
X12631548Y-11789024D01*
X12631548Y-11789024D02*
X12755357Y-11789024D01*
X12869643Y-11674738D02*
X12850595Y-11665214D01*
X12850595Y-11665214D02*
X12841072Y-11655690D01*
X12841072Y-11655690D02*
X12831548Y-11636643D01*
X12831548Y-11636643D02*
X12831548Y-11627119D01*
X12831548Y-11627119D02*
X12841072Y-11608071D01*
X12841072Y-11608071D02*
X12850595Y-11598548D01*
X12850595Y-11598548D02*
X12869643Y-11589024D01*
X12869643Y-11589024D02*
X12907738Y-11589024D01*
X12907738Y-11589024D02*
X12926786Y-11598548D01*
X12926786Y-11598548D02*
X12936310Y-11608071D01*
X12936310Y-11608071D02*
X12945834Y-11627119D01*
X12945834Y-11627119D02*
X12945834Y-11636643D01*
X12945834Y-11636643D02*
X12936310Y-11655690D01*
X12936310Y-11655690D02*
X12926786Y-11665214D01*
X12926786Y-11665214D02*
X12907738Y-11674738D01*
X12907738Y-11674738D02*
X12869643Y-11674738D01*
X12869643Y-11674738D02*
X12850595Y-11684262D01*
X12850595Y-11684262D02*
X12841072Y-11693786D01*
X12841072Y-11693786D02*
X12831548Y-11712833D01*
X12831548Y-11712833D02*
X12831548Y-11750928D01*
X12831548Y-11750928D02*
X12841072Y-11769976D01*
X12841072Y-11769976D02*
X12850595Y-11779500D01*
X12850595Y-11779500D02*
X12869643Y-11789024D01*
X12869643Y-11789024D02*
X12907738Y-11789024D01*
X12907738Y-11789024D02*
X12926786Y-11779500D01*
X12926786Y-11779500D02*
X12936310Y-11769976D01*
X12936310Y-11769976D02*
X12945834Y-11750928D01*
X12945834Y-11750928D02*
X12945834Y-11712833D01*
X12945834Y-11712833D02*
X12936310Y-11693786D01*
X12936310Y-11693786D02*
X12926786Y-11684262D01*
X12926786Y-11684262D02*
X12907738Y-11674738D01*
X13183929Y-11789024D02*
X13183929Y-11589024D01*
X13269643Y-11789024D02*
X13269643Y-11684262D01*
X13269643Y-11684262D02*
X13260119Y-11665214D01*
X13260119Y-11665214D02*
X13241072Y-11655690D01*
X13241072Y-11655690D02*
X13212500Y-11655690D01*
X13212500Y-11655690D02*
X13193453Y-11665214D01*
X13193453Y-11665214D02*
X13183929Y-11674738D01*
X13393453Y-11789024D02*
X13374405Y-11779500D01*
X13374405Y-11779500D02*
X13364881Y-11769976D01*
X13364881Y-11769976D02*
X13355357Y-11750928D01*
X13355357Y-11750928D02*
X13355357Y-11693786D01*
X13355357Y-11693786D02*
X13364881Y-11674738D01*
X13364881Y-11674738D02*
X13374405Y-11665214D01*
X13374405Y-11665214D02*
X13393453Y-11655690D01*
X13393453Y-11655690D02*
X13422024Y-11655690D01*
X13422024Y-11655690D02*
X13441072Y-11665214D01*
X13441072Y-11665214D02*
X13450596Y-11674738D01*
X13450596Y-11674738D02*
X13460119Y-11693786D01*
X13460119Y-11693786D02*
X13460119Y-11750928D01*
X13460119Y-11750928D02*
X13450596Y-11769976D01*
X13450596Y-11769976D02*
X13441072Y-11779500D01*
X13441072Y-11779500D02*
X13422024Y-11789024D01*
X13422024Y-11789024D02*
X13393453Y-11789024D01*
X13574405Y-11789024D02*
X13555357Y-11779500D01*
X13555357Y-11779500D02*
X13545834Y-11760452D01*
X13545834Y-11760452D02*
X13545834Y-11589024D01*
X13726786Y-11779500D02*
X13707738Y-11789024D01*
X13707738Y-11789024D02*
X13669643Y-11789024D01*
X13669643Y-11789024D02*
X13650596Y-11779500D01*
X13650596Y-11779500D02*
X13641072Y-11760452D01*
X13641072Y-11760452D02*
X13641072Y-11684262D01*
X13641072Y-11684262D02*
X13650596Y-11665214D01*
X13650596Y-11665214D02*
X13669643Y-11655690D01*
X13669643Y-11655690D02*
X13707738Y-11655690D01*
X13707738Y-11655690D02*
X13726786Y-11665214D01*
X13726786Y-11665214D02*
X13736310Y-11684262D01*
X13736310Y-11684262D02*
X13736310Y-11703309D01*
X13736310Y-11703309D02*
X13641072Y-11722357D01*
X13812500Y-11779500D02*
X13831548Y-11789024D01*
X13831548Y-11789024D02*
X13869643Y-11789024D01*
X13869643Y-11789024D02*
X13888691Y-11779500D01*
X13888691Y-11779500D02*
X13898215Y-11760452D01*
X13898215Y-11760452D02*
X13898215Y-11750928D01*
X13898215Y-11750928D02*
X13888691Y-11731881D01*
X13888691Y-11731881D02*
X13869643Y-11722357D01*
X13869643Y-11722357D02*
X13841072Y-11722357D01*
X13841072Y-11722357D02*
X13822024Y-11712833D01*
X13822024Y-11712833D02*
X13812500Y-11693786D01*
X13812500Y-11693786D02*
X13812500Y-11684262D01*
X13812500Y-11684262D02*
X13822024Y-11665214D01*
X13822024Y-11665214D02*
X13841072Y-11655690D01*
X13841072Y-11655690D02*
X13869643Y-11655690D01*
X13869643Y-11655690D02*
X13888691Y-11665214D01*
X13964881Y-11865214D02*
X13974405Y-11855690D01*
X13974405Y-11855690D02*
X13993453Y-11827119D01*
X13993453Y-11827119D02*
X14002977Y-11808071D01*
X14002977Y-11808071D02*
X14012500Y-11779500D01*
X14012500Y-11779500D02*
X14022024Y-11731881D01*
X14022024Y-11731881D02*
X14022024Y-11693786D01*
X14022024Y-11693786D02*
X14012500Y-11646167D01*
X14012500Y-11646167D02*
X14002977Y-11617595D01*
X14002977Y-11617595D02*
X13993453Y-11598548D01*
X13993453Y-11598548D02*
X13974405Y-11569976D01*
X13974405Y-11569976D02*
X13964881Y-11560452D01*
D13*
X9012500Y-11960500D02*
G75*
G03*
X9012500Y-11960500I-35000J0D01*
G01*
D11*
X9298214Y-11853024D02*
X9317262Y-11853024D01*
X9317262Y-11853024D02*
X9336310Y-11862548D01*
X9336310Y-11862548D02*
X9345833Y-11872071D01*
X9345833Y-11872071D02*
X9355357Y-11891119D01*
X9355357Y-11891119D02*
X9364881Y-11929214D01*
X9364881Y-11929214D02*
X9364881Y-11976833D01*
X9364881Y-11976833D02*
X9355357Y-12014928D01*
X9355357Y-12014928D02*
X9345833Y-12033976D01*
X9345833Y-12033976D02*
X9336310Y-12043500D01*
X9336310Y-12043500D02*
X9317262Y-12053024D01*
X9317262Y-12053024D02*
X9298214Y-12053024D01*
X9298214Y-12053024D02*
X9279167Y-12043500D01*
X9279167Y-12043500D02*
X9269643Y-12033976D01*
X9269643Y-12033976D02*
X9260119Y-12014928D01*
X9260119Y-12014928D02*
X9250595Y-11976833D01*
X9250595Y-11976833D02*
X9250595Y-11929214D01*
X9250595Y-11929214D02*
X9260119Y-11891119D01*
X9260119Y-11891119D02*
X9269643Y-11872071D01*
X9269643Y-11872071D02*
X9279167Y-11862548D01*
X9279167Y-11862548D02*
X9298214Y-11853024D01*
X9450595Y-12033976D02*
X9460119Y-12043500D01*
X9460119Y-12043500D02*
X9450595Y-12053024D01*
X9450595Y-12053024D02*
X9441071Y-12043500D01*
X9441071Y-12043500D02*
X9450595Y-12033976D01*
X9450595Y-12033976D02*
X9450595Y-12053024D01*
X9526786Y-11853024D02*
X9660119Y-11853024D01*
X9660119Y-11853024D02*
X9574405Y-12053024D01*
X9774405Y-11853024D02*
X9793452Y-11853024D01*
X9793452Y-11853024D02*
X9812500Y-11862548D01*
X9812500Y-11862548D02*
X9822024Y-11872071D01*
X9822024Y-11872071D02*
X9831548Y-11891119D01*
X9831548Y-11891119D02*
X9841071Y-11929214D01*
X9841071Y-11929214D02*
X9841071Y-11976833D01*
X9841071Y-11976833D02*
X9831548Y-12014928D01*
X9831548Y-12014928D02*
X9822024Y-12033976D01*
X9822024Y-12033976D02*
X9812500Y-12043500D01*
X9812500Y-12043500D02*
X9793452Y-12053024D01*
X9793452Y-12053024D02*
X9774405Y-12053024D01*
X9774405Y-12053024D02*
X9755357Y-12043500D01*
X9755357Y-12043500D02*
X9745833Y-12033976D01*
X9745833Y-12033976D02*
X9736310Y-12014928D01*
X9736310Y-12014928D02*
X9726786Y-11976833D01*
X9726786Y-11976833D02*
X9726786Y-11929214D01*
X9726786Y-11929214D02*
X9736310Y-11891119D01*
X9736310Y-11891119D02*
X9745833Y-11872071D01*
X9745833Y-11872071D02*
X9755357Y-11862548D01*
X9755357Y-11862548D02*
X9774405Y-11853024D01*
X9964881Y-11853024D02*
X9983929Y-11853024D01*
X9983929Y-11853024D02*
X10002976Y-11862548D01*
X10002976Y-11862548D02*
X10012500Y-11872071D01*
X10012500Y-11872071D02*
X10022024Y-11891119D01*
X10022024Y-11891119D02*
X10031548Y-11929214D01*
X10031548Y-11929214D02*
X10031548Y-11976833D01*
X10031548Y-11976833D02*
X10022024Y-12014928D01*
X10022024Y-12014928D02*
X10012500Y-12033976D01*
X10012500Y-12033976D02*
X10002976Y-12043500D01*
X10002976Y-12043500D02*
X9983929Y-12053024D01*
X9983929Y-12053024D02*
X9964881Y-12053024D01*
X9964881Y-12053024D02*
X9945833Y-12043500D01*
X9945833Y-12043500D02*
X9936310Y-12033976D01*
X9936310Y-12033976D02*
X9926786Y-12014928D01*
X9926786Y-12014928D02*
X9917262Y-11976833D01*
X9917262Y-11976833D02*
X9917262Y-11929214D01*
X9917262Y-11929214D02*
X9926786Y-11891119D01*
X9926786Y-11891119D02*
X9936310Y-11872071D01*
X9936310Y-11872071D02*
X9945833Y-11862548D01*
X9945833Y-11862548D02*
X9964881Y-11853024D01*
X10117262Y-12053024D02*
X10117262Y-11919690D01*
X10117262Y-11938738D02*
X10126786Y-11929214D01*
X10126786Y-11929214D02*
X10145833Y-11919690D01*
X10145833Y-11919690D02*
X10174405Y-11919690D01*
X10174405Y-11919690D02*
X10193452Y-11929214D01*
X10193452Y-11929214D02*
X10202976Y-11948262D01*
X10202976Y-11948262D02*
X10202976Y-12053024D01*
X10202976Y-11948262D02*
X10212500Y-11929214D01*
X10212500Y-11929214D02*
X10231548Y-11919690D01*
X10231548Y-11919690D02*
X10260119Y-11919690D01*
X10260119Y-11919690D02*
X10279167Y-11929214D01*
X10279167Y-11929214D02*
X10288691Y-11948262D01*
X10288691Y-11948262D02*
X10288691Y-12053024D01*
X10383929Y-12053024D02*
X10383929Y-11919690D01*
X10383929Y-11938738D02*
X10393452Y-11929214D01*
X10393452Y-11929214D02*
X10412500Y-11919690D01*
X10412500Y-11919690D02*
X10441072Y-11919690D01*
X10441072Y-11919690D02*
X10460119Y-11929214D01*
X10460119Y-11929214D02*
X10469643Y-11948262D01*
X10469643Y-11948262D02*
X10469643Y-12053024D01*
X10469643Y-11948262D02*
X10479167Y-11929214D01*
X10479167Y-11929214D02*
X10498214Y-11919690D01*
X10498214Y-11919690D02*
X10526786Y-11919690D01*
X10526786Y-11919690D02*
X10545833Y-11929214D01*
X10545833Y-11929214D02*
X10555357Y-11948262D01*
X10555357Y-11948262D02*
X10555357Y-12053024D01*
X10945833Y-11843500D02*
X10774405Y-12100643D01*
X11202976Y-11853024D02*
X11222024Y-11853024D01*
X11222024Y-11853024D02*
X11241072Y-11862548D01*
X11241072Y-11862548D02*
X11250595Y-11872071D01*
X11250595Y-11872071D02*
X11260119Y-11891119D01*
X11260119Y-11891119D02*
X11269643Y-11929214D01*
X11269643Y-11929214D02*
X11269643Y-11976833D01*
X11269643Y-11976833D02*
X11260119Y-12014928D01*
X11260119Y-12014928D02*
X11250595Y-12033976D01*
X11250595Y-12033976D02*
X11241072Y-12043500D01*
X11241072Y-12043500D02*
X11222024Y-12053024D01*
X11222024Y-12053024D02*
X11202976Y-12053024D01*
X11202976Y-12053024D02*
X11183929Y-12043500D01*
X11183929Y-12043500D02*
X11174405Y-12033976D01*
X11174405Y-12033976D02*
X11164881Y-12014928D01*
X11164881Y-12014928D02*
X11155357Y-11976833D01*
X11155357Y-11976833D02*
X11155357Y-11929214D01*
X11155357Y-11929214D02*
X11164881Y-11891119D01*
X11164881Y-11891119D02*
X11174405Y-11872071D01*
X11174405Y-11872071D02*
X11183929Y-11862548D01*
X11183929Y-11862548D02*
X11202976Y-11853024D01*
X11355357Y-12033976D02*
X11364881Y-12043500D01*
X11364881Y-12043500D02*
X11355357Y-12053024D01*
X11355357Y-12053024D02*
X11345833Y-12043500D01*
X11345833Y-12043500D02*
X11355357Y-12033976D01*
X11355357Y-12033976D02*
X11355357Y-12053024D01*
X11488691Y-11853024D02*
X11507738Y-11853024D01*
X11507738Y-11853024D02*
X11526786Y-11862548D01*
X11526786Y-11862548D02*
X11536310Y-11872071D01*
X11536310Y-11872071D02*
X11545833Y-11891119D01*
X11545833Y-11891119D02*
X11555357Y-11929214D01*
X11555357Y-11929214D02*
X11555357Y-11976833D01*
X11555357Y-11976833D02*
X11545833Y-12014928D01*
X11545833Y-12014928D02*
X11536310Y-12033976D01*
X11536310Y-12033976D02*
X11526786Y-12043500D01*
X11526786Y-12043500D02*
X11507738Y-12053024D01*
X11507738Y-12053024D02*
X11488691Y-12053024D01*
X11488691Y-12053024D02*
X11469643Y-12043500D01*
X11469643Y-12043500D02*
X11460119Y-12033976D01*
X11460119Y-12033976D02*
X11450595Y-12014928D01*
X11450595Y-12014928D02*
X11441072Y-11976833D01*
X11441072Y-11976833D02*
X11441072Y-11929214D01*
X11441072Y-11929214D02*
X11450595Y-11891119D01*
X11450595Y-11891119D02*
X11460119Y-11872071D01*
X11460119Y-11872071D02*
X11469643Y-11862548D01*
X11469643Y-11862548D02*
X11488691Y-11853024D01*
X11631548Y-11872071D02*
X11641072Y-11862548D01*
X11641072Y-11862548D02*
X11660119Y-11853024D01*
X11660119Y-11853024D02*
X11707738Y-11853024D01*
X11707738Y-11853024D02*
X11726786Y-11862548D01*
X11726786Y-11862548D02*
X11736310Y-11872071D01*
X11736310Y-11872071D02*
X11745833Y-11891119D01*
X11745833Y-11891119D02*
X11745833Y-11910167D01*
X11745833Y-11910167D02*
X11736310Y-11938738D01*
X11736310Y-11938738D02*
X11622024Y-12053024D01*
X11622024Y-12053024D02*
X11745833Y-12053024D01*
X11812500Y-11853024D02*
X11945833Y-11853024D01*
X11945833Y-11853024D02*
X11860119Y-12053024D01*
X12107738Y-11853024D02*
X12069643Y-11853024D01*
X12069643Y-11853024D02*
X12050595Y-11862548D01*
X12050595Y-11862548D02*
X12041072Y-11872071D01*
X12041072Y-11872071D02*
X12022024Y-11900643D01*
X12022024Y-11900643D02*
X12012500Y-11938738D01*
X12012500Y-11938738D02*
X12012500Y-12014928D01*
X12012500Y-12014928D02*
X12022024Y-12033976D01*
X12022024Y-12033976D02*
X12031548Y-12043500D01*
X12031548Y-12043500D02*
X12050595Y-12053024D01*
X12050595Y-12053024D02*
X12088691Y-12053024D01*
X12088691Y-12053024D02*
X12107738Y-12043500D01*
X12107738Y-12043500D02*
X12117262Y-12033976D01*
X12117262Y-12033976D02*
X12126786Y-12014928D01*
X12126786Y-12014928D02*
X12126786Y-11967309D01*
X12126786Y-11967309D02*
X12117262Y-11948262D01*
X12117262Y-11948262D02*
X12107738Y-11938738D01*
X12107738Y-11938738D02*
X12088691Y-11929214D01*
X12088691Y-11929214D02*
X12050595Y-11929214D01*
X12050595Y-11929214D02*
X12031548Y-11938738D01*
X12031548Y-11938738D02*
X12022024Y-11948262D01*
X12022024Y-11948262D02*
X12012500Y-11967309D01*
X12202976Y-11853024D02*
X12202976Y-11891119D01*
X12279167Y-11853024D02*
X12279167Y-11891119D01*
X12574405Y-12129214D02*
X12564881Y-12119690D01*
X12564881Y-12119690D02*
X12545834Y-12091119D01*
X12545834Y-12091119D02*
X12536310Y-12072071D01*
X12536310Y-12072071D02*
X12526786Y-12043500D01*
X12526786Y-12043500D02*
X12517262Y-11995881D01*
X12517262Y-11995881D02*
X12517262Y-11957786D01*
X12517262Y-11957786D02*
X12526786Y-11910167D01*
X12526786Y-11910167D02*
X12536310Y-11881595D01*
X12536310Y-11881595D02*
X12545834Y-11862548D01*
X12545834Y-11862548D02*
X12564881Y-11833976D01*
X12564881Y-11833976D02*
X12574405Y-11824452D01*
X12755357Y-12053024D02*
X12641072Y-12053024D01*
X12698214Y-12053024D02*
X12698214Y-11853024D01*
X12698214Y-11853024D02*
X12679167Y-11881595D01*
X12679167Y-11881595D02*
X12660119Y-11900643D01*
X12660119Y-11900643D02*
X12641072Y-11910167D01*
X12869643Y-11938738D02*
X12850595Y-11929214D01*
X12850595Y-11929214D02*
X12841072Y-11919690D01*
X12841072Y-11919690D02*
X12831548Y-11900643D01*
X12831548Y-11900643D02*
X12831548Y-11891119D01*
X12831548Y-11891119D02*
X12841072Y-11872071D01*
X12841072Y-11872071D02*
X12850595Y-11862548D01*
X12850595Y-11862548D02*
X12869643Y-11853024D01*
X12869643Y-11853024D02*
X12907738Y-11853024D01*
X12907738Y-11853024D02*
X12926786Y-11862548D01*
X12926786Y-11862548D02*
X12936310Y-11872071D01*
X12936310Y-11872071D02*
X12945834Y-11891119D01*
X12945834Y-11891119D02*
X12945834Y-11900643D01*
X12945834Y-11900643D02*
X12936310Y-11919690D01*
X12936310Y-11919690D02*
X12926786Y-11929214D01*
X12926786Y-11929214D02*
X12907738Y-11938738D01*
X12907738Y-11938738D02*
X12869643Y-11938738D01*
X12869643Y-11938738D02*
X12850595Y-11948262D01*
X12850595Y-11948262D02*
X12841072Y-11957786D01*
X12841072Y-11957786D02*
X12831548Y-11976833D01*
X12831548Y-11976833D02*
X12831548Y-12014928D01*
X12831548Y-12014928D02*
X12841072Y-12033976D01*
X12841072Y-12033976D02*
X12850595Y-12043500D01*
X12850595Y-12043500D02*
X12869643Y-12053024D01*
X12869643Y-12053024D02*
X12907738Y-12053024D01*
X12907738Y-12053024D02*
X12926786Y-12043500D01*
X12926786Y-12043500D02*
X12936310Y-12033976D01*
X12936310Y-12033976D02*
X12945834Y-12014928D01*
X12945834Y-12014928D02*
X12945834Y-11976833D01*
X12945834Y-11976833D02*
X12936310Y-11957786D01*
X12936310Y-11957786D02*
X12926786Y-11948262D01*
X12926786Y-11948262D02*
X12907738Y-11938738D01*
X13183929Y-12053024D02*
X13183929Y-11853024D01*
X13269643Y-12053024D02*
X13269643Y-11948262D01*
X13269643Y-11948262D02*
X13260119Y-11929214D01*
X13260119Y-11929214D02*
X13241072Y-11919690D01*
X13241072Y-11919690D02*
X13212500Y-11919690D01*
X13212500Y-11919690D02*
X13193453Y-11929214D01*
X13193453Y-11929214D02*
X13183929Y-11938738D01*
X13393453Y-12053024D02*
X13374405Y-12043500D01*
X13374405Y-12043500D02*
X13364881Y-12033976D01*
X13364881Y-12033976D02*
X13355357Y-12014928D01*
X13355357Y-12014928D02*
X13355357Y-11957786D01*
X13355357Y-11957786D02*
X13364881Y-11938738D01*
X13364881Y-11938738D02*
X13374405Y-11929214D01*
X13374405Y-11929214D02*
X13393453Y-11919690D01*
X13393453Y-11919690D02*
X13422024Y-11919690D01*
X13422024Y-11919690D02*
X13441072Y-11929214D01*
X13441072Y-11929214D02*
X13450596Y-11938738D01*
X13450596Y-11938738D02*
X13460119Y-11957786D01*
X13460119Y-11957786D02*
X13460119Y-12014928D01*
X13460119Y-12014928D02*
X13450596Y-12033976D01*
X13450596Y-12033976D02*
X13441072Y-12043500D01*
X13441072Y-12043500D02*
X13422024Y-12053024D01*
X13422024Y-12053024D02*
X13393453Y-12053024D01*
X13574405Y-12053024D02*
X13555357Y-12043500D01*
X13555357Y-12043500D02*
X13545834Y-12024452D01*
X13545834Y-12024452D02*
X13545834Y-11853024D01*
X13726786Y-12043500D02*
X13707738Y-12053024D01*
X13707738Y-12053024D02*
X13669643Y-12053024D01*
X13669643Y-12053024D02*
X13650596Y-12043500D01*
X13650596Y-12043500D02*
X13641072Y-12024452D01*
X13641072Y-12024452D02*
X13641072Y-11948262D01*
X13641072Y-11948262D02*
X13650596Y-11929214D01*
X13650596Y-11929214D02*
X13669643Y-11919690D01*
X13669643Y-11919690D02*
X13707738Y-11919690D01*
X13707738Y-11919690D02*
X13726786Y-11929214D01*
X13726786Y-11929214D02*
X13736310Y-11948262D01*
X13736310Y-11948262D02*
X13736310Y-11967309D01*
X13736310Y-11967309D02*
X13641072Y-11986357D01*
X13812500Y-12043500D02*
X13831548Y-12053024D01*
X13831548Y-12053024D02*
X13869643Y-12053024D01*
X13869643Y-12053024D02*
X13888691Y-12043500D01*
X13888691Y-12043500D02*
X13898215Y-12024452D01*
X13898215Y-12024452D02*
X13898215Y-12014928D01*
X13898215Y-12014928D02*
X13888691Y-11995881D01*
X13888691Y-11995881D02*
X13869643Y-11986357D01*
X13869643Y-11986357D02*
X13841072Y-11986357D01*
X13841072Y-11986357D02*
X13822024Y-11976833D01*
X13822024Y-11976833D02*
X13812500Y-11957786D01*
X13812500Y-11957786D02*
X13812500Y-11948262D01*
X13812500Y-11948262D02*
X13822024Y-11929214D01*
X13822024Y-11929214D02*
X13841072Y-11919690D01*
X13841072Y-11919690D02*
X13869643Y-11919690D01*
X13869643Y-11919690D02*
X13888691Y-11929214D01*
X13964881Y-12129214D02*
X13974405Y-12119690D01*
X13974405Y-12119690D02*
X13993453Y-12091119D01*
X13993453Y-12091119D02*
X14002977Y-12072071D01*
X14002977Y-12072071D02*
X14012500Y-12043500D01*
X14012500Y-12043500D02*
X14022024Y-11995881D01*
X14022024Y-11995881D02*
X14022024Y-11957786D01*
X14022024Y-11957786D02*
X14012500Y-11910167D01*
X14012500Y-11910167D02*
X14002977Y-11881595D01*
X14002977Y-11881595D02*
X13993453Y-11862548D01*
X13993453Y-11862548D02*
X13974405Y-11833976D01*
X13974405Y-11833976D02*
X13964881Y-11824452D01*
D14*
X8962500Y-12174500D02*
X8962500Y-12274500D01*
X8912500Y-12224500D02*
X9012500Y-12224500D01*
D11*
X9364881Y-12317024D02*
X9250595Y-12317024D01*
X9307738Y-12317024D02*
X9307738Y-12117024D01*
X9307738Y-12117024D02*
X9288690Y-12145595D01*
X9288690Y-12145595D02*
X9269643Y-12164643D01*
X9269643Y-12164643D02*
X9250595Y-12174167D01*
X9450595Y-12297976D02*
X9460119Y-12307500D01*
X9460119Y-12307500D02*
X9450595Y-12317024D01*
X9450595Y-12317024D02*
X9441071Y-12307500D01*
X9441071Y-12307500D02*
X9450595Y-12297976D01*
X9450595Y-12297976D02*
X9450595Y-12317024D01*
X9583929Y-12117024D02*
X9602976Y-12117024D01*
X9602976Y-12117024D02*
X9622024Y-12126548D01*
X9622024Y-12126548D02*
X9631548Y-12136071D01*
X9631548Y-12136071D02*
X9641071Y-12155119D01*
X9641071Y-12155119D02*
X9650595Y-12193214D01*
X9650595Y-12193214D02*
X9650595Y-12240833D01*
X9650595Y-12240833D02*
X9641071Y-12278928D01*
X9641071Y-12278928D02*
X9631548Y-12297976D01*
X9631548Y-12297976D02*
X9622024Y-12307500D01*
X9622024Y-12307500D02*
X9602976Y-12317024D01*
X9602976Y-12317024D02*
X9583929Y-12317024D01*
X9583929Y-12317024D02*
X9564881Y-12307500D01*
X9564881Y-12307500D02*
X9555357Y-12297976D01*
X9555357Y-12297976D02*
X9545833Y-12278928D01*
X9545833Y-12278928D02*
X9536310Y-12240833D01*
X9536310Y-12240833D02*
X9536310Y-12193214D01*
X9536310Y-12193214D02*
X9545833Y-12155119D01*
X9545833Y-12155119D02*
X9555357Y-12136071D01*
X9555357Y-12136071D02*
X9564881Y-12126548D01*
X9564881Y-12126548D02*
X9583929Y-12117024D01*
X9774405Y-12117024D02*
X9793452Y-12117024D01*
X9793452Y-12117024D02*
X9812500Y-12126548D01*
X9812500Y-12126548D02*
X9822024Y-12136071D01*
X9822024Y-12136071D02*
X9831548Y-12155119D01*
X9831548Y-12155119D02*
X9841071Y-12193214D01*
X9841071Y-12193214D02*
X9841071Y-12240833D01*
X9841071Y-12240833D02*
X9831548Y-12278928D01*
X9831548Y-12278928D02*
X9822024Y-12297976D01*
X9822024Y-12297976D02*
X9812500Y-12307500D01*
X9812500Y-12307500D02*
X9793452Y-12317024D01*
X9793452Y-12317024D02*
X9774405Y-12317024D01*
X9774405Y-12317024D02*
X9755357Y-12307500D01*
X9755357Y-12307500D02*
X9745833Y-12297976D01*
X9745833Y-12297976D02*
X9736310Y-12278928D01*
X9736310Y-12278928D02*
X9726786Y-12240833D01*
X9726786Y-12240833D02*
X9726786Y-12193214D01*
X9726786Y-12193214D02*
X9736310Y-12155119D01*
X9736310Y-12155119D02*
X9745833Y-12136071D01*
X9745833Y-12136071D02*
X9755357Y-12126548D01*
X9755357Y-12126548D02*
X9774405Y-12117024D01*
X9964881Y-12117024D02*
X9983929Y-12117024D01*
X9983929Y-12117024D02*
X10002976Y-12126548D01*
X10002976Y-12126548D02*
X10012500Y-12136071D01*
X10012500Y-12136071D02*
X10022024Y-12155119D01*
X10022024Y-12155119D02*
X10031548Y-12193214D01*
X10031548Y-12193214D02*
X10031548Y-12240833D01*
X10031548Y-12240833D02*
X10022024Y-12278928D01*
X10022024Y-12278928D02*
X10012500Y-12297976D01*
X10012500Y-12297976D02*
X10002976Y-12307500D01*
X10002976Y-12307500D02*
X9983929Y-12317024D01*
X9983929Y-12317024D02*
X9964881Y-12317024D01*
X9964881Y-12317024D02*
X9945833Y-12307500D01*
X9945833Y-12307500D02*
X9936310Y-12297976D01*
X9936310Y-12297976D02*
X9926786Y-12278928D01*
X9926786Y-12278928D02*
X9917262Y-12240833D01*
X9917262Y-12240833D02*
X9917262Y-12193214D01*
X9917262Y-12193214D02*
X9926786Y-12155119D01*
X9926786Y-12155119D02*
X9936310Y-12136071D01*
X9936310Y-12136071D02*
X9945833Y-12126548D01*
X9945833Y-12126548D02*
X9964881Y-12117024D01*
X10117262Y-12317024D02*
X10117262Y-12183690D01*
X10117262Y-12202738D02*
X10126786Y-12193214D01*
X10126786Y-12193214D02*
X10145833Y-12183690D01*
X10145833Y-12183690D02*
X10174405Y-12183690D01*
X10174405Y-12183690D02*
X10193452Y-12193214D01*
X10193452Y-12193214D02*
X10202976Y-12212262D01*
X10202976Y-12212262D02*
X10202976Y-12317024D01*
X10202976Y-12212262D02*
X10212500Y-12193214D01*
X10212500Y-12193214D02*
X10231548Y-12183690D01*
X10231548Y-12183690D02*
X10260119Y-12183690D01*
X10260119Y-12183690D02*
X10279167Y-12193214D01*
X10279167Y-12193214D02*
X10288691Y-12212262D01*
X10288691Y-12212262D02*
X10288691Y-12317024D01*
X10383929Y-12317024D02*
X10383929Y-12183690D01*
X10383929Y-12202738D02*
X10393452Y-12193214D01*
X10393452Y-12193214D02*
X10412500Y-12183690D01*
X10412500Y-12183690D02*
X10441072Y-12183690D01*
X10441072Y-12183690D02*
X10460119Y-12193214D01*
X10460119Y-12193214D02*
X10469643Y-12212262D01*
X10469643Y-12212262D02*
X10469643Y-12317024D01*
X10469643Y-12212262D02*
X10479167Y-12193214D01*
X10479167Y-12193214D02*
X10498214Y-12183690D01*
X10498214Y-12183690D02*
X10526786Y-12183690D01*
X10526786Y-12183690D02*
X10545833Y-12193214D01*
X10545833Y-12193214D02*
X10555357Y-12212262D01*
X10555357Y-12212262D02*
X10555357Y-12317024D01*
X10945833Y-12107500D02*
X10774405Y-12364643D01*
X11202976Y-12117024D02*
X11222024Y-12117024D01*
X11222024Y-12117024D02*
X11241072Y-12126548D01*
X11241072Y-12126548D02*
X11250595Y-12136071D01*
X11250595Y-12136071D02*
X11260119Y-12155119D01*
X11260119Y-12155119D02*
X11269643Y-12193214D01*
X11269643Y-12193214D02*
X11269643Y-12240833D01*
X11269643Y-12240833D02*
X11260119Y-12278928D01*
X11260119Y-12278928D02*
X11250595Y-12297976D01*
X11250595Y-12297976D02*
X11241072Y-12307500D01*
X11241072Y-12307500D02*
X11222024Y-12317024D01*
X11222024Y-12317024D02*
X11202976Y-12317024D01*
X11202976Y-12317024D02*
X11183929Y-12307500D01*
X11183929Y-12307500D02*
X11174405Y-12297976D01*
X11174405Y-12297976D02*
X11164881Y-12278928D01*
X11164881Y-12278928D02*
X11155357Y-12240833D01*
X11155357Y-12240833D02*
X11155357Y-12193214D01*
X11155357Y-12193214D02*
X11164881Y-12155119D01*
X11164881Y-12155119D02*
X11174405Y-12136071D01*
X11174405Y-12136071D02*
X11183929Y-12126548D01*
X11183929Y-12126548D02*
X11202976Y-12117024D01*
X11355357Y-12297976D02*
X11364881Y-12307500D01*
X11364881Y-12307500D02*
X11355357Y-12317024D01*
X11355357Y-12317024D02*
X11345833Y-12307500D01*
X11345833Y-12307500D02*
X11355357Y-12297976D01*
X11355357Y-12297976D02*
X11355357Y-12317024D01*
X11488691Y-12117024D02*
X11507738Y-12117024D01*
X11507738Y-12117024D02*
X11526786Y-12126548D01*
X11526786Y-12126548D02*
X11536310Y-12136071D01*
X11536310Y-12136071D02*
X11545833Y-12155119D01*
X11545833Y-12155119D02*
X11555357Y-12193214D01*
X11555357Y-12193214D02*
X11555357Y-12240833D01*
X11555357Y-12240833D02*
X11545833Y-12278928D01*
X11545833Y-12278928D02*
X11536310Y-12297976D01*
X11536310Y-12297976D02*
X11526786Y-12307500D01*
X11526786Y-12307500D02*
X11507738Y-12317024D01*
X11507738Y-12317024D02*
X11488691Y-12317024D01*
X11488691Y-12317024D02*
X11469643Y-12307500D01*
X11469643Y-12307500D02*
X11460119Y-12297976D01*
X11460119Y-12297976D02*
X11450595Y-12278928D01*
X11450595Y-12278928D02*
X11441072Y-12240833D01*
X11441072Y-12240833D02*
X11441072Y-12193214D01*
X11441072Y-12193214D02*
X11450595Y-12155119D01*
X11450595Y-12155119D02*
X11460119Y-12136071D01*
X11460119Y-12136071D02*
X11469643Y-12126548D01*
X11469643Y-12126548D02*
X11488691Y-12117024D01*
X11622024Y-12117024D02*
X11745833Y-12117024D01*
X11745833Y-12117024D02*
X11679167Y-12193214D01*
X11679167Y-12193214D02*
X11707738Y-12193214D01*
X11707738Y-12193214D02*
X11726786Y-12202738D01*
X11726786Y-12202738D02*
X11736310Y-12212262D01*
X11736310Y-12212262D02*
X11745833Y-12231309D01*
X11745833Y-12231309D02*
X11745833Y-12278928D01*
X11745833Y-12278928D02*
X11736310Y-12297976D01*
X11736310Y-12297976D02*
X11726786Y-12307500D01*
X11726786Y-12307500D02*
X11707738Y-12317024D01*
X11707738Y-12317024D02*
X11650595Y-12317024D01*
X11650595Y-12317024D02*
X11631548Y-12307500D01*
X11631548Y-12307500D02*
X11622024Y-12297976D01*
X11841072Y-12317024D02*
X11879167Y-12317024D01*
X11879167Y-12317024D02*
X11898214Y-12307500D01*
X11898214Y-12307500D02*
X11907738Y-12297976D01*
X11907738Y-12297976D02*
X11926786Y-12269405D01*
X11926786Y-12269405D02*
X11936310Y-12231309D01*
X11936310Y-12231309D02*
X11936310Y-12155119D01*
X11936310Y-12155119D02*
X11926786Y-12136071D01*
X11926786Y-12136071D02*
X11917262Y-12126548D01*
X11917262Y-12126548D02*
X11898214Y-12117024D01*
X11898214Y-12117024D02*
X11860119Y-12117024D01*
X11860119Y-12117024D02*
X11841072Y-12126548D01*
X11841072Y-12126548D02*
X11831548Y-12136071D01*
X11831548Y-12136071D02*
X11822024Y-12155119D01*
X11822024Y-12155119D02*
X11822024Y-12202738D01*
X11822024Y-12202738D02*
X11831548Y-12221786D01*
X11831548Y-12221786D02*
X11841072Y-12231309D01*
X11841072Y-12231309D02*
X11860119Y-12240833D01*
X11860119Y-12240833D02*
X11898214Y-12240833D01*
X11898214Y-12240833D02*
X11917262Y-12231309D01*
X11917262Y-12231309D02*
X11926786Y-12221786D01*
X11926786Y-12221786D02*
X11936310Y-12202738D01*
X12107738Y-12183690D02*
X12107738Y-12317024D01*
X12060119Y-12107500D02*
X12012500Y-12250357D01*
X12012500Y-12250357D02*
X12136310Y-12250357D01*
X12202976Y-12117024D02*
X12202976Y-12155119D01*
X12279167Y-12117024D02*
X12279167Y-12155119D01*
X12574405Y-12393214D02*
X12564881Y-12383690D01*
X12564881Y-12383690D02*
X12545834Y-12355119D01*
X12545834Y-12355119D02*
X12536310Y-12336071D01*
X12536310Y-12336071D02*
X12526786Y-12307500D01*
X12526786Y-12307500D02*
X12517262Y-12259881D01*
X12517262Y-12259881D02*
X12517262Y-12221786D01*
X12517262Y-12221786D02*
X12526786Y-12174167D01*
X12526786Y-12174167D02*
X12536310Y-12145595D01*
X12536310Y-12145595D02*
X12545834Y-12126548D01*
X12545834Y-12126548D02*
X12564881Y-12097976D01*
X12564881Y-12097976D02*
X12574405Y-12088452D01*
X12755357Y-12317024D02*
X12641072Y-12317024D01*
X12698214Y-12317024D02*
X12698214Y-12117024D01*
X12698214Y-12117024D02*
X12679167Y-12145595D01*
X12679167Y-12145595D02*
X12660119Y-12164643D01*
X12660119Y-12164643D02*
X12641072Y-12174167D01*
X12822024Y-12117024D02*
X12945834Y-12117024D01*
X12945834Y-12117024D02*
X12879167Y-12193214D01*
X12879167Y-12193214D02*
X12907738Y-12193214D01*
X12907738Y-12193214D02*
X12926786Y-12202738D01*
X12926786Y-12202738D02*
X12936310Y-12212262D01*
X12936310Y-12212262D02*
X12945834Y-12231309D01*
X12945834Y-12231309D02*
X12945834Y-12278928D01*
X12945834Y-12278928D02*
X12936310Y-12297976D01*
X12936310Y-12297976D02*
X12926786Y-12307500D01*
X12926786Y-12307500D02*
X12907738Y-12317024D01*
X12907738Y-12317024D02*
X12850595Y-12317024D01*
X12850595Y-12317024D02*
X12831548Y-12307500D01*
X12831548Y-12307500D02*
X12822024Y-12297976D01*
X13022024Y-12136071D02*
X13031548Y-12126548D01*
X13031548Y-12126548D02*
X13050595Y-12117024D01*
X13050595Y-12117024D02*
X13098215Y-12117024D01*
X13098215Y-12117024D02*
X13117262Y-12126548D01*
X13117262Y-12126548D02*
X13126786Y-12136071D01*
X13126786Y-12136071D02*
X13136310Y-12155119D01*
X13136310Y-12155119D02*
X13136310Y-12174167D01*
X13136310Y-12174167D02*
X13126786Y-12202738D01*
X13126786Y-12202738D02*
X13012500Y-12317024D01*
X13012500Y-12317024D02*
X13136310Y-12317024D01*
X13374405Y-12317024D02*
X13374405Y-12117024D01*
X13460119Y-12317024D02*
X13460119Y-12212262D01*
X13460119Y-12212262D02*
X13450596Y-12193214D01*
X13450596Y-12193214D02*
X13431548Y-12183690D01*
X13431548Y-12183690D02*
X13402976Y-12183690D01*
X13402976Y-12183690D02*
X13383929Y-12193214D01*
X13383929Y-12193214D02*
X13374405Y-12202738D01*
X13583929Y-12317024D02*
X13564881Y-12307500D01*
X13564881Y-12307500D02*
X13555357Y-12297976D01*
X13555357Y-12297976D02*
X13545834Y-12278928D01*
X13545834Y-12278928D02*
X13545834Y-12221786D01*
X13545834Y-12221786D02*
X13555357Y-12202738D01*
X13555357Y-12202738D02*
X13564881Y-12193214D01*
X13564881Y-12193214D02*
X13583929Y-12183690D01*
X13583929Y-12183690D02*
X13612500Y-12183690D01*
X13612500Y-12183690D02*
X13631548Y-12193214D01*
X13631548Y-12193214D02*
X13641072Y-12202738D01*
X13641072Y-12202738D02*
X13650596Y-12221786D01*
X13650596Y-12221786D02*
X13650596Y-12278928D01*
X13650596Y-12278928D02*
X13641072Y-12297976D01*
X13641072Y-12297976D02*
X13631548Y-12307500D01*
X13631548Y-12307500D02*
X13612500Y-12317024D01*
X13612500Y-12317024D02*
X13583929Y-12317024D01*
X13764881Y-12317024D02*
X13745834Y-12307500D01*
X13745834Y-12307500D02*
X13736310Y-12288452D01*
X13736310Y-12288452D02*
X13736310Y-12117024D01*
X13917262Y-12307500D02*
X13898215Y-12317024D01*
X13898215Y-12317024D02*
X13860119Y-12317024D01*
X13860119Y-12317024D02*
X13841072Y-12307500D01*
X13841072Y-12307500D02*
X13831548Y-12288452D01*
X13831548Y-12288452D02*
X13831548Y-12212262D01*
X13831548Y-12212262D02*
X13841072Y-12193214D01*
X13841072Y-12193214D02*
X13860119Y-12183690D01*
X13860119Y-12183690D02*
X13898215Y-12183690D01*
X13898215Y-12183690D02*
X13917262Y-12193214D01*
X13917262Y-12193214D02*
X13926786Y-12212262D01*
X13926786Y-12212262D02*
X13926786Y-12231309D01*
X13926786Y-12231309D02*
X13831548Y-12250357D01*
X14002977Y-12307500D02*
X14022024Y-12317024D01*
X14022024Y-12317024D02*
X14060119Y-12317024D01*
X14060119Y-12317024D02*
X14079167Y-12307500D01*
X14079167Y-12307500D02*
X14088691Y-12288452D01*
X14088691Y-12288452D02*
X14088691Y-12278928D01*
X14088691Y-12278928D02*
X14079167Y-12259881D01*
X14079167Y-12259881D02*
X14060119Y-12250357D01*
X14060119Y-12250357D02*
X14031548Y-12250357D01*
X14031548Y-12250357D02*
X14012500Y-12240833D01*
X14012500Y-12240833D02*
X14002977Y-12221786D01*
X14002977Y-12221786D02*
X14002977Y-12212262D01*
X14002977Y-12212262D02*
X14012500Y-12193214D01*
X14012500Y-12193214D02*
X14031548Y-12183690D01*
X14031548Y-12183690D02*
X14060119Y-12183690D01*
X14060119Y-12183690D02*
X14079167Y-12193214D01*
X14155358Y-12393214D02*
X14164881Y-12383690D01*
X14164881Y-12383690D02*
X14183929Y-12355119D01*
X14183929Y-12355119D02*
X14193453Y-12336071D01*
X14193453Y-12336071D02*
X14202977Y-12307500D01*
X14202977Y-12307500D02*
X14212500Y-12259881D01*
X14212500Y-12259881D02*
X14212500Y-12221786D01*
X14212500Y-12221786D02*
X14202977Y-12174167D01*
X14202977Y-12174167D02*
X14193453Y-12145595D01*
X14193453Y-12145595D02*
X14183929Y-12126548D01*
X14183929Y-12126548D02*
X14164881Y-12097976D01*
X14164881Y-12097976D02*
X14155358Y-12088452D01*
D15*
X8997563Y-12524563D02*
X8997563Y-12452437D01*
X8925437Y-12452437D01*
X8925437Y-12524563D01*
X8997563Y-12524563D01*
D11*
X9364881Y-12581024D02*
X9250595Y-12581024D01*
X9307738Y-12581024D02*
X9307738Y-12381024D01*
X9307738Y-12381024D02*
X9288690Y-12409595D01*
X9288690Y-12409595D02*
X9269643Y-12428643D01*
X9269643Y-12428643D02*
X9250595Y-12438167D01*
X9450595Y-12561976D02*
X9460119Y-12571500D01*
X9460119Y-12571500D02*
X9450595Y-12581024D01*
X9450595Y-12581024D02*
X9441071Y-12571500D01*
X9441071Y-12571500D02*
X9450595Y-12561976D01*
X9450595Y-12561976D02*
X9450595Y-12581024D01*
X9583929Y-12381024D02*
X9602976Y-12381024D01*
X9602976Y-12381024D02*
X9622024Y-12390548D01*
X9622024Y-12390548D02*
X9631548Y-12400071D01*
X9631548Y-12400071D02*
X9641071Y-12419119D01*
X9641071Y-12419119D02*
X9650595Y-12457214D01*
X9650595Y-12457214D02*
X9650595Y-12504833D01*
X9650595Y-12504833D02*
X9641071Y-12542928D01*
X9641071Y-12542928D02*
X9631548Y-12561976D01*
X9631548Y-12561976D02*
X9622024Y-12571500D01*
X9622024Y-12571500D02*
X9602976Y-12581024D01*
X9602976Y-12581024D02*
X9583929Y-12581024D01*
X9583929Y-12581024D02*
X9564881Y-12571500D01*
X9564881Y-12571500D02*
X9555357Y-12561976D01*
X9555357Y-12561976D02*
X9545833Y-12542928D01*
X9545833Y-12542928D02*
X9536310Y-12504833D01*
X9536310Y-12504833D02*
X9536310Y-12457214D01*
X9536310Y-12457214D02*
X9545833Y-12419119D01*
X9545833Y-12419119D02*
X9555357Y-12400071D01*
X9555357Y-12400071D02*
X9564881Y-12390548D01*
X9564881Y-12390548D02*
X9583929Y-12381024D01*
X9726786Y-12400071D02*
X9736310Y-12390548D01*
X9736310Y-12390548D02*
X9755357Y-12381024D01*
X9755357Y-12381024D02*
X9802976Y-12381024D01*
X9802976Y-12381024D02*
X9822024Y-12390548D01*
X9822024Y-12390548D02*
X9831548Y-12400071D01*
X9831548Y-12400071D02*
X9841071Y-12419119D01*
X9841071Y-12419119D02*
X9841071Y-12438167D01*
X9841071Y-12438167D02*
X9831548Y-12466738D01*
X9831548Y-12466738D02*
X9717262Y-12581024D01*
X9717262Y-12581024D02*
X9841071Y-12581024D01*
X9964881Y-12381024D02*
X9983929Y-12381024D01*
X9983929Y-12381024D02*
X10002976Y-12390548D01*
X10002976Y-12390548D02*
X10012500Y-12400071D01*
X10012500Y-12400071D02*
X10022024Y-12419119D01*
X10022024Y-12419119D02*
X10031548Y-12457214D01*
X10031548Y-12457214D02*
X10031548Y-12504833D01*
X10031548Y-12504833D02*
X10022024Y-12542928D01*
X10022024Y-12542928D02*
X10012500Y-12561976D01*
X10012500Y-12561976D02*
X10002976Y-12571500D01*
X10002976Y-12571500D02*
X9983929Y-12581024D01*
X9983929Y-12581024D02*
X9964881Y-12581024D01*
X9964881Y-12581024D02*
X9945833Y-12571500D01*
X9945833Y-12571500D02*
X9936310Y-12561976D01*
X9936310Y-12561976D02*
X9926786Y-12542928D01*
X9926786Y-12542928D02*
X9917262Y-12504833D01*
X9917262Y-12504833D02*
X9917262Y-12457214D01*
X9917262Y-12457214D02*
X9926786Y-12419119D01*
X9926786Y-12419119D02*
X9936310Y-12400071D01*
X9936310Y-12400071D02*
X9945833Y-12390548D01*
X9945833Y-12390548D02*
X9964881Y-12381024D01*
X10117262Y-12581024D02*
X10117262Y-12447690D01*
X10117262Y-12466738D02*
X10126786Y-12457214D01*
X10126786Y-12457214D02*
X10145833Y-12447690D01*
X10145833Y-12447690D02*
X10174405Y-12447690D01*
X10174405Y-12447690D02*
X10193452Y-12457214D01*
X10193452Y-12457214D02*
X10202976Y-12476262D01*
X10202976Y-12476262D02*
X10202976Y-12581024D01*
X10202976Y-12476262D02*
X10212500Y-12457214D01*
X10212500Y-12457214D02*
X10231548Y-12447690D01*
X10231548Y-12447690D02*
X10260119Y-12447690D01*
X10260119Y-12447690D02*
X10279167Y-12457214D01*
X10279167Y-12457214D02*
X10288691Y-12476262D01*
X10288691Y-12476262D02*
X10288691Y-12581024D01*
X10383929Y-12581024D02*
X10383929Y-12447690D01*
X10383929Y-12466738D02*
X10393452Y-12457214D01*
X10393452Y-12457214D02*
X10412500Y-12447690D01*
X10412500Y-12447690D02*
X10441072Y-12447690D01*
X10441072Y-12447690D02*
X10460119Y-12457214D01*
X10460119Y-12457214D02*
X10469643Y-12476262D01*
X10469643Y-12476262D02*
X10469643Y-12581024D01*
X10469643Y-12476262D02*
X10479167Y-12457214D01*
X10479167Y-12457214D02*
X10498214Y-12447690D01*
X10498214Y-12447690D02*
X10526786Y-12447690D01*
X10526786Y-12447690D02*
X10545833Y-12457214D01*
X10545833Y-12457214D02*
X10555357Y-12476262D01*
X10555357Y-12476262D02*
X10555357Y-12581024D01*
X10945833Y-12371500D02*
X10774405Y-12628643D01*
X11202976Y-12381024D02*
X11222024Y-12381024D01*
X11222024Y-12381024D02*
X11241072Y-12390548D01*
X11241072Y-12390548D02*
X11250595Y-12400071D01*
X11250595Y-12400071D02*
X11260119Y-12419119D01*
X11260119Y-12419119D02*
X11269643Y-12457214D01*
X11269643Y-12457214D02*
X11269643Y-12504833D01*
X11269643Y-12504833D02*
X11260119Y-12542928D01*
X11260119Y-12542928D02*
X11250595Y-12561976D01*
X11250595Y-12561976D02*
X11241072Y-12571500D01*
X11241072Y-12571500D02*
X11222024Y-12581024D01*
X11222024Y-12581024D02*
X11202976Y-12581024D01*
X11202976Y-12581024D02*
X11183929Y-12571500D01*
X11183929Y-12571500D02*
X11174405Y-12561976D01*
X11174405Y-12561976D02*
X11164881Y-12542928D01*
X11164881Y-12542928D02*
X11155357Y-12504833D01*
X11155357Y-12504833D02*
X11155357Y-12457214D01*
X11155357Y-12457214D02*
X11164881Y-12419119D01*
X11164881Y-12419119D02*
X11174405Y-12400071D01*
X11174405Y-12400071D02*
X11183929Y-12390548D01*
X11183929Y-12390548D02*
X11202976Y-12381024D01*
X11355357Y-12561976D02*
X11364881Y-12571500D01*
X11364881Y-12571500D02*
X11355357Y-12581024D01*
X11355357Y-12581024D02*
X11345833Y-12571500D01*
X11345833Y-12571500D02*
X11355357Y-12561976D01*
X11355357Y-12561976D02*
X11355357Y-12581024D01*
X11488691Y-12381024D02*
X11507738Y-12381024D01*
X11507738Y-12381024D02*
X11526786Y-12390548D01*
X11526786Y-12390548D02*
X11536310Y-12400071D01*
X11536310Y-12400071D02*
X11545833Y-12419119D01*
X11545833Y-12419119D02*
X11555357Y-12457214D01*
X11555357Y-12457214D02*
X11555357Y-12504833D01*
X11555357Y-12504833D02*
X11545833Y-12542928D01*
X11545833Y-12542928D02*
X11536310Y-12561976D01*
X11536310Y-12561976D02*
X11526786Y-12571500D01*
X11526786Y-12571500D02*
X11507738Y-12581024D01*
X11507738Y-12581024D02*
X11488691Y-12581024D01*
X11488691Y-12581024D02*
X11469643Y-12571500D01*
X11469643Y-12571500D02*
X11460119Y-12561976D01*
X11460119Y-12561976D02*
X11450595Y-12542928D01*
X11450595Y-12542928D02*
X11441072Y-12504833D01*
X11441072Y-12504833D02*
X11441072Y-12457214D01*
X11441072Y-12457214D02*
X11450595Y-12419119D01*
X11450595Y-12419119D02*
X11460119Y-12400071D01*
X11460119Y-12400071D02*
X11469643Y-12390548D01*
X11469643Y-12390548D02*
X11488691Y-12381024D01*
X11726786Y-12447690D02*
X11726786Y-12581024D01*
X11679167Y-12371500D02*
X11631548Y-12514357D01*
X11631548Y-12514357D02*
X11755357Y-12514357D01*
X11869643Y-12381024D02*
X11888691Y-12381024D01*
X11888691Y-12381024D02*
X11907738Y-12390548D01*
X11907738Y-12390548D02*
X11917262Y-12400071D01*
X11917262Y-12400071D02*
X11926786Y-12419119D01*
X11926786Y-12419119D02*
X11936310Y-12457214D01*
X11936310Y-12457214D02*
X11936310Y-12504833D01*
X11936310Y-12504833D02*
X11926786Y-12542928D01*
X11926786Y-12542928D02*
X11917262Y-12561976D01*
X11917262Y-12561976D02*
X11907738Y-12571500D01*
X11907738Y-12571500D02*
X11888691Y-12581024D01*
X11888691Y-12581024D02*
X11869643Y-12581024D01*
X11869643Y-12581024D02*
X11850595Y-12571500D01*
X11850595Y-12571500D02*
X11841072Y-12561976D01*
X11841072Y-12561976D02*
X11831548Y-12542928D01*
X11831548Y-12542928D02*
X11822024Y-12504833D01*
X11822024Y-12504833D02*
X11822024Y-12457214D01*
X11822024Y-12457214D02*
X11831548Y-12419119D01*
X11831548Y-12419119D02*
X11841072Y-12400071D01*
X11841072Y-12400071D02*
X11850595Y-12390548D01*
X11850595Y-12390548D02*
X11869643Y-12381024D01*
X12012500Y-12400071D02*
X12022024Y-12390548D01*
X12022024Y-12390548D02*
X12041072Y-12381024D01*
X12041072Y-12381024D02*
X12088691Y-12381024D01*
X12088691Y-12381024D02*
X12107738Y-12390548D01*
X12107738Y-12390548D02*
X12117262Y-12400071D01*
X12117262Y-12400071D02*
X12126786Y-12419119D01*
X12126786Y-12419119D02*
X12126786Y-12438167D01*
X12126786Y-12438167D02*
X12117262Y-12466738D01*
X12117262Y-12466738D02*
X12002976Y-12581024D01*
X12002976Y-12581024D02*
X12126786Y-12581024D01*
X12202976Y-12381024D02*
X12202976Y-12419119D01*
X12279167Y-12381024D02*
X12279167Y-12419119D01*
X12574405Y-12657214D02*
X12564881Y-12647690D01*
X12564881Y-12647690D02*
X12545834Y-12619119D01*
X12545834Y-12619119D02*
X12536310Y-12600071D01*
X12536310Y-12600071D02*
X12526786Y-12571500D01*
X12526786Y-12571500D02*
X12517262Y-12523881D01*
X12517262Y-12523881D02*
X12517262Y-12485786D01*
X12517262Y-12485786D02*
X12526786Y-12438167D01*
X12526786Y-12438167D02*
X12536310Y-12409595D01*
X12536310Y-12409595D02*
X12545834Y-12390548D01*
X12545834Y-12390548D02*
X12564881Y-12361976D01*
X12564881Y-12361976D02*
X12574405Y-12352452D01*
X12736310Y-12447690D02*
X12736310Y-12581024D01*
X12688691Y-12371500D02*
X12641072Y-12514357D01*
X12641072Y-12514357D02*
X12764881Y-12514357D01*
X12822024Y-12381024D02*
X12945834Y-12381024D01*
X12945834Y-12381024D02*
X12879167Y-12457214D01*
X12879167Y-12457214D02*
X12907738Y-12457214D01*
X12907738Y-12457214D02*
X12926786Y-12466738D01*
X12926786Y-12466738D02*
X12936310Y-12476262D01*
X12936310Y-12476262D02*
X12945834Y-12495309D01*
X12945834Y-12495309D02*
X12945834Y-12542928D01*
X12945834Y-12542928D02*
X12936310Y-12561976D01*
X12936310Y-12561976D02*
X12926786Y-12571500D01*
X12926786Y-12571500D02*
X12907738Y-12581024D01*
X12907738Y-12581024D02*
X12850595Y-12581024D01*
X12850595Y-12581024D02*
X12831548Y-12571500D01*
X12831548Y-12571500D02*
X12822024Y-12561976D01*
X13183929Y-12581024D02*
X13183929Y-12381024D01*
X13269643Y-12581024D02*
X13269643Y-12476262D01*
X13269643Y-12476262D02*
X13260119Y-12457214D01*
X13260119Y-12457214D02*
X13241072Y-12447690D01*
X13241072Y-12447690D02*
X13212500Y-12447690D01*
X13212500Y-12447690D02*
X13193453Y-12457214D01*
X13193453Y-12457214D02*
X13183929Y-12466738D01*
X13393453Y-12581024D02*
X13374405Y-12571500D01*
X13374405Y-12571500D02*
X13364881Y-12561976D01*
X13364881Y-12561976D02*
X13355357Y-12542928D01*
X13355357Y-12542928D02*
X13355357Y-12485786D01*
X13355357Y-12485786D02*
X13364881Y-12466738D01*
X13364881Y-12466738D02*
X13374405Y-12457214D01*
X13374405Y-12457214D02*
X13393453Y-12447690D01*
X13393453Y-12447690D02*
X13422024Y-12447690D01*
X13422024Y-12447690D02*
X13441072Y-12457214D01*
X13441072Y-12457214D02*
X13450596Y-12466738D01*
X13450596Y-12466738D02*
X13460119Y-12485786D01*
X13460119Y-12485786D02*
X13460119Y-12542928D01*
X13460119Y-12542928D02*
X13450596Y-12561976D01*
X13450596Y-12561976D02*
X13441072Y-12571500D01*
X13441072Y-12571500D02*
X13422024Y-12581024D01*
X13422024Y-12581024D02*
X13393453Y-12581024D01*
X13574405Y-12581024D02*
X13555357Y-12571500D01*
X13555357Y-12571500D02*
X13545834Y-12552452D01*
X13545834Y-12552452D02*
X13545834Y-12381024D01*
X13726786Y-12571500D02*
X13707738Y-12581024D01*
X13707738Y-12581024D02*
X13669643Y-12581024D01*
X13669643Y-12581024D02*
X13650596Y-12571500D01*
X13650596Y-12571500D02*
X13641072Y-12552452D01*
X13641072Y-12552452D02*
X13641072Y-12476262D01*
X13641072Y-12476262D02*
X13650596Y-12457214D01*
X13650596Y-12457214D02*
X13669643Y-12447690D01*
X13669643Y-12447690D02*
X13707738Y-12447690D01*
X13707738Y-12447690D02*
X13726786Y-12457214D01*
X13726786Y-12457214D02*
X13736310Y-12476262D01*
X13736310Y-12476262D02*
X13736310Y-12495309D01*
X13736310Y-12495309D02*
X13641072Y-12514357D01*
X13812500Y-12571500D02*
X13831548Y-12581024D01*
X13831548Y-12581024D02*
X13869643Y-12581024D01*
X13869643Y-12581024D02*
X13888691Y-12571500D01*
X13888691Y-12571500D02*
X13898215Y-12552452D01*
X13898215Y-12552452D02*
X13898215Y-12542928D01*
X13898215Y-12542928D02*
X13888691Y-12523881D01*
X13888691Y-12523881D02*
X13869643Y-12514357D01*
X13869643Y-12514357D02*
X13841072Y-12514357D01*
X13841072Y-12514357D02*
X13822024Y-12504833D01*
X13822024Y-12504833D02*
X13812500Y-12485786D01*
X13812500Y-12485786D02*
X13812500Y-12476262D01*
X13812500Y-12476262D02*
X13822024Y-12457214D01*
X13822024Y-12457214D02*
X13841072Y-12447690D01*
X13841072Y-12447690D02*
X13869643Y-12447690D01*
X13869643Y-12447690D02*
X13888691Y-12457214D01*
X13964881Y-12657214D02*
X13974405Y-12647690D01*
X13974405Y-12647690D02*
X13993453Y-12619119D01*
X13993453Y-12619119D02*
X14002977Y-12600071D01*
X14002977Y-12600071D02*
X14012500Y-12571500D01*
X14012500Y-12571500D02*
X14022024Y-12523881D01*
X14022024Y-12523881D02*
X14022024Y-12485786D01*
X14022024Y-12485786D02*
X14012500Y-12438167D01*
X14012500Y-12438167D02*
X14002977Y-12409595D01*
X14002977Y-12409595D02*
X13993453Y-12390548D01*
X13993453Y-12390548D02*
X13974405Y-12361976D01*
X13974405Y-12361976D02*
X13964881Y-12352452D01*
D16*
X8952500Y-12812500D02*
X9012500Y-12752500D01*
X8952500Y-12692500D01*
X8892500Y-12752500D01*
X8952500Y-12812500D01*
D11*
X9364881Y-12845024D02*
X9250595Y-12845024D01*
X9307738Y-12845024D02*
X9307738Y-12645024D01*
X9307738Y-12645024D02*
X9288690Y-12673595D01*
X9288690Y-12673595D02*
X9269643Y-12692643D01*
X9269643Y-12692643D02*
X9250595Y-12702167D01*
X9450595Y-12825976D02*
X9460119Y-12835500D01*
X9460119Y-12835500D02*
X9450595Y-12845024D01*
X9450595Y-12845024D02*
X9441071Y-12835500D01*
X9441071Y-12835500D02*
X9450595Y-12825976D01*
X9450595Y-12825976D02*
X9450595Y-12845024D01*
X9536310Y-12664071D02*
X9545833Y-12654548D01*
X9545833Y-12654548D02*
X9564881Y-12645024D01*
X9564881Y-12645024D02*
X9612500Y-12645024D01*
X9612500Y-12645024D02*
X9631548Y-12654548D01*
X9631548Y-12654548D02*
X9641071Y-12664071D01*
X9641071Y-12664071D02*
X9650595Y-12683119D01*
X9650595Y-12683119D02*
X9650595Y-12702167D01*
X9650595Y-12702167D02*
X9641071Y-12730738D01*
X9641071Y-12730738D02*
X9526786Y-12845024D01*
X9526786Y-12845024D02*
X9650595Y-12845024D01*
X9774405Y-12645024D02*
X9793452Y-12645024D01*
X9793452Y-12645024D02*
X9812500Y-12654548D01*
X9812500Y-12654548D02*
X9822024Y-12664071D01*
X9822024Y-12664071D02*
X9831548Y-12683119D01*
X9831548Y-12683119D02*
X9841071Y-12721214D01*
X9841071Y-12721214D02*
X9841071Y-12768833D01*
X9841071Y-12768833D02*
X9831548Y-12806928D01*
X9831548Y-12806928D02*
X9822024Y-12825976D01*
X9822024Y-12825976D02*
X9812500Y-12835500D01*
X9812500Y-12835500D02*
X9793452Y-12845024D01*
X9793452Y-12845024D02*
X9774405Y-12845024D01*
X9774405Y-12845024D02*
X9755357Y-12835500D01*
X9755357Y-12835500D02*
X9745833Y-12825976D01*
X9745833Y-12825976D02*
X9736310Y-12806928D01*
X9736310Y-12806928D02*
X9726786Y-12768833D01*
X9726786Y-12768833D02*
X9726786Y-12721214D01*
X9726786Y-12721214D02*
X9736310Y-12683119D01*
X9736310Y-12683119D02*
X9745833Y-12664071D01*
X9745833Y-12664071D02*
X9755357Y-12654548D01*
X9755357Y-12654548D02*
X9774405Y-12645024D01*
X9964881Y-12645024D02*
X9983929Y-12645024D01*
X9983929Y-12645024D02*
X10002976Y-12654548D01*
X10002976Y-12654548D02*
X10012500Y-12664071D01*
X10012500Y-12664071D02*
X10022024Y-12683119D01*
X10022024Y-12683119D02*
X10031548Y-12721214D01*
X10031548Y-12721214D02*
X10031548Y-12768833D01*
X10031548Y-12768833D02*
X10022024Y-12806928D01*
X10022024Y-12806928D02*
X10012500Y-12825976D01*
X10012500Y-12825976D02*
X10002976Y-12835500D01*
X10002976Y-12835500D02*
X9983929Y-12845024D01*
X9983929Y-12845024D02*
X9964881Y-12845024D01*
X9964881Y-12845024D02*
X9945833Y-12835500D01*
X9945833Y-12835500D02*
X9936310Y-12825976D01*
X9936310Y-12825976D02*
X9926786Y-12806928D01*
X9926786Y-12806928D02*
X9917262Y-12768833D01*
X9917262Y-12768833D02*
X9917262Y-12721214D01*
X9917262Y-12721214D02*
X9926786Y-12683119D01*
X9926786Y-12683119D02*
X9936310Y-12664071D01*
X9936310Y-12664071D02*
X9945833Y-12654548D01*
X9945833Y-12654548D02*
X9964881Y-12645024D01*
X10117262Y-12845024D02*
X10117262Y-12711690D01*
X10117262Y-12730738D02*
X10126786Y-12721214D01*
X10126786Y-12721214D02*
X10145833Y-12711690D01*
X10145833Y-12711690D02*
X10174405Y-12711690D01*
X10174405Y-12711690D02*
X10193452Y-12721214D01*
X10193452Y-12721214D02*
X10202976Y-12740262D01*
X10202976Y-12740262D02*
X10202976Y-12845024D01*
X10202976Y-12740262D02*
X10212500Y-12721214D01*
X10212500Y-12721214D02*
X10231548Y-12711690D01*
X10231548Y-12711690D02*
X10260119Y-12711690D01*
X10260119Y-12711690D02*
X10279167Y-12721214D01*
X10279167Y-12721214D02*
X10288691Y-12740262D01*
X10288691Y-12740262D02*
X10288691Y-12845024D01*
X10383929Y-12845024D02*
X10383929Y-12711690D01*
X10383929Y-12730738D02*
X10393452Y-12721214D01*
X10393452Y-12721214D02*
X10412500Y-12711690D01*
X10412500Y-12711690D02*
X10441072Y-12711690D01*
X10441072Y-12711690D02*
X10460119Y-12721214D01*
X10460119Y-12721214D02*
X10469643Y-12740262D01*
X10469643Y-12740262D02*
X10469643Y-12845024D01*
X10469643Y-12740262D02*
X10479167Y-12721214D01*
X10479167Y-12721214D02*
X10498214Y-12711690D01*
X10498214Y-12711690D02*
X10526786Y-12711690D01*
X10526786Y-12711690D02*
X10545833Y-12721214D01*
X10545833Y-12721214D02*
X10555357Y-12740262D01*
X10555357Y-12740262D02*
X10555357Y-12845024D01*
X10945833Y-12635500D02*
X10774405Y-12892643D01*
X11202976Y-12645024D02*
X11222024Y-12645024D01*
X11222024Y-12645024D02*
X11241072Y-12654548D01*
X11241072Y-12654548D02*
X11250595Y-12664071D01*
X11250595Y-12664071D02*
X11260119Y-12683119D01*
X11260119Y-12683119D02*
X11269643Y-12721214D01*
X11269643Y-12721214D02*
X11269643Y-12768833D01*
X11269643Y-12768833D02*
X11260119Y-12806928D01*
X11260119Y-12806928D02*
X11250595Y-12825976D01*
X11250595Y-12825976D02*
X11241072Y-12835500D01*
X11241072Y-12835500D02*
X11222024Y-12845024D01*
X11222024Y-12845024D02*
X11202976Y-12845024D01*
X11202976Y-12845024D02*
X11183929Y-12835500D01*
X11183929Y-12835500D02*
X11174405Y-12825976D01*
X11174405Y-12825976D02*
X11164881Y-12806928D01*
X11164881Y-12806928D02*
X11155357Y-12768833D01*
X11155357Y-12768833D02*
X11155357Y-12721214D01*
X11155357Y-12721214D02*
X11164881Y-12683119D01*
X11164881Y-12683119D02*
X11174405Y-12664071D01*
X11174405Y-12664071D02*
X11183929Y-12654548D01*
X11183929Y-12654548D02*
X11202976Y-12645024D01*
X11355357Y-12825976D02*
X11364881Y-12835500D01*
X11364881Y-12835500D02*
X11355357Y-12845024D01*
X11355357Y-12845024D02*
X11345833Y-12835500D01*
X11345833Y-12835500D02*
X11355357Y-12825976D01*
X11355357Y-12825976D02*
X11355357Y-12845024D01*
X11488691Y-12645024D02*
X11507738Y-12645024D01*
X11507738Y-12645024D02*
X11526786Y-12654548D01*
X11526786Y-12654548D02*
X11536310Y-12664071D01*
X11536310Y-12664071D02*
X11545833Y-12683119D01*
X11545833Y-12683119D02*
X11555357Y-12721214D01*
X11555357Y-12721214D02*
X11555357Y-12768833D01*
X11555357Y-12768833D02*
X11545833Y-12806928D01*
X11545833Y-12806928D02*
X11536310Y-12825976D01*
X11536310Y-12825976D02*
X11526786Y-12835500D01*
X11526786Y-12835500D02*
X11507738Y-12845024D01*
X11507738Y-12845024D02*
X11488691Y-12845024D01*
X11488691Y-12845024D02*
X11469643Y-12835500D01*
X11469643Y-12835500D02*
X11460119Y-12825976D01*
X11460119Y-12825976D02*
X11450595Y-12806928D01*
X11450595Y-12806928D02*
X11441072Y-12768833D01*
X11441072Y-12768833D02*
X11441072Y-12721214D01*
X11441072Y-12721214D02*
X11450595Y-12683119D01*
X11450595Y-12683119D02*
X11460119Y-12664071D01*
X11460119Y-12664071D02*
X11469643Y-12654548D01*
X11469643Y-12654548D02*
X11488691Y-12645024D01*
X11726786Y-12711690D02*
X11726786Y-12845024D01*
X11679167Y-12635500D02*
X11631548Y-12778357D01*
X11631548Y-12778357D02*
X11755357Y-12778357D01*
X11812500Y-12645024D02*
X11945833Y-12645024D01*
X11945833Y-12645024D02*
X11860119Y-12845024D01*
X12012500Y-12664071D02*
X12022024Y-12654548D01*
X12022024Y-12654548D02*
X12041072Y-12645024D01*
X12041072Y-12645024D02*
X12088691Y-12645024D01*
X12088691Y-12645024D02*
X12107738Y-12654548D01*
X12107738Y-12654548D02*
X12117262Y-12664071D01*
X12117262Y-12664071D02*
X12126786Y-12683119D01*
X12126786Y-12683119D02*
X12126786Y-12702167D01*
X12126786Y-12702167D02*
X12117262Y-12730738D01*
X12117262Y-12730738D02*
X12002976Y-12845024D01*
X12002976Y-12845024D02*
X12126786Y-12845024D01*
X12202976Y-12645024D02*
X12202976Y-12683119D01*
X12279167Y-12645024D02*
X12279167Y-12683119D01*
X12574405Y-12921214D02*
X12564881Y-12911690D01*
X12564881Y-12911690D02*
X12545834Y-12883119D01*
X12545834Y-12883119D02*
X12536310Y-12864071D01*
X12536310Y-12864071D02*
X12526786Y-12835500D01*
X12526786Y-12835500D02*
X12517262Y-12787881D01*
X12517262Y-12787881D02*
X12517262Y-12749786D01*
X12517262Y-12749786D02*
X12526786Y-12702167D01*
X12526786Y-12702167D02*
X12536310Y-12673595D01*
X12536310Y-12673595D02*
X12545834Y-12654548D01*
X12545834Y-12654548D02*
X12564881Y-12625976D01*
X12564881Y-12625976D02*
X12574405Y-12616452D01*
X12688691Y-12645024D02*
X12707738Y-12645024D01*
X12707738Y-12645024D02*
X12726786Y-12654548D01*
X12726786Y-12654548D02*
X12736310Y-12664071D01*
X12736310Y-12664071D02*
X12745834Y-12683119D01*
X12745834Y-12683119D02*
X12755357Y-12721214D01*
X12755357Y-12721214D02*
X12755357Y-12768833D01*
X12755357Y-12768833D02*
X12745834Y-12806928D01*
X12745834Y-12806928D02*
X12736310Y-12825976D01*
X12736310Y-12825976D02*
X12726786Y-12835500D01*
X12726786Y-12835500D02*
X12707738Y-12845024D01*
X12707738Y-12845024D02*
X12688691Y-12845024D01*
X12688691Y-12845024D02*
X12669643Y-12835500D01*
X12669643Y-12835500D02*
X12660119Y-12825976D01*
X12660119Y-12825976D02*
X12650595Y-12806928D01*
X12650595Y-12806928D02*
X12641072Y-12768833D01*
X12641072Y-12768833D02*
X12641072Y-12721214D01*
X12641072Y-12721214D02*
X12650595Y-12683119D01*
X12650595Y-12683119D02*
X12660119Y-12664071D01*
X12660119Y-12664071D02*
X12669643Y-12654548D01*
X12669643Y-12654548D02*
X12688691Y-12645024D01*
X12993453Y-12845024D02*
X12993453Y-12645024D01*
X13079167Y-12845024D02*
X13079167Y-12740262D01*
X13079167Y-12740262D02*
X13069643Y-12721214D01*
X13069643Y-12721214D02*
X13050596Y-12711690D01*
X13050596Y-12711690D02*
X13022024Y-12711690D01*
X13022024Y-12711690D02*
X13002976Y-12721214D01*
X13002976Y-12721214D02*
X12993453Y-12730738D01*
X13202976Y-12845024D02*
X13183929Y-12835500D01*
X13183929Y-12835500D02*
X13174405Y-12825976D01*
X13174405Y-12825976D02*
X13164881Y-12806928D01*
X13164881Y-12806928D02*
X13164881Y-12749786D01*
X13164881Y-12749786D02*
X13174405Y-12730738D01*
X13174405Y-12730738D02*
X13183929Y-12721214D01*
X13183929Y-12721214D02*
X13202976Y-12711690D01*
X13202976Y-12711690D02*
X13231548Y-12711690D01*
X13231548Y-12711690D02*
X13250596Y-12721214D01*
X13250596Y-12721214D02*
X13260119Y-12730738D01*
X13260119Y-12730738D02*
X13269643Y-12749786D01*
X13269643Y-12749786D02*
X13269643Y-12806928D01*
X13269643Y-12806928D02*
X13260119Y-12825976D01*
X13260119Y-12825976D02*
X13250596Y-12835500D01*
X13250596Y-12835500D02*
X13231548Y-12845024D01*
X13231548Y-12845024D02*
X13202976Y-12845024D01*
X13383929Y-12845024D02*
X13364881Y-12835500D01*
X13364881Y-12835500D02*
X13355357Y-12816452D01*
X13355357Y-12816452D02*
X13355357Y-12645024D01*
X13536310Y-12835500D02*
X13517262Y-12845024D01*
X13517262Y-12845024D02*
X13479167Y-12845024D01*
X13479167Y-12845024D02*
X13460119Y-12835500D01*
X13460119Y-12835500D02*
X13450596Y-12816452D01*
X13450596Y-12816452D02*
X13450596Y-12740262D01*
X13450596Y-12740262D02*
X13460119Y-12721214D01*
X13460119Y-12721214D02*
X13479167Y-12711690D01*
X13479167Y-12711690D02*
X13517262Y-12711690D01*
X13517262Y-12711690D02*
X13536310Y-12721214D01*
X13536310Y-12721214D02*
X13545834Y-12740262D01*
X13545834Y-12740262D02*
X13545834Y-12759309D01*
X13545834Y-12759309D02*
X13450596Y-12778357D01*
X13622024Y-12835500D02*
X13641072Y-12845024D01*
X13641072Y-12845024D02*
X13679167Y-12845024D01*
X13679167Y-12845024D02*
X13698215Y-12835500D01*
X13698215Y-12835500D02*
X13707738Y-12816452D01*
X13707738Y-12816452D02*
X13707738Y-12806928D01*
X13707738Y-12806928D02*
X13698215Y-12787881D01*
X13698215Y-12787881D02*
X13679167Y-12778357D01*
X13679167Y-12778357D02*
X13650596Y-12778357D01*
X13650596Y-12778357D02*
X13631548Y-12768833D01*
X13631548Y-12768833D02*
X13622024Y-12749786D01*
X13622024Y-12749786D02*
X13622024Y-12740262D01*
X13622024Y-12740262D02*
X13631548Y-12721214D01*
X13631548Y-12721214D02*
X13650596Y-12711690D01*
X13650596Y-12711690D02*
X13679167Y-12711690D01*
X13679167Y-12711690D02*
X13698215Y-12721214D01*
X13945834Y-12768833D02*
X14098215Y-12768833D01*
X14022024Y-12845024D02*
X14022024Y-12692643D01*
X14326786Y-12645024D02*
X14450596Y-12645024D01*
X14450596Y-12645024D02*
X14383929Y-12721214D01*
X14383929Y-12721214D02*
X14412500Y-12721214D01*
X14412500Y-12721214D02*
X14431548Y-12730738D01*
X14431548Y-12730738D02*
X14441072Y-12740262D01*
X14441072Y-12740262D02*
X14450596Y-12759309D01*
X14450596Y-12759309D02*
X14450596Y-12806928D01*
X14450596Y-12806928D02*
X14441072Y-12825976D01*
X14441072Y-12825976D02*
X14431548Y-12835500D01*
X14431548Y-12835500D02*
X14412500Y-12845024D01*
X14412500Y-12845024D02*
X14355358Y-12845024D01*
X14355358Y-12845024D02*
X14336310Y-12835500D01*
X14336310Y-12835500D02*
X14326786Y-12825976D01*
X14679167Y-12835500D02*
X14698215Y-12845024D01*
X14698215Y-12845024D02*
X14736310Y-12845024D01*
X14736310Y-12845024D02*
X14755358Y-12835500D01*
X14755358Y-12835500D02*
X14764881Y-12816452D01*
X14764881Y-12816452D02*
X14764881Y-12806928D01*
X14764881Y-12806928D02*
X14755358Y-12787881D01*
X14755358Y-12787881D02*
X14736310Y-12778357D01*
X14736310Y-12778357D02*
X14707739Y-12778357D01*
X14707739Y-12778357D02*
X14688691Y-12768833D01*
X14688691Y-12768833D02*
X14679167Y-12749786D01*
X14679167Y-12749786D02*
X14679167Y-12740262D01*
X14679167Y-12740262D02*
X14688691Y-12721214D01*
X14688691Y-12721214D02*
X14707739Y-12711690D01*
X14707739Y-12711690D02*
X14736310Y-12711690D01*
X14736310Y-12711690D02*
X14755358Y-12721214D01*
X14879167Y-12845024D02*
X14860120Y-12835500D01*
X14860120Y-12835500D02*
X14850596Y-12816452D01*
X14850596Y-12816452D02*
X14850596Y-12645024D01*
X14983929Y-12845024D02*
X14964881Y-12835500D01*
X14964881Y-12835500D02*
X14955358Y-12825976D01*
X14955358Y-12825976D02*
X14945834Y-12806928D01*
X14945834Y-12806928D02*
X14945834Y-12749786D01*
X14945834Y-12749786D02*
X14955358Y-12730738D01*
X14955358Y-12730738D02*
X14964881Y-12721214D01*
X14964881Y-12721214D02*
X14983929Y-12711690D01*
X14983929Y-12711690D02*
X15012501Y-12711690D01*
X15012501Y-12711690D02*
X15031548Y-12721214D01*
X15031548Y-12721214D02*
X15041072Y-12730738D01*
X15041072Y-12730738D02*
X15050596Y-12749786D01*
X15050596Y-12749786D02*
X15050596Y-12806928D01*
X15050596Y-12806928D02*
X15041072Y-12825976D01*
X15041072Y-12825976D02*
X15031548Y-12835500D01*
X15031548Y-12835500D02*
X15012501Y-12845024D01*
X15012501Y-12845024D02*
X14983929Y-12845024D01*
X15107739Y-12711690D02*
X15183929Y-12711690D01*
X15136310Y-12645024D02*
X15136310Y-12816452D01*
X15136310Y-12816452D02*
X15145834Y-12835500D01*
X15145834Y-12835500D02*
X15164881Y-12845024D01*
X15164881Y-12845024D02*
X15183929Y-12845024D01*
X15241072Y-12835500D02*
X15260120Y-12845024D01*
X15260120Y-12845024D02*
X15298215Y-12845024D01*
X15298215Y-12845024D02*
X15317262Y-12835500D01*
X15317262Y-12835500D02*
X15326786Y-12816452D01*
X15326786Y-12816452D02*
X15326786Y-12806928D01*
X15326786Y-12806928D02*
X15317262Y-12787881D01*
X15317262Y-12787881D02*
X15298215Y-12778357D01*
X15298215Y-12778357D02*
X15269643Y-12778357D01*
X15269643Y-12778357D02*
X15250596Y-12768833D01*
X15250596Y-12768833D02*
X15241072Y-12749786D01*
X15241072Y-12749786D02*
X15241072Y-12740262D01*
X15241072Y-12740262D02*
X15250596Y-12721214D01*
X15250596Y-12721214D02*
X15269643Y-12711690D01*
X15269643Y-12711690D02*
X15298215Y-12711690D01*
X15298215Y-12711690D02*
X15317262Y-12721214D01*
X15393453Y-12921214D02*
X15402977Y-12911690D01*
X15402977Y-12911690D02*
X15422024Y-12883119D01*
X15422024Y-12883119D02*
X15431548Y-12864071D01*
X15431548Y-12864071D02*
X15441072Y-12835500D01*
X15441072Y-12835500D02*
X15450596Y-12787881D01*
X15450596Y-12787881D02*
X15450596Y-12749786D01*
X15450596Y-12749786D02*
X15441072Y-12702167D01*
X15441072Y-12702167D02*
X15431548Y-12673595D01*
X15431548Y-12673595D02*
X15422024Y-12654548D01*
X15422024Y-12654548D02*
X15402977Y-12625976D01*
X15402977Y-12625976D02*
X15393453Y-12616452D01*
M02*
