G04 #@! TF.GenerationSoftware,KiCad,Pcbnew,7.0.1*
G04 #@! TF.CreationDate,2024-03-19T15:28:11+08:00*
G04 #@! TF.ProjectId,chupico_openithm,63687570-6963-46f5-9f6f-70656e697468,rev?*
G04 #@! TF.SameCoordinates,Original*
G04 #@! TF.FileFunction,Soldermask,Bot*
G04 #@! TF.FilePolarity,Negative*
%FSLAX46Y46*%
G04 Gerber Fmt 4.6, Leading zero omitted, Abs format (unit mm)*
G04 Created by KiCad (PCBNEW 7.0.1) date 2024-03-19 15:28:11*
%MOMM*%
%LPD*%
G01*
G04 APERTURE LIST*
G04 Aperture macros list*
%AMRoundRect*
0 Rectangle with rounded corners*
0 $1 Rounding radius*
0 $2 $3 $4 $5 $6 $7 $8 $9 X,Y pos of 4 corners*
0 Add a 4 corners polygon primitive as box body*
4,1,4,$2,$3,$4,$5,$6,$7,$8,$9,$2,$3,0*
0 Add four circle primitives for the rounded corners*
1,1,$1+$1,$2,$3*
1,1,$1+$1,$4,$5*
1,1,$1+$1,$6,$7*
1,1,$1+$1,$8,$9*
0 Add four rect primitives between the rounded corners*
20,1,$1+$1,$2,$3,$4,$5,0*
20,1,$1+$1,$4,$5,$6,$7,0*
20,1,$1+$1,$6,$7,$8,$9,0*
20,1,$1+$1,$8,$9,$2,$3,0*%
G04 Aperture macros list end*
%ADD10C,1.400000*%
%ADD11O,1.400000X1.400000*%
%ADD12C,3.200000*%
%ADD13R,1.700000X1.700000*%
%ADD14O,1.700000X1.700000*%
%ADD15RoundRect,0.300000X-0.450000X-0.950000X0.450000X-0.950000X0.450000X0.950000X-0.450000X0.950000X0*%
%ADD16C,2.100000*%
G04 APERTURE END LIST*
D10*
X153710000Y-102917625D03*
D11*
X153710000Y-107997625D03*
D10*
X157210000Y-102949375D03*
D11*
X157210000Y-108029375D03*
D10*
X160710000Y-102933500D03*
D11*
X160710000Y-108013500D03*
D10*
X164210000Y-102997000D03*
D11*
X164210000Y-108077000D03*
D10*
X167710000Y-102981125D03*
D11*
X167710000Y-108061125D03*
D10*
X171210000Y-102965250D03*
D11*
X171210000Y-108045250D03*
D10*
X181710000Y-107965875D03*
D11*
X181710000Y-102885875D03*
X178210000Y-102870000D03*
D10*
X178210000Y-107950000D03*
X174710000Y-107981750D03*
D11*
X174710000Y-102901750D03*
D12*
X187100000Y-107569000D03*
X187100000Y-63506000D03*
X93120000Y-63506000D03*
X93120000Y-107569000D03*
D13*
X95120000Y-94623500D03*
D14*
X92580000Y-94623500D03*
X95120000Y-92083500D03*
X92580000Y-92083500D03*
X95120000Y-89543500D03*
X92580000Y-89543500D03*
X95120000Y-87003500D03*
X92580000Y-87003500D03*
X95120000Y-84463500D03*
X92580000Y-84463500D03*
X95120000Y-81923500D03*
X92580000Y-81923500D03*
X95120000Y-79383500D03*
X92580000Y-79383500D03*
X95120000Y-76843500D03*
X92580000Y-76843500D03*
X95120000Y-74303500D03*
X92580000Y-74303500D03*
X95120000Y-71763500D03*
X92580000Y-71763500D03*
X95120000Y-69223500D03*
X92580000Y-69223500D03*
X95120000Y-66683500D03*
X92580000Y-66683500D03*
X174170000Y-79733500D03*
X171630000Y-79733500D03*
X169090000Y-79733500D03*
X166550000Y-79733500D03*
X164010000Y-79733500D03*
D13*
X161470000Y-79733500D03*
D14*
X181790000Y-61953500D03*
X179250000Y-61953500D03*
X176710000Y-61953500D03*
X174170000Y-61953500D03*
X171630000Y-61953500D03*
X169090000Y-61953500D03*
X166550000Y-61953500D03*
X164010000Y-61953500D03*
X161470000Y-61953500D03*
X158930000Y-61953500D03*
X156390000Y-61953500D03*
D13*
X153850000Y-61953500D03*
X106100000Y-79833500D03*
D14*
X108640000Y-79833500D03*
X111180000Y-79833500D03*
X113720000Y-79833500D03*
X116260000Y-79833500D03*
X118800000Y-79833500D03*
D13*
X98480000Y-62053500D03*
D14*
X101020000Y-62053500D03*
X103560000Y-62053500D03*
X106100000Y-62053500D03*
X108640000Y-62053500D03*
X111180000Y-62053500D03*
X113720000Y-62053500D03*
X116260000Y-62053500D03*
X118800000Y-62053500D03*
X121340000Y-62053500D03*
X123880000Y-62053500D03*
X126420000Y-62053500D03*
D13*
X118770000Y-83206000D03*
D14*
X116230000Y-83206000D03*
X113690000Y-83206000D03*
X111150000Y-83206000D03*
X108610000Y-83206000D03*
X106070000Y-83206000D03*
D13*
X126390000Y-100986000D03*
D14*
X123850000Y-100986000D03*
X121310000Y-100986000D03*
X118770000Y-100986000D03*
X116230000Y-100986000D03*
X113690000Y-100986000D03*
X111150000Y-100986000D03*
X108610000Y-100986000D03*
X106070000Y-100986000D03*
X103530000Y-100986000D03*
X100990000Y-100986000D03*
X98450000Y-100986000D03*
D13*
X177850000Y-84052500D03*
D14*
X175310000Y-84052500D03*
X172770000Y-84052500D03*
X170230000Y-84052500D03*
X167690000Y-84052500D03*
X165150000Y-84052500D03*
X162610000Y-84052500D03*
X160070000Y-84052500D03*
D13*
X180390000Y-94222500D03*
D14*
X177850000Y-94222500D03*
X175310000Y-94222500D03*
X172770000Y-94222500D03*
X170230000Y-94222500D03*
X167690000Y-94222500D03*
X165150000Y-94222500D03*
X162610000Y-94222500D03*
X160070000Y-94222500D03*
X157530000Y-94222500D03*
X154990000Y-94222500D03*
X154990000Y-99292500D03*
X157530000Y-99292500D03*
X160070000Y-99292500D03*
X162610000Y-99292500D03*
X165150000Y-99292500D03*
X167690000Y-99292500D03*
X170230000Y-99292500D03*
X172770000Y-99292500D03*
X175310000Y-99292500D03*
X177850000Y-99292500D03*
D13*
X180390000Y-99292500D03*
D15*
X139110000Y-58418500D03*
X141110000Y-58438500D03*
X140110000Y-61718500D03*
D14*
X142650000Y-106988500D03*
D13*
X140110000Y-106988500D03*
D14*
X137570000Y-106988500D03*
X149000000Y-58958500D03*
X149000000Y-61498500D03*
D13*
X149000000Y-64038500D03*
D14*
X149000000Y-66578500D03*
X149000000Y-69118500D03*
X149000000Y-71658500D03*
X149000000Y-74198500D03*
D13*
X149000000Y-76738500D03*
D14*
X149000000Y-79278500D03*
X149000000Y-81818500D03*
X149000000Y-84358500D03*
X149000000Y-86898500D03*
D13*
X149000000Y-89438500D03*
D14*
X149000000Y-91978500D03*
X149000000Y-94518500D03*
X149000000Y-97058500D03*
X149000000Y-99598500D03*
D13*
X149000000Y-102138500D03*
D14*
X149000000Y-104678500D03*
X149000000Y-107218500D03*
X131220000Y-107218500D03*
X131220000Y-104678500D03*
D13*
X131220000Y-102138500D03*
D14*
X131220000Y-99598500D03*
X131220000Y-97058500D03*
X131220000Y-94518500D03*
X131220000Y-91978500D03*
D13*
X131220000Y-89438500D03*
D14*
X131220000Y-86898500D03*
X131220000Y-84358500D03*
X131220000Y-81818500D03*
X131220000Y-79278500D03*
D13*
X131220000Y-76738500D03*
D14*
X131220000Y-74198500D03*
X131220000Y-71658500D03*
X131220000Y-69118500D03*
X131220000Y-66578500D03*
D13*
X131220000Y-64038500D03*
D14*
X131220000Y-61498500D03*
X131220000Y-58958500D03*
D16*
X145810000Y-106588500D03*
X145810000Y-59588500D03*
X134410000Y-106588500D03*
X134410000Y-59588500D03*
D13*
X185320000Y-66681000D03*
D14*
X187860000Y-66681000D03*
X185320000Y-69221000D03*
X187860000Y-69221000D03*
X185320000Y-71761000D03*
X187860000Y-71761000D03*
X185320000Y-74301000D03*
X187860000Y-74301000D03*
X185320000Y-76841000D03*
X187860000Y-76841000D03*
X185320000Y-79381000D03*
X187860000Y-79381000D03*
X185320000Y-81921000D03*
X187860000Y-81921000D03*
X185320000Y-84461000D03*
X187860000Y-84461000D03*
X185320000Y-87001000D03*
X187860000Y-87001000D03*
X185320000Y-89541000D03*
X187860000Y-89541000D03*
X185320000Y-92081000D03*
X187860000Y-92081000D03*
X185320000Y-94621000D03*
X187860000Y-94621000D03*
M02*
