%TF.GenerationSoftware,KiCad,Pcbnew,7.0.1*%
%TF.CreationDate,2024-03-19T15:28:44+08:00*%
%TF.ProjectId,chupico_openithm,63687570-6963-46f5-9f6f-70656e697468,rev?*%
%TF.SameCoordinates,Original*%
%TF.FileFunction,Drillmap*%
%TF.FilePolarity,Positive*%
%FSLAX45Y45*%
G04 Gerber Fmt 4.5, Leading zero omitted, Abs format (unit mm)*
G04 Created by KiCad (PCBNEW 7.0.1) date 2024-03-19 15:28:44*
%MOMM*%
%LPD*%
G01*
G04 APERTURE LIST*
%ADD10C,0.150000*%
%ADD11C,0.200000*%
%ADD12C,0.210000*%
%ADD13C,0.320000*%
G04 APERTURE END LIST*
D10*
X9017000Y-6070600D02*
X9022000Y-11049000D01*
X19022000Y-11049000D02*
X19017000Y-6070600D01*
X14017000Y-5540600D02*
X9017000Y-6070600D01*
X9022000Y-11049000D02*
X19022000Y-11049000D01*
X14017000Y-5540600D02*
X19017000Y-6070600D01*
D11*
D12*
X13336000Y-5853850D02*
X13546000Y-6063850D01*
X13546000Y-5853850D02*
X13336000Y-6063850D01*
X13336000Y-10553850D02*
X13546000Y-10763850D01*
X13546000Y-10553850D02*
X13336000Y-10763850D01*
X14476000Y-5853850D02*
X14686000Y-6063850D01*
X14686000Y-5853850D02*
X14476000Y-6063850D01*
X14476000Y-10553850D02*
X14686000Y-10763850D01*
X14686000Y-10553850D02*
X14476000Y-10763850D01*
D13*
X9472000Y-6350600D02*
G75*
G03*
X9472000Y-6350600I-160000J0D01*
G01*
X9472000Y-10756900D02*
G75*
G03*
X9472000Y-10756900I-160000J0D01*
G01*
X18870000Y-6350600D02*
G75*
G03*
X18870000Y-6350600I-160000J0D01*
G01*
X18870000Y-10756900D02*
G75*
G03*
X18870000Y-10756900I-160000J0D01*
G01*
D11*
X9257119Y-11369024D02*
X9257119Y-11169024D01*
X9257119Y-11169024D02*
X9304738Y-11169024D01*
X9304738Y-11169024D02*
X9333310Y-11178548D01*
X9333310Y-11178548D02*
X9352357Y-11197595D01*
X9352357Y-11197595D02*
X9361881Y-11216643D01*
X9361881Y-11216643D02*
X9371405Y-11254738D01*
X9371405Y-11254738D02*
X9371405Y-11283309D01*
X9371405Y-11283309D02*
X9361881Y-11321405D01*
X9361881Y-11321405D02*
X9352357Y-11340452D01*
X9352357Y-11340452D02*
X9333310Y-11359500D01*
X9333310Y-11359500D02*
X9304738Y-11369024D01*
X9304738Y-11369024D02*
X9257119Y-11369024D01*
X9457119Y-11369024D02*
X9457119Y-11235690D01*
X9457119Y-11273786D02*
X9466643Y-11254738D01*
X9466643Y-11254738D02*
X9476167Y-11245214D01*
X9476167Y-11245214D02*
X9495214Y-11235690D01*
X9495214Y-11235690D02*
X9514262Y-11235690D01*
X9580929Y-11369024D02*
X9580929Y-11235690D01*
X9580929Y-11169024D02*
X9571405Y-11178548D01*
X9571405Y-11178548D02*
X9580929Y-11188071D01*
X9580929Y-11188071D02*
X9590452Y-11178548D01*
X9590452Y-11178548D02*
X9580929Y-11169024D01*
X9580929Y-11169024D02*
X9580929Y-11188071D01*
X9704738Y-11369024D02*
X9685690Y-11359500D01*
X9685690Y-11359500D02*
X9676167Y-11340452D01*
X9676167Y-11340452D02*
X9676167Y-11169024D01*
X9809500Y-11369024D02*
X9790452Y-11359500D01*
X9790452Y-11359500D02*
X9780929Y-11340452D01*
X9780929Y-11340452D02*
X9780929Y-11169024D01*
X10038071Y-11369024D02*
X10038071Y-11169024D01*
X10038071Y-11169024D02*
X10104738Y-11311881D01*
X10104738Y-11311881D02*
X10171405Y-11169024D01*
X10171405Y-11169024D02*
X10171405Y-11369024D01*
X10352357Y-11369024D02*
X10352357Y-11264262D01*
X10352357Y-11264262D02*
X10342833Y-11245214D01*
X10342833Y-11245214D02*
X10323786Y-11235690D01*
X10323786Y-11235690D02*
X10285690Y-11235690D01*
X10285690Y-11235690D02*
X10266643Y-11245214D01*
X10352357Y-11359500D02*
X10333310Y-11369024D01*
X10333310Y-11369024D02*
X10285690Y-11369024D01*
X10285690Y-11369024D02*
X10266643Y-11359500D01*
X10266643Y-11359500D02*
X10257119Y-11340452D01*
X10257119Y-11340452D02*
X10257119Y-11321405D01*
X10257119Y-11321405D02*
X10266643Y-11302357D01*
X10266643Y-11302357D02*
X10285690Y-11292833D01*
X10285690Y-11292833D02*
X10333310Y-11292833D01*
X10333310Y-11292833D02*
X10352357Y-11283309D01*
X10447595Y-11235690D02*
X10447595Y-11435690D01*
X10447595Y-11245214D02*
X10466643Y-11235690D01*
X10466643Y-11235690D02*
X10504738Y-11235690D01*
X10504738Y-11235690D02*
X10523786Y-11245214D01*
X10523786Y-11245214D02*
X10533310Y-11254738D01*
X10533310Y-11254738D02*
X10542833Y-11273786D01*
X10542833Y-11273786D02*
X10542833Y-11330928D01*
X10542833Y-11330928D02*
X10533310Y-11349976D01*
X10533310Y-11349976D02*
X10523786Y-11359500D01*
X10523786Y-11359500D02*
X10504738Y-11369024D01*
X10504738Y-11369024D02*
X10466643Y-11369024D01*
X10466643Y-11369024D02*
X10447595Y-11359500D01*
X10628548Y-11349976D02*
X10638071Y-11359500D01*
X10638071Y-11359500D02*
X10628548Y-11369024D01*
X10628548Y-11369024D02*
X10619024Y-11359500D01*
X10619024Y-11359500D02*
X10628548Y-11349976D01*
X10628548Y-11349976D02*
X10628548Y-11369024D01*
X10628548Y-11245214D02*
X10638071Y-11254738D01*
X10638071Y-11254738D02*
X10628548Y-11264262D01*
X10628548Y-11264262D02*
X10619024Y-11254738D01*
X10619024Y-11254738D02*
X10628548Y-11245214D01*
X10628548Y-11245214D02*
X10628548Y-11264262D01*
X8809500Y-11596500D02*
X9009500Y-11796500D01*
X9009500Y-11596500D02*
X8809500Y-11796500D01*
X9247595Y-11608071D02*
X9257119Y-11598548D01*
X9257119Y-11598548D02*
X9276167Y-11589024D01*
X9276167Y-11589024D02*
X9323786Y-11589024D01*
X9323786Y-11589024D02*
X9342833Y-11598548D01*
X9342833Y-11598548D02*
X9352357Y-11608071D01*
X9352357Y-11608071D02*
X9361881Y-11627119D01*
X9361881Y-11627119D02*
X9361881Y-11646167D01*
X9361881Y-11646167D02*
X9352357Y-11674738D01*
X9352357Y-11674738D02*
X9238071Y-11789024D01*
X9238071Y-11789024D02*
X9361881Y-11789024D01*
X9447595Y-11769976D02*
X9457119Y-11779500D01*
X9457119Y-11779500D02*
X9447595Y-11789024D01*
X9447595Y-11789024D02*
X9438071Y-11779500D01*
X9438071Y-11779500D02*
X9447595Y-11769976D01*
X9447595Y-11769976D02*
X9447595Y-11789024D01*
X9647595Y-11789024D02*
X9533310Y-11789024D01*
X9590452Y-11789024D02*
X9590452Y-11589024D01*
X9590452Y-11589024D02*
X9571405Y-11617595D01*
X9571405Y-11617595D02*
X9552357Y-11636643D01*
X9552357Y-11636643D02*
X9533310Y-11646167D01*
X9771405Y-11589024D02*
X9790452Y-11589024D01*
X9790452Y-11589024D02*
X9809500Y-11598548D01*
X9809500Y-11598548D02*
X9819024Y-11608071D01*
X9819024Y-11608071D02*
X9828548Y-11627119D01*
X9828548Y-11627119D02*
X9838071Y-11665214D01*
X9838071Y-11665214D02*
X9838071Y-11712833D01*
X9838071Y-11712833D02*
X9828548Y-11750928D01*
X9828548Y-11750928D02*
X9819024Y-11769976D01*
X9819024Y-11769976D02*
X9809500Y-11779500D01*
X9809500Y-11779500D02*
X9790452Y-11789024D01*
X9790452Y-11789024D02*
X9771405Y-11789024D01*
X9771405Y-11789024D02*
X9752357Y-11779500D01*
X9752357Y-11779500D02*
X9742833Y-11769976D01*
X9742833Y-11769976D02*
X9733310Y-11750928D01*
X9733310Y-11750928D02*
X9723786Y-11712833D01*
X9723786Y-11712833D02*
X9723786Y-11665214D01*
X9723786Y-11665214D02*
X9733310Y-11627119D01*
X9733310Y-11627119D02*
X9742833Y-11608071D01*
X9742833Y-11608071D02*
X9752357Y-11598548D01*
X9752357Y-11598548D02*
X9771405Y-11589024D01*
X9961881Y-11589024D02*
X9980929Y-11589024D01*
X9980929Y-11589024D02*
X9999976Y-11598548D01*
X9999976Y-11598548D02*
X10009500Y-11608071D01*
X10009500Y-11608071D02*
X10019024Y-11627119D01*
X10019024Y-11627119D02*
X10028548Y-11665214D01*
X10028548Y-11665214D02*
X10028548Y-11712833D01*
X10028548Y-11712833D02*
X10019024Y-11750928D01*
X10019024Y-11750928D02*
X10009500Y-11769976D01*
X10009500Y-11769976D02*
X9999976Y-11779500D01*
X9999976Y-11779500D02*
X9980929Y-11789024D01*
X9980929Y-11789024D02*
X9961881Y-11789024D01*
X9961881Y-11789024D02*
X9942833Y-11779500D01*
X9942833Y-11779500D02*
X9933310Y-11769976D01*
X9933310Y-11769976D02*
X9923786Y-11750928D01*
X9923786Y-11750928D02*
X9914262Y-11712833D01*
X9914262Y-11712833D02*
X9914262Y-11665214D01*
X9914262Y-11665214D02*
X9923786Y-11627119D01*
X9923786Y-11627119D02*
X9933310Y-11608071D01*
X9933310Y-11608071D02*
X9942833Y-11598548D01*
X9942833Y-11598548D02*
X9961881Y-11589024D01*
X10114262Y-11789024D02*
X10114262Y-11655690D01*
X10114262Y-11674738D02*
X10123786Y-11665214D01*
X10123786Y-11665214D02*
X10142833Y-11655690D01*
X10142833Y-11655690D02*
X10171405Y-11655690D01*
X10171405Y-11655690D02*
X10190452Y-11665214D01*
X10190452Y-11665214D02*
X10199976Y-11684262D01*
X10199976Y-11684262D02*
X10199976Y-11789024D01*
X10199976Y-11684262D02*
X10209500Y-11665214D01*
X10209500Y-11665214D02*
X10228548Y-11655690D01*
X10228548Y-11655690D02*
X10257119Y-11655690D01*
X10257119Y-11655690D02*
X10276167Y-11665214D01*
X10276167Y-11665214D02*
X10285691Y-11684262D01*
X10285691Y-11684262D02*
X10285691Y-11789024D01*
X10380929Y-11789024D02*
X10380929Y-11655690D01*
X10380929Y-11674738D02*
X10390452Y-11665214D01*
X10390452Y-11665214D02*
X10409500Y-11655690D01*
X10409500Y-11655690D02*
X10438072Y-11655690D01*
X10438072Y-11655690D02*
X10457119Y-11665214D01*
X10457119Y-11665214D02*
X10466643Y-11684262D01*
X10466643Y-11684262D02*
X10466643Y-11789024D01*
X10466643Y-11684262D02*
X10476167Y-11665214D01*
X10476167Y-11665214D02*
X10495214Y-11655690D01*
X10495214Y-11655690D02*
X10523786Y-11655690D01*
X10523786Y-11655690D02*
X10542833Y-11665214D01*
X10542833Y-11665214D02*
X10552357Y-11684262D01*
X10552357Y-11684262D02*
X10552357Y-11789024D01*
X10942833Y-11579500D02*
X10771405Y-11836643D01*
X11199976Y-11589024D02*
X11219024Y-11589024D01*
X11219024Y-11589024D02*
X11238072Y-11598548D01*
X11238072Y-11598548D02*
X11247595Y-11608071D01*
X11247595Y-11608071D02*
X11257119Y-11627119D01*
X11257119Y-11627119D02*
X11266643Y-11665214D01*
X11266643Y-11665214D02*
X11266643Y-11712833D01*
X11266643Y-11712833D02*
X11257119Y-11750928D01*
X11257119Y-11750928D02*
X11247595Y-11769976D01*
X11247595Y-11769976D02*
X11238072Y-11779500D01*
X11238072Y-11779500D02*
X11219024Y-11789024D01*
X11219024Y-11789024D02*
X11199976Y-11789024D01*
X11199976Y-11789024D02*
X11180929Y-11779500D01*
X11180929Y-11779500D02*
X11171405Y-11769976D01*
X11171405Y-11769976D02*
X11161881Y-11750928D01*
X11161881Y-11750928D02*
X11152357Y-11712833D01*
X11152357Y-11712833D02*
X11152357Y-11665214D01*
X11152357Y-11665214D02*
X11161881Y-11627119D01*
X11161881Y-11627119D02*
X11171405Y-11608071D01*
X11171405Y-11608071D02*
X11180929Y-11598548D01*
X11180929Y-11598548D02*
X11199976Y-11589024D01*
X11352357Y-11769976D02*
X11361881Y-11779500D01*
X11361881Y-11779500D02*
X11352357Y-11789024D01*
X11352357Y-11789024D02*
X11342833Y-11779500D01*
X11342833Y-11779500D02*
X11352357Y-11769976D01*
X11352357Y-11769976D02*
X11352357Y-11789024D01*
X11485691Y-11589024D02*
X11504738Y-11589024D01*
X11504738Y-11589024D02*
X11523786Y-11598548D01*
X11523786Y-11598548D02*
X11533310Y-11608071D01*
X11533310Y-11608071D02*
X11542833Y-11627119D01*
X11542833Y-11627119D02*
X11552357Y-11665214D01*
X11552357Y-11665214D02*
X11552357Y-11712833D01*
X11552357Y-11712833D02*
X11542833Y-11750928D01*
X11542833Y-11750928D02*
X11533310Y-11769976D01*
X11533310Y-11769976D02*
X11523786Y-11779500D01*
X11523786Y-11779500D02*
X11504738Y-11789024D01*
X11504738Y-11789024D02*
X11485691Y-11789024D01*
X11485691Y-11789024D02*
X11466643Y-11779500D01*
X11466643Y-11779500D02*
X11457119Y-11769976D01*
X11457119Y-11769976D02*
X11447595Y-11750928D01*
X11447595Y-11750928D02*
X11438072Y-11712833D01*
X11438072Y-11712833D02*
X11438072Y-11665214D01*
X11438072Y-11665214D02*
X11447595Y-11627119D01*
X11447595Y-11627119D02*
X11457119Y-11608071D01*
X11457119Y-11608071D02*
X11466643Y-11598548D01*
X11466643Y-11598548D02*
X11485691Y-11589024D01*
X11666643Y-11674738D02*
X11647595Y-11665214D01*
X11647595Y-11665214D02*
X11638072Y-11655690D01*
X11638072Y-11655690D02*
X11628548Y-11636643D01*
X11628548Y-11636643D02*
X11628548Y-11627119D01*
X11628548Y-11627119D02*
X11638072Y-11608071D01*
X11638072Y-11608071D02*
X11647595Y-11598548D01*
X11647595Y-11598548D02*
X11666643Y-11589024D01*
X11666643Y-11589024D02*
X11704738Y-11589024D01*
X11704738Y-11589024D02*
X11723786Y-11598548D01*
X11723786Y-11598548D02*
X11733310Y-11608071D01*
X11733310Y-11608071D02*
X11742833Y-11627119D01*
X11742833Y-11627119D02*
X11742833Y-11636643D01*
X11742833Y-11636643D02*
X11733310Y-11655690D01*
X11733310Y-11655690D02*
X11723786Y-11665214D01*
X11723786Y-11665214D02*
X11704738Y-11674738D01*
X11704738Y-11674738D02*
X11666643Y-11674738D01*
X11666643Y-11674738D02*
X11647595Y-11684262D01*
X11647595Y-11684262D02*
X11638072Y-11693786D01*
X11638072Y-11693786D02*
X11628548Y-11712833D01*
X11628548Y-11712833D02*
X11628548Y-11750928D01*
X11628548Y-11750928D02*
X11638072Y-11769976D01*
X11638072Y-11769976D02*
X11647595Y-11779500D01*
X11647595Y-11779500D02*
X11666643Y-11789024D01*
X11666643Y-11789024D02*
X11704738Y-11789024D01*
X11704738Y-11789024D02*
X11723786Y-11779500D01*
X11723786Y-11779500D02*
X11733310Y-11769976D01*
X11733310Y-11769976D02*
X11742833Y-11750928D01*
X11742833Y-11750928D02*
X11742833Y-11712833D01*
X11742833Y-11712833D02*
X11733310Y-11693786D01*
X11733310Y-11693786D02*
X11723786Y-11684262D01*
X11723786Y-11684262D02*
X11704738Y-11674738D01*
X11819024Y-11608071D02*
X11828548Y-11598548D01*
X11828548Y-11598548D02*
X11847595Y-11589024D01*
X11847595Y-11589024D02*
X11895214Y-11589024D01*
X11895214Y-11589024D02*
X11914262Y-11598548D01*
X11914262Y-11598548D02*
X11923786Y-11608071D01*
X11923786Y-11608071D02*
X11933310Y-11627119D01*
X11933310Y-11627119D02*
X11933310Y-11646167D01*
X11933310Y-11646167D02*
X11923786Y-11674738D01*
X11923786Y-11674738D02*
X11809500Y-11789024D01*
X11809500Y-11789024D02*
X11933310Y-11789024D01*
X11999976Y-11589024D02*
X12133310Y-11589024D01*
X12133310Y-11589024D02*
X12047595Y-11789024D01*
X12199976Y-11589024D02*
X12199976Y-11627119D01*
X12276167Y-11589024D02*
X12276167Y-11627119D01*
X12571405Y-11865214D02*
X12561881Y-11855690D01*
X12561881Y-11855690D02*
X12542834Y-11827119D01*
X12542834Y-11827119D02*
X12533310Y-11808071D01*
X12533310Y-11808071D02*
X12523786Y-11779500D01*
X12523786Y-11779500D02*
X12514262Y-11731881D01*
X12514262Y-11731881D02*
X12514262Y-11693786D01*
X12514262Y-11693786D02*
X12523786Y-11646167D01*
X12523786Y-11646167D02*
X12533310Y-11617595D01*
X12533310Y-11617595D02*
X12542834Y-11598548D01*
X12542834Y-11598548D02*
X12561881Y-11569976D01*
X12561881Y-11569976D02*
X12571405Y-11560452D01*
X12733310Y-11655690D02*
X12733310Y-11789024D01*
X12685691Y-11579500D02*
X12638072Y-11722357D01*
X12638072Y-11722357D02*
X12761881Y-11722357D01*
X12990453Y-11789024D02*
X12990453Y-11589024D01*
X13076167Y-11789024D02*
X13076167Y-11684262D01*
X13076167Y-11684262D02*
X13066643Y-11665214D01*
X13066643Y-11665214D02*
X13047596Y-11655690D01*
X13047596Y-11655690D02*
X13019024Y-11655690D01*
X13019024Y-11655690D02*
X12999976Y-11665214D01*
X12999976Y-11665214D02*
X12990453Y-11674738D01*
X13199976Y-11789024D02*
X13180929Y-11779500D01*
X13180929Y-11779500D02*
X13171405Y-11769976D01*
X13171405Y-11769976D02*
X13161881Y-11750928D01*
X13161881Y-11750928D02*
X13161881Y-11693786D01*
X13161881Y-11693786D02*
X13171405Y-11674738D01*
X13171405Y-11674738D02*
X13180929Y-11665214D01*
X13180929Y-11665214D02*
X13199976Y-11655690D01*
X13199976Y-11655690D02*
X13228548Y-11655690D01*
X13228548Y-11655690D02*
X13247596Y-11665214D01*
X13247596Y-11665214D02*
X13257119Y-11674738D01*
X13257119Y-11674738D02*
X13266643Y-11693786D01*
X13266643Y-11693786D02*
X13266643Y-11750928D01*
X13266643Y-11750928D02*
X13257119Y-11769976D01*
X13257119Y-11769976D02*
X13247596Y-11779500D01*
X13247596Y-11779500D02*
X13228548Y-11789024D01*
X13228548Y-11789024D02*
X13199976Y-11789024D01*
X13380929Y-11789024D02*
X13361881Y-11779500D01*
X13361881Y-11779500D02*
X13352357Y-11760452D01*
X13352357Y-11760452D02*
X13352357Y-11589024D01*
X13533310Y-11779500D02*
X13514262Y-11789024D01*
X13514262Y-11789024D02*
X13476167Y-11789024D01*
X13476167Y-11789024D02*
X13457119Y-11779500D01*
X13457119Y-11779500D02*
X13447596Y-11760452D01*
X13447596Y-11760452D02*
X13447596Y-11684262D01*
X13447596Y-11684262D02*
X13457119Y-11665214D01*
X13457119Y-11665214D02*
X13476167Y-11655690D01*
X13476167Y-11655690D02*
X13514262Y-11655690D01*
X13514262Y-11655690D02*
X13533310Y-11665214D01*
X13533310Y-11665214D02*
X13542834Y-11684262D01*
X13542834Y-11684262D02*
X13542834Y-11703309D01*
X13542834Y-11703309D02*
X13447596Y-11722357D01*
X13619024Y-11779500D02*
X13638072Y-11789024D01*
X13638072Y-11789024D02*
X13676167Y-11789024D01*
X13676167Y-11789024D02*
X13695215Y-11779500D01*
X13695215Y-11779500D02*
X13704738Y-11760452D01*
X13704738Y-11760452D02*
X13704738Y-11750928D01*
X13704738Y-11750928D02*
X13695215Y-11731881D01*
X13695215Y-11731881D02*
X13676167Y-11722357D01*
X13676167Y-11722357D02*
X13647596Y-11722357D01*
X13647596Y-11722357D02*
X13628548Y-11712833D01*
X13628548Y-11712833D02*
X13619024Y-11693786D01*
X13619024Y-11693786D02*
X13619024Y-11684262D01*
X13619024Y-11684262D02*
X13628548Y-11665214D01*
X13628548Y-11665214D02*
X13647596Y-11655690D01*
X13647596Y-11655690D02*
X13676167Y-11655690D01*
X13676167Y-11655690D02*
X13695215Y-11665214D01*
X13771405Y-11865214D02*
X13780929Y-11855690D01*
X13780929Y-11855690D02*
X13799977Y-11827119D01*
X13799977Y-11827119D02*
X13809500Y-11808071D01*
X13809500Y-11808071D02*
X13819024Y-11779500D01*
X13819024Y-11779500D02*
X13828548Y-11731881D01*
X13828548Y-11731881D02*
X13828548Y-11693786D01*
X13828548Y-11693786D02*
X13819024Y-11646167D01*
X13819024Y-11646167D02*
X13809500Y-11617595D01*
X13809500Y-11617595D02*
X13799977Y-11598548D01*
X13799977Y-11598548D02*
X13780929Y-11569976D01*
X13780929Y-11569976D02*
X13771405Y-11560452D01*
X14133310Y-11865214D02*
X14123786Y-11855690D01*
X14123786Y-11855690D02*
X14104738Y-11827119D01*
X14104738Y-11827119D02*
X14095215Y-11808071D01*
X14095215Y-11808071D02*
X14085691Y-11779500D01*
X14085691Y-11779500D02*
X14076167Y-11731881D01*
X14076167Y-11731881D02*
X14076167Y-11693786D01*
X14076167Y-11693786D02*
X14085691Y-11646167D01*
X14085691Y-11646167D02*
X14095215Y-11617595D01*
X14095215Y-11617595D02*
X14104738Y-11598548D01*
X14104738Y-11598548D02*
X14123786Y-11569976D01*
X14123786Y-11569976D02*
X14133310Y-11560452D01*
X14209500Y-11655690D02*
X14209500Y-11789024D01*
X14209500Y-11674738D02*
X14219024Y-11665214D01*
X14219024Y-11665214D02*
X14238072Y-11655690D01*
X14238072Y-11655690D02*
X14266643Y-11655690D01*
X14266643Y-11655690D02*
X14285691Y-11665214D01*
X14285691Y-11665214D02*
X14295215Y-11684262D01*
X14295215Y-11684262D02*
X14295215Y-11789024D01*
X14419024Y-11789024D02*
X14399977Y-11779500D01*
X14399977Y-11779500D02*
X14390453Y-11769976D01*
X14390453Y-11769976D02*
X14380929Y-11750928D01*
X14380929Y-11750928D02*
X14380929Y-11693786D01*
X14380929Y-11693786D02*
X14390453Y-11674738D01*
X14390453Y-11674738D02*
X14399977Y-11665214D01*
X14399977Y-11665214D02*
X14419024Y-11655690D01*
X14419024Y-11655690D02*
X14447596Y-11655690D01*
X14447596Y-11655690D02*
X14466643Y-11665214D01*
X14466643Y-11665214D02*
X14476167Y-11674738D01*
X14476167Y-11674738D02*
X14485691Y-11693786D01*
X14485691Y-11693786D02*
X14485691Y-11750928D01*
X14485691Y-11750928D02*
X14476167Y-11769976D01*
X14476167Y-11769976D02*
X14466643Y-11779500D01*
X14466643Y-11779500D02*
X14447596Y-11789024D01*
X14447596Y-11789024D02*
X14419024Y-11789024D01*
X14542834Y-11655690D02*
X14619024Y-11655690D01*
X14571405Y-11589024D02*
X14571405Y-11760452D01*
X14571405Y-11760452D02*
X14580929Y-11779500D01*
X14580929Y-11779500D02*
X14599977Y-11789024D01*
X14599977Y-11789024D02*
X14619024Y-11789024D01*
X14838072Y-11655690D02*
X14838072Y-11855690D01*
X14838072Y-11665214D02*
X14857119Y-11655690D01*
X14857119Y-11655690D02*
X14895215Y-11655690D01*
X14895215Y-11655690D02*
X14914262Y-11665214D01*
X14914262Y-11665214D02*
X14923786Y-11674738D01*
X14923786Y-11674738D02*
X14933310Y-11693786D01*
X14933310Y-11693786D02*
X14933310Y-11750928D01*
X14933310Y-11750928D02*
X14923786Y-11769976D01*
X14923786Y-11769976D02*
X14914262Y-11779500D01*
X14914262Y-11779500D02*
X14895215Y-11789024D01*
X14895215Y-11789024D02*
X14857119Y-11789024D01*
X14857119Y-11789024D02*
X14838072Y-11779500D01*
X15047596Y-11789024D02*
X15028548Y-11779500D01*
X15028548Y-11779500D02*
X15019024Y-11760452D01*
X15019024Y-11760452D02*
X15019024Y-11589024D01*
X15209500Y-11789024D02*
X15209500Y-11684262D01*
X15209500Y-11684262D02*
X15199977Y-11665214D01*
X15199977Y-11665214D02*
X15180929Y-11655690D01*
X15180929Y-11655690D02*
X15142834Y-11655690D01*
X15142834Y-11655690D02*
X15123786Y-11665214D01*
X15209500Y-11779500D02*
X15190453Y-11789024D01*
X15190453Y-11789024D02*
X15142834Y-11789024D01*
X15142834Y-11789024D02*
X15123786Y-11779500D01*
X15123786Y-11779500D02*
X15114262Y-11760452D01*
X15114262Y-11760452D02*
X15114262Y-11741405D01*
X15114262Y-11741405D02*
X15123786Y-11722357D01*
X15123786Y-11722357D02*
X15142834Y-11712833D01*
X15142834Y-11712833D02*
X15190453Y-11712833D01*
X15190453Y-11712833D02*
X15209500Y-11703309D01*
X15276167Y-11655690D02*
X15352358Y-11655690D01*
X15304739Y-11589024D02*
X15304739Y-11760452D01*
X15304739Y-11760452D02*
X15314262Y-11779500D01*
X15314262Y-11779500D02*
X15333310Y-11789024D01*
X15333310Y-11789024D02*
X15352358Y-11789024D01*
X15495215Y-11779500D02*
X15476167Y-11789024D01*
X15476167Y-11789024D02*
X15438072Y-11789024D01*
X15438072Y-11789024D02*
X15419024Y-11779500D01*
X15419024Y-11779500D02*
X15409500Y-11760452D01*
X15409500Y-11760452D02*
X15409500Y-11684262D01*
X15409500Y-11684262D02*
X15419024Y-11665214D01*
X15419024Y-11665214D02*
X15438072Y-11655690D01*
X15438072Y-11655690D02*
X15476167Y-11655690D01*
X15476167Y-11655690D02*
X15495215Y-11665214D01*
X15495215Y-11665214D02*
X15504739Y-11684262D01*
X15504739Y-11684262D02*
X15504739Y-11703309D01*
X15504739Y-11703309D02*
X15409500Y-11722357D01*
X15676167Y-11789024D02*
X15676167Y-11589024D01*
X15676167Y-11779500D02*
X15657120Y-11789024D01*
X15657120Y-11789024D02*
X15619024Y-11789024D01*
X15619024Y-11789024D02*
X15599977Y-11779500D01*
X15599977Y-11779500D02*
X15590453Y-11769976D01*
X15590453Y-11769976D02*
X15580929Y-11750928D01*
X15580929Y-11750928D02*
X15580929Y-11693786D01*
X15580929Y-11693786D02*
X15590453Y-11674738D01*
X15590453Y-11674738D02*
X15599977Y-11665214D01*
X15599977Y-11665214D02*
X15619024Y-11655690D01*
X15619024Y-11655690D02*
X15657120Y-11655690D01*
X15657120Y-11655690D02*
X15676167Y-11665214D01*
X15752358Y-11865214D02*
X15761881Y-11855690D01*
X15761881Y-11855690D02*
X15780929Y-11827119D01*
X15780929Y-11827119D02*
X15790453Y-11808071D01*
X15790453Y-11808071D02*
X15799977Y-11779500D01*
X15799977Y-11779500D02*
X15809500Y-11731881D01*
X15809500Y-11731881D02*
X15809500Y-11693786D01*
X15809500Y-11693786D02*
X15799977Y-11646167D01*
X15799977Y-11646167D02*
X15790453Y-11617595D01*
X15790453Y-11617595D02*
X15780929Y-11598548D01*
X15780929Y-11598548D02*
X15761881Y-11569976D01*
X15761881Y-11569976D02*
X15752358Y-11560452D01*
X9009500Y-12016500D02*
G75*
G03*
X9009500Y-12016500I-100000J0D01*
G01*
X9238071Y-11909024D02*
X9361881Y-11909024D01*
X9361881Y-11909024D02*
X9295214Y-11985214D01*
X9295214Y-11985214D02*
X9323786Y-11985214D01*
X9323786Y-11985214D02*
X9342833Y-11994738D01*
X9342833Y-11994738D02*
X9352357Y-12004262D01*
X9352357Y-12004262D02*
X9361881Y-12023309D01*
X9361881Y-12023309D02*
X9361881Y-12070928D01*
X9361881Y-12070928D02*
X9352357Y-12089976D01*
X9352357Y-12089976D02*
X9342833Y-12099500D01*
X9342833Y-12099500D02*
X9323786Y-12109024D01*
X9323786Y-12109024D02*
X9266643Y-12109024D01*
X9266643Y-12109024D02*
X9247595Y-12099500D01*
X9247595Y-12099500D02*
X9238071Y-12089976D01*
X9447595Y-12089976D02*
X9457119Y-12099500D01*
X9457119Y-12099500D02*
X9447595Y-12109024D01*
X9447595Y-12109024D02*
X9438071Y-12099500D01*
X9438071Y-12099500D02*
X9447595Y-12089976D01*
X9447595Y-12089976D02*
X9447595Y-12109024D01*
X9533310Y-11928071D02*
X9542833Y-11918548D01*
X9542833Y-11918548D02*
X9561881Y-11909024D01*
X9561881Y-11909024D02*
X9609500Y-11909024D01*
X9609500Y-11909024D02*
X9628548Y-11918548D01*
X9628548Y-11918548D02*
X9638071Y-11928071D01*
X9638071Y-11928071D02*
X9647595Y-11947119D01*
X9647595Y-11947119D02*
X9647595Y-11966167D01*
X9647595Y-11966167D02*
X9638071Y-11994738D01*
X9638071Y-11994738D02*
X9523786Y-12109024D01*
X9523786Y-12109024D02*
X9647595Y-12109024D01*
X9771405Y-11909024D02*
X9790452Y-11909024D01*
X9790452Y-11909024D02*
X9809500Y-11918548D01*
X9809500Y-11918548D02*
X9819024Y-11928071D01*
X9819024Y-11928071D02*
X9828548Y-11947119D01*
X9828548Y-11947119D02*
X9838071Y-11985214D01*
X9838071Y-11985214D02*
X9838071Y-12032833D01*
X9838071Y-12032833D02*
X9828548Y-12070928D01*
X9828548Y-12070928D02*
X9819024Y-12089976D01*
X9819024Y-12089976D02*
X9809500Y-12099500D01*
X9809500Y-12099500D02*
X9790452Y-12109024D01*
X9790452Y-12109024D02*
X9771405Y-12109024D01*
X9771405Y-12109024D02*
X9752357Y-12099500D01*
X9752357Y-12099500D02*
X9742833Y-12089976D01*
X9742833Y-12089976D02*
X9733310Y-12070928D01*
X9733310Y-12070928D02*
X9723786Y-12032833D01*
X9723786Y-12032833D02*
X9723786Y-11985214D01*
X9723786Y-11985214D02*
X9733310Y-11947119D01*
X9733310Y-11947119D02*
X9742833Y-11928071D01*
X9742833Y-11928071D02*
X9752357Y-11918548D01*
X9752357Y-11918548D02*
X9771405Y-11909024D01*
X9961881Y-11909024D02*
X9980929Y-11909024D01*
X9980929Y-11909024D02*
X9999976Y-11918548D01*
X9999976Y-11918548D02*
X10009500Y-11928071D01*
X10009500Y-11928071D02*
X10019024Y-11947119D01*
X10019024Y-11947119D02*
X10028548Y-11985214D01*
X10028548Y-11985214D02*
X10028548Y-12032833D01*
X10028548Y-12032833D02*
X10019024Y-12070928D01*
X10019024Y-12070928D02*
X10009500Y-12089976D01*
X10009500Y-12089976D02*
X9999976Y-12099500D01*
X9999976Y-12099500D02*
X9980929Y-12109024D01*
X9980929Y-12109024D02*
X9961881Y-12109024D01*
X9961881Y-12109024D02*
X9942833Y-12099500D01*
X9942833Y-12099500D02*
X9933310Y-12089976D01*
X9933310Y-12089976D02*
X9923786Y-12070928D01*
X9923786Y-12070928D02*
X9914262Y-12032833D01*
X9914262Y-12032833D02*
X9914262Y-11985214D01*
X9914262Y-11985214D02*
X9923786Y-11947119D01*
X9923786Y-11947119D02*
X9933310Y-11928071D01*
X9933310Y-11928071D02*
X9942833Y-11918548D01*
X9942833Y-11918548D02*
X9961881Y-11909024D01*
X10114262Y-12109024D02*
X10114262Y-11975690D01*
X10114262Y-11994738D02*
X10123786Y-11985214D01*
X10123786Y-11985214D02*
X10142833Y-11975690D01*
X10142833Y-11975690D02*
X10171405Y-11975690D01*
X10171405Y-11975690D02*
X10190452Y-11985214D01*
X10190452Y-11985214D02*
X10199976Y-12004262D01*
X10199976Y-12004262D02*
X10199976Y-12109024D01*
X10199976Y-12004262D02*
X10209500Y-11985214D01*
X10209500Y-11985214D02*
X10228548Y-11975690D01*
X10228548Y-11975690D02*
X10257119Y-11975690D01*
X10257119Y-11975690D02*
X10276167Y-11985214D01*
X10276167Y-11985214D02*
X10285691Y-12004262D01*
X10285691Y-12004262D02*
X10285691Y-12109024D01*
X10380929Y-12109024D02*
X10380929Y-11975690D01*
X10380929Y-11994738D02*
X10390452Y-11985214D01*
X10390452Y-11985214D02*
X10409500Y-11975690D01*
X10409500Y-11975690D02*
X10438072Y-11975690D01*
X10438072Y-11975690D02*
X10457119Y-11985214D01*
X10457119Y-11985214D02*
X10466643Y-12004262D01*
X10466643Y-12004262D02*
X10466643Y-12109024D01*
X10466643Y-12004262D02*
X10476167Y-11985214D01*
X10476167Y-11985214D02*
X10495214Y-11975690D01*
X10495214Y-11975690D02*
X10523786Y-11975690D01*
X10523786Y-11975690D02*
X10542833Y-11985214D01*
X10542833Y-11985214D02*
X10552357Y-12004262D01*
X10552357Y-12004262D02*
X10552357Y-12109024D01*
X10942833Y-11899500D02*
X10771405Y-12156643D01*
X11199976Y-11909024D02*
X11219024Y-11909024D01*
X11219024Y-11909024D02*
X11238072Y-11918548D01*
X11238072Y-11918548D02*
X11247595Y-11928071D01*
X11247595Y-11928071D02*
X11257119Y-11947119D01*
X11257119Y-11947119D02*
X11266643Y-11985214D01*
X11266643Y-11985214D02*
X11266643Y-12032833D01*
X11266643Y-12032833D02*
X11257119Y-12070928D01*
X11257119Y-12070928D02*
X11247595Y-12089976D01*
X11247595Y-12089976D02*
X11238072Y-12099500D01*
X11238072Y-12099500D02*
X11219024Y-12109024D01*
X11219024Y-12109024D02*
X11199976Y-12109024D01*
X11199976Y-12109024D02*
X11180929Y-12099500D01*
X11180929Y-12099500D02*
X11171405Y-12089976D01*
X11171405Y-12089976D02*
X11161881Y-12070928D01*
X11161881Y-12070928D02*
X11152357Y-12032833D01*
X11152357Y-12032833D02*
X11152357Y-11985214D01*
X11152357Y-11985214D02*
X11161881Y-11947119D01*
X11161881Y-11947119D02*
X11171405Y-11928071D01*
X11171405Y-11928071D02*
X11180929Y-11918548D01*
X11180929Y-11918548D02*
X11199976Y-11909024D01*
X11352357Y-12089976D02*
X11361881Y-12099500D01*
X11361881Y-12099500D02*
X11352357Y-12109024D01*
X11352357Y-12109024D02*
X11342833Y-12099500D01*
X11342833Y-12099500D02*
X11352357Y-12089976D01*
X11352357Y-12089976D02*
X11352357Y-12109024D01*
X11552357Y-12109024D02*
X11438072Y-12109024D01*
X11495214Y-12109024D02*
X11495214Y-11909024D01*
X11495214Y-11909024D02*
X11476167Y-11937595D01*
X11476167Y-11937595D02*
X11457119Y-11956643D01*
X11457119Y-11956643D02*
X11438072Y-11966167D01*
X11628548Y-11928071D02*
X11638072Y-11918548D01*
X11638072Y-11918548D02*
X11657119Y-11909024D01*
X11657119Y-11909024D02*
X11704738Y-11909024D01*
X11704738Y-11909024D02*
X11723786Y-11918548D01*
X11723786Y-11918548D02*
X11733310Y-11928071D01*
X11733310Y-11928071D02*
X11742833Y-11947119D01*
X11742833Y-11947119D02*
X11742833Y-11966167D01*
X11742833Y-11966167D02*
X11733310Y-11994738D01*
X11733310Y-11994738D02*
X11619024Y-12109024D01*
X11619024Y-12109024D02*
X11742833Y-12109024D01*
X11914262Y-11909024D02*
X11876167Y-11909024D01*
X11876167Y-11909024D02*
X11857119Y-11918548D01*
X11857119Y-11918548D02*
X11847595Y-11928071D01*
X11847595Y-11928071D02*
X11828548Y-11956643D01*
X11828548Y-11956643D02*
X11819024Y-11994738D01*
X11819024Y-11994738D02*
X11819024Y-12070928D01*
X11819024Y-12070928D02*
X11828548Y-12089976D01*
X11828548Y-12089976D02*
X11838072Y-12099500D01*
X11838072Y-12099500D02*
X11857119Y-12109024D01*
X11857119Y-12109024D02*
X11895214Y-12109024D01*
X11895214Y-12109024D02*
X11914262Y-12099500D01*
X11914262Y-12099500D02*
X11923786Y-12089976D01*
X11923786Y-12089976D02*
X11933310Y-12070928D01*
X11933310Y-12070928D02*
X11933310Y-12023309D01*
X11933310Y-12023309D02*
X11923786Y-12004262D01*
X11923786Y-12004262D02*
X11914262Y-11994738D01*
X11914262Y-11994738D02*
X11895214Y-11985214D01*
X11895214Y-11985214D02*
X11857119Y-11985214D01*
X11857119Y-11985214D02*
X11838072Y-11994738D01*
X11838072Y-11994738D02*
X11828548Y-12004262D01*
X11828548Y-12004262D02*
X11819024Y-12023309D01*
X12057119Y-11909024D02*
X12076167Y-11909024D01*
X12076167Y-11909024D02*
X12095214Y-11918548D01*
X12095214Y-11918548D02*
X12104738Y-11928071D01*
X12104738Y-11928071D02*
X12114262Y-11947119D01*
X12114262Y-11947119D02*
X12123786Y-11985214D01*
X12123786Y-11985214D02*
X12123786Y-12032833D01*
X12123786Y-12032833D02*
X12114262Y-12070928D01*
X12114262Y-12070928D02*
X12104738Y-12089976D01*
X12104738Y-12089976D02*
X12095214Y-12099500D01*
X12095214Y-12099500D02*
X12076167Y-12109024D01*
X12076167Y-12109024D02*
X12057119Y-12109024D01*
X12057119Y-12109024D02*
X12038072Y-12099500D01*
X12038072Y-12099500D02*
X12028548Y-12089976D01*
X12028548Y-12089976D02*
X12019024Y-12070928D01*
X12019024Y-12070928D02*
X12009500Y-12032833D01*
X12009500Y-12032833D02*
X12009500Y-11985214D01*
X12009500Y-11985214D02*
X12019024Y-11947119D01*
X12019024Y-11947119D02*
X12028548Y-11928071D01*
X12028548Y-11928071D02*
X12038072Y-11918548D01*
X12038072Y-11918548D02*
X12057119Y-11909024D01*
X12199976Y-11909024D02*
X12199976Y-11947119D01*
X12276167Y-11909024D02*
X12276167Y-11947119D01*
X12571405Y-12185214D02*
X12561881Y-12175690D01*
X12561881Y-12175690D02*
X12542834Y-12147119D01*
X12542834Y-12147119D02*
X12533310Y-12128071D01*
X12533310Y-12128071D02*
X12523786Y-12099500D01*
X12523786Y-12099500D02*
X12514262Y-12051881D01*
X12514262Y-12051881D02*
X12514262Y-12013786D01*
X12514262Y-12013786D02*
X12523786Y-11966167D01*
X12523786Y-11966167D02*
X12533310Y-11937595D01*
X12533310Y-11937595D02*
X12542834Y-11918548D01*
X12542834Y-11918548D02*
X12561881Y-11889976D01*
X12561881Y-11889976D02*
X12571405Y-11880452D01*
X12733310Y-11975690D02*
X12733310Y-12109024D01*
X12685691Y-11899500D02*
X12638072Y-12042357D01*
X12638072Y-12042357D02*
X12761881Y-12042357D01*
X12990453Y-12109024D02*
X12990453Y-11909024D01*
X13076167Y-12109024D02*
X13076167Y-12004262D01*
X13076167Y-12004262D02*
X13066643Y-11985214D01*
X13066643Y-11985214D02*
X13047596Y-11975690D01*
X13047596Y-11975690D02*
X13019024Y-11975690D01*
X13019024Y-11975690D02*
X12999976Y-11985214D01*
X12999976Y-11985214D02*
X12990453Y-11994738D01*
X13199976Y-12109024D02*
X13180929Y-12099500D01*
X13180929Y-12099500D02*
X13171405Y-12089976D01*
X13171405Y-12089976D02*
X13161881Y-12070928D01*
X13161881Y-12070928D02*
X13161881Y-12013786D01*
X13161881Y-12013786D02*
X13171405Y-11994738D01*
X13171405Y-11994738D02*
X13180929Y-11985214D01*
X13180929Y-11985214D02*
X13199976Y-11975690D01*
X13199976Y-11975690D02*
X13228548Y-11975690D01*
X13228548Y-11975690D02*
X13247596Y-11985214D01*
X13247596Y-11985214D02*
X13257119Y-11994738D01*
X13257119Y-11994738D02*
X13266643Y-12013786D01*
X13266643Y-12013786D02*
X13266643Y-12070928D01*
X13266643Y-12070928D02*
X13257119Y-12089976D01*
X13257119Y-12089976D02*
X13247596Y-12099500D01*
X13247596Y-12099500D02*
X13228548Y-12109024D01*
X13228548Y-12109024D02*
X13199976Y-12109024D01*
X13380929Y-12109024D02*
X13361881Y-12099500D01*
X13361881Y-12099500D02*
X13352357Y-12080452D01*
X13352357Y-12080452D02*
X13352357Y-11909024D01*
X13533310Y-12099500D02*
X13514262Y-12109024D01*
X13514262Y-12109024D02*
X13476167Y-12109024D01*
X13476167Y-12109024D02*
X13457119Y-12099500D01*
X13457119Y-12099500D02*
X13447596Y-12080452D01*
X13447596Y-12080452D02*
X13447596Y-12004262D01*
X13447596Y-12004262D02*
X13457119Y-11985214D01*
X13457119Y-11985214D02*
X13476167Y-11975690D01*
X13476167Y-11975690D02*
X13514262Y-11975690D01*
X13514262Y-11975690D02*
X13533310Y-11985214D01*
X13533310Y-11985214D02*
X13542834Y-12004262D01*
X13542834Y-12004262D02*
X13542834Y-12023309D01*
X13542834Y-12023309D02*
X13447596Y-12042357D01*
X13619024Y-12099500D02*
X13638072Y-12109024D01*
X13638072Y-12109024D02*
X13676167Y-12109024D01*
X13676167Y-12109024D02*
X13695215Y-12099500D01*
X13695215Y-12099500D02*
X13704738Y-12080452D01*
X13704738Y-12080452D02*
X13704738Y-12070928D01*
X13704738Y-12070928D02*
X13695215Y-12051881D01*
X13695215Y-12051881D02*
X13676167Y-12042357D01*
X13676167Y-12042357D02*
X13647596Y-12042357D01*
X13647596Y-12042357D02*
X13628548Y-12032833D01*
X13628548Y-12032833D02*
X13619024Y-12013786D01*
X13619024Y-12013786D02*
X13619024Y-12004262D01*
X13619024Y-12004262D02*
X13628548Y-11985214D01*
X13628548Y-11985214D02*
X13647596Y-11975690D01*
X13647596Y-11975690D02*
X13676167Y-11975690D01*
X13676167Y-11975690D02*
X13695215Y-11985214D01*
X13771405Y-12185214D02*
X13780929Y-12175690D01*
X13780929Y-12175690D02*
X13799977Y-12147119D01*
X13799977Y-12147119D02*
X13809500Y-12128071D01*
X13809500Y-12128071D02*
X13819024Y-12099500D01*
X13819024Y-12099500D02*
X13828548Y-12051881D01*
X13828548Y-12051881D02*
X13828548Y-12013786D01*
X13828548Y-12013786D02*
X13819024Y-11966167D01*
X13819024Y-11966167D02*
X13809500Y-11937595D01*
X13809500Y-11937595D02*
X13799977Y-11918548D01*
X13799977Y-11918548D02*
X13780929Y-11889976D01*
X13780929Y-11889976D02*
X13771405Y-11880452D01*
X14133310Y-12185214D02*
X14123786Y-12175690D01*
X14123786Y-12175690D02*
X14104738Y-12147119D01*
X14104738Y-12147119D02*
X14095215Y-12128071D01*
X14095215Y-12128071D02*
X14085691Y-12099500D01*
X14085691Y-12099500D02*
X14076167Y-12051881D01*
X14076167Y-12051881D02*
X14076167Y-12013786D01*
X14076167Y-12013786D02*
X14085691Y-11966167D01*
X14085691Y-11966167D02*
X14095215Y-11937595D01*
X14095215Y-11937595D02*
X14104738Y-11918548D01*
X14104738Y-11918548D02*
X14123786Y-11889976D01*
X14123786Y-11889976D02*
X14133310Y-11880452D01*
X14209500Y-11975690D02*
X14209500Y-12109024D01*
X14209500Y-11994738D02*
X14219024Y-11985214D01*
X14219024Y-11985214D02*
X14238072Y-11975690D01*
X14238072Y-11975690D02*
X14266643Y-11975690D01*
X14266643Y-11975690D02*
X14285691Y-11985214D01*
X14285691Y-11985214D02*
X14295215Y-12004262D01*
X14295215Y-12004262D02*
X14295215Y-12109024D01*
X14419024Y-12109024D02*
X14399977Y-12099500D01*
X14399977Y-12099500D02*
X14390453Y-12089976D01*
X14390453Y-12089976D02*
X14380929Y-12070928D01*
X14380929Y-12070928D02*
X14380929Y-12013786D01*
X14380929Y-12013786D02*
X14390453Y-11994738D01*
X14390453Y-11994738D02*
X14399977Y-11985214D01*
X14399977Y-11985214D02*
X14419024Y-11975690D01*
X14419024Y-11975690D02*
X14447596Y-11975690D01*
X14447596Y-11975690D02*
X14466643Y-11985214D01*
X14466643Y-11985214D02*
X14476167Y-11994738D01*
X14476167Y-11994738D02*
X14485691Y-12013786D01*
X14485691Y-12013786D02*
X14485691Y-12070928D01*
X14485691Y-12070928D02*
X14476167Y-12089976D01*
X14476167Y-12089976D02*
X14466643Y-12099500D01*
X14466643Y-12099500D02*
X14447596Y-12109024D01*
X14447596Y-12109024D02*
X14419024Y-12109024D01*
X14542834Y-11975690D02*
X14619024Y-11975690D01*
X14571405Y-11909024D02*
X14571405Y-12080452D01*
X14571405Y-12080452D02*
X14580929Y-12099500D01*
X14580929Y-12099500D02*
X14599977Y-12109024D01*
X14599977Y-12109024D02*
X14619024Y-12109024D01*
X14838072Y-11975690D02*
X14838072Y-12175690D01*
X14838072Y-11985214D02*
X14857119Y-11975690D01*
X14857119Y-11975690D02*
X14895215Y-11975690D01*
X14895215Y-11975690D02*
X14914262Y-11985214D01*
X14914262Y-11985214D02*
X14923786Y-11994738D01*
X14923786Y-11994738D02*
X14933310Y-12013786D01*
X14933310Y-12013786D02*
X14933310Y-12070928D01*
X14933310Y-12070928D02*
X14923786Y-12089976D01*
X14923786Y-12089976D02*
X14914262Y-12099500D01*
X14914262Y-12099500D02*
X14895215Y-12109024D01*
X14895215Y-12109024D02*
X14857119Y-12109024D01*
X14857119Y-12109024D02*
X14838072Y-12099500D01*
X15047596Y-12109024D02*
X15028548Y-12099500D01*
X15028548Y-12099500D02*
X15019024Y-12080452D01*
X15019024Y-12080452D02*
X15019024Y-11909024D01*
X15209500Y-12109024D02*
X15209500Y-12004262D01*
X15209500Y-12004262D02*
X15199977Y-11985214D01*
X15199977Y-11985214D02*
X15180929Y-11975690D01*
X15180929Y-11975690D02*
X15142834Y-11975690D01*
X15142834Y-11975690D02*
X15123786Y-11985214D01*
X15209500Y-12099500D02*
X15190453Y-12109024D01*
X15190453Y-12109024D02*
X15142834Y-12109024D01*
X15142834Y-12109024D02*
X15123786Y-12099500D01*
X15123786Y-12099500D02*
X15114262Y-12080452D01*
X15114262Y-12080452D02*
X15114262Y-12061405D01*
X15114262Y-12061405D02*
X15123786Y-12042357D01*
X15123786Y-12042357D02*
X15142834Y-12032833D01*
X15142834Y-12032833D02*
X15190453Y-12032833D01*
X15190453Y-12032833D02*
X15209500Y-12023309D01*
X15276167Y-11975690D02*
X15352358Y-11975690D01*
X15304739Y-11909024D02*
X15304739Y-12080452D01*
X15304739Y-12080452D02*
X15314262Y-12099500D01*
X15314262Y-12099500D02*
X15333310Y-12109024D01*
X15333310Y-12109024D02*
X15352358Y-12109024D01*
X15495215Y-12099500D02*
X15476167Y-12109024D01*
X15476167Y-12109024D02*
X15438072Y-12109024D01*
X15438072Y-12109024D02*
X15419024Y-12099500D01*
X15419024Y-12099500D02*
X15409500Y-12080452D01*
X15409500Y-12080452D02*
X15409500Y-12004262D01*
X15409500Y-12004262D02*
X15419024Y-11985214D01*
X15419024Y-11985214D02*
X15438072Y-11975690D01*
X15438072Y-11975690D02*
X15476167Y-11975690D01*
X15476167Y-11975690D02*
X15495215Y-11985214D01*
X15495215Y-11985214D02*
X15504739Y-12004262D01*
X15504739Y-12004262D02*
X15504739Y-12023309D01*
X15504739Y-12023309D02*
X15409500Y-12042357D01*
X15676167Y-12109024D02*
X15676167Y-11909024D01*
X15676167Y-12099500D02*
X15657120Y-12109024D01*
X15657120Y-12109024D02*
X15619024Y-12109024D01*
X15619024Y-12109024D02*
X15599977Y-12099500D01*
X15599977Y-12099500D02*
X15590453Y-12089976D01*
X15590453Y-12089976D02*
X15580929Y-12070928D01*
X15580929Y-12070928D02*
X15580929Y-12013786D01*
X15580929Y-12013786D02*
X15590453Y-11994738D01*
X15590453Y-11994738D02*
X15599977Y-11985214D01*
X15599977Y-11985214D02*
X15619024Y-11975690D01*
X15619024Y-11975690D02*
X15657120Y-11975690D01*
X15657120Y-11975690D02*
X15676167Y-11985214D01*
X15752358Y-12185214D02*
X15761881Y-12175690D01*
X15761881Y-12175690D02*
X15780929Y-12147119D01*
X15780929Y-12147119D02*
X15790453Y-12128071D01*
X15790453Y-12128071D02*
X15799977Y-12099500D01*
X15799977Y-12099500D02*
X15809500Y-12051881D01*
X15809500Y-12051881D02*
X15809500Y-12013786D01*
X15809500Y-12013786D02*
X15799977Y-11966167D01*
X15799977Y-11966167D02*
X15790453Y-11937595D01*
X15790453Y-11937595D02*
X15780929Y-11918548D01*
X15780929Y-11918548D02*
X15761881Y-11889976D01*
X15761881Y-11889976D02*
X15752358Y-11880452D01*
M02*
