%TF.GenerationSoftware,KiCad,Pcbnew,7.0.1*%
%TF.CreationDate,2024-03-21T11:39:16+08:00*%
%TF.ProjectId,chupico_openithm,63687570-6963-46f5-9f6f-70656e697468,rev?*%
%TF.SameCoordinates,Original*%
%TF.FileFunction,Drillmap*%
%TF.FilePolarity,Positive*%
%FSLAX45Y45*%
G04 Gerber Fmt 4.5, Leading zero omitted, Abs format (unit mm)*
G04 Created by KiCad (PCBNEW 7.0.1) date 2024-03-21 11:39:16*
%MOMM*%
%LPD*%
G01*
G04 APERTURE LIST*
%ADD10C,0.150000*%
%ADD11C,0.200000*%
%ADD12C,0.210000*%
%ADD13C,0.320000*%
G04 APERTURE END LIST*
D10*
X9020000Y-6070000D02*
X9022000Y-11049000D01*
X19022000Y-11049000D02*
X19020000Y-6070000D01*
X14017000Y-5540600D02*
X9020000Y-6070000D01*
X9022000Y-11049000D02*
X19022000Y-11049000D01*
X14017000Y-5540600D02*
X19020000Y-6070000D01*
D11*
D12*
X13336000Y-5853850D02*
X13546000Y-6063850D01*
X13546000Y-5853850D02*
X13336000Y-6063850D01*
X13336000Y-10553850D02*
X13546000Y-10763850D01*
X13546000Y-10553850D02*
X13336000Y-10763850D01*
X14476000Y-5853850D02*
X14686000Y-6063850D01*
X14686000Y-5853850D02*
X14476000Y-6063850D01*
X14476000Y-10553850D02*
X14686000Y-10763850D01*
X14686000Y-10553850D02*
X14476000Y-10763850D01*
D13*
X9472000Y-6350600D02*
G75*
G03*
X9472000Y-6350600I-160000J0D01*
G01*
X9472000Y-10756900D02*
G75*
G03*
X9472000Y-10756900I-160000J0D01*
G01*
X18870000Y-6350600D02*
G75*
G03*
X18870000Y-6350600I-160000J0D01*
G01*
X18870000Y-10756900D02*
G75*
G03*
X18870000Y-10756900I-160000J0D01*
G01*
D11*
X9260119Y-11369024D02*
X9260119Y-11169024D01*
X9260119Y-11169024D02*
X9307738Y-11169024D01*
X9307738Y-11169024D02*
X9336310Y-11178548D01*
X9336310Y-11178548D02*
X9355357Y-11197595D01*
X9355357Y-11197595D02*
X9364881Y-11216643D01*
X9364881Y-11216643D02*
X9374405Y-11254738D01*
X9374405Y-11254738D02*
X9374405Y-11283309D01*
X9374405Y-11283309D02*
X9364881Y-11321405D01*
X9364881Y-11321405D02*
X9355357Y-11340452D01*
X9355357Y-11340452D02*
X9336310Y-11359500D01*
X9336310Y-11359500D02*
X9307738Y-11369024D01*
X9307738Y-11369024D02*
X9260119Y-11369024D01*
X9460119Y-11369024D02*
X9460119Y-11235690D01*
X9460119Y-11273786D02*
X9469643Y-11254738D01*
X9469643Y-11254738D02*
X9479167Y-11245214D01*
X9479167Y-11245214D02*
X9498214Y-11235690D01*
X9498214Y-11235690D02*
X9517262Y-11235690D01*
X9583929Y-11369024D02*
X9583929Y-11235690D01*
X9583929Y-11169024D02*
X9574405Y-11178548D01*
X9574405Y-11178548D02*
X9583929Y-11188071D01*
X9583929Y-11188071D02*
X9593452Y-11178548D01*
X9593452Y-11178548D02*
X9583929Y-11169024D01*
X9583929Y-11169024D02*
X9583929Y-11188071D01*
X9707738Y-11369024D02*
X9688690Y-11359500D01*
X9688690Y-11359500D02*
X9679167Y-11340452D01*
X9679167Y-11340452D02*
X9679167Y-11169024D01*
X9812500Y-11369024D02*
X9793452Y-11359500D01*
X9793452Y-11359500D02*
X9783929Y-11340452D01*
X9783929Y-11340452D02*
X9783929Y-11169024D01*
X10041071Y-11369024D02*
X10041071Y-11169024D01*
X10041071Y-11169024D02*
X10107738Y-11311881D01*
X10107738Y-11311881D02*
X10174405Y-11169024D01*
X10174405Y-11169024D02*
X10174405Y-11369024D01*
X10355357Y-11369024D02*
X10355357Y-11264262D01*
X10355357Y-11264262D02*
X10345833Y-11245214D01*
X10345833Y-11245214D02*
X10326786Y-11235690D01*
X10326786Y-11235690D02*
X10288690Y-11235690D01*
X10288690Y-11235690D02*
X10269643Y-11245214D01*
X10355357Y-11359500D02*
X10336310Y-11369024D01*
X10336310Y-11369024D02*
X10288690Y-11369024D01*
X10288690Y-11369024D02*
X10269643Y-11359500D01*
X10269643Y-11359500D02*
X10260119Y-11340452D01*
X10260119Y-11340452D02*
X10260119Y-11321405D01*
X10260119Y-11321405D02*
X10269643Y-11302357D01*
X10269643Y-11302357D02*
X10288690Y-11292833D01*
X10288690Y-11292833D02*
X10336310Y-11292833D01*
X10336310Y-11292833D02*
X10355357Y-11283309D01*
X10450595Y-11235690D02*
X10450595Y-11435690D01*
X10450595Y-11245214D02*
X10469643Y-11235690D01*
X10469643Y-11235690D02*
X10507738Y-11235690D01*
X10507738Y-11235690D02*
X10526786Y-11245214D01*
X10526786Y-11245214D02*
X10536310Y-11254738D01*
X10536310Y-11254738D02*
X10545833Y-11273786D01*
X10545833Y-11273786D02*
X10545833Y-11330928D01*
X10545833Y-11330928D02*
X10536310Y-11349976D01*
X10536310Y-11349976D02*
X10526786Y-11359500D01*
X10526786Y-11359500D02*
X10507738Y-11369024D01*
X10507738Y-11369024D02*
X10469643Y-11369024D01*
X10469643Y-11369024D02*
X10450595Y-11359500D01*
X10631548Y-11349976D02*
X10641071Y-11359500D01*
X10641071Y-11359500D02*
X10631548Y-11369024D01*
X10631548Y-11369024D02*
X10622024Y-11359500D01*
X10622024Y-11359500D02*
X10631548Y-11349976D01*
X10631548Y-11349976D02*
X10631548Y-11369024D01*
X10631548Y-11245214D02*
X10641071Y-11254738D01*
X10641071Y-11254738D02*
X10631548Y-11264262D01*
X10631548Y-11264262D02*
X10622024Y-11254738D01*
X10622024Y-11254738D02*
X10631548Y-11245214D01*
X10631548Y-11245214D02*
X10631548Y-11264262D01*
X8812500Y-11596500D02*
X9012500Y-11796500D01*
X9012500Y-11596500D02*
X8812500Y-11796500D01*
X9250595Y-11608071D02*
X9260119Y-11598548D01*
X9260119Y-11598548D02*
X9279167Y-11589024D01*
X9279167Y-11589024D02*
X9326786Y-11589024D01*
X9326786Y-11589024D02*
X9345833Y-11598548D01*
X9345833Y-11598548D02*
X9355357Y-11608071D01*
X9355357Y-11608071D02*
X9364881Y-11627119D01*
X9364881Y-11627119D02*
X9364881Y-11646167D01*
X9364881Y-11646167D02*
X9355357Y-11674738D01*
X9355357Y-11674738D02*
X9241071Y-11789024D01*
X9241071Y-11789024D02*
X9364881Y-11789024D01*
X9450595Y-11769976D02*
X9460119Y-11779500D01*
X9460119Y-11779500D02*
X9450595Y-11789024D01*
X9450595Y-11789024D02*
X9441071Y-11779500D01*
X9441071Y-11779500D02*
X9450595Y-11769976D01*
X9450595Y-11769976D02*
X9450595Y-11789024D01*
X9650595Y-11789024D02*
X9536310Y-11789024D01*
X9593452Y-11789024D02*
X9593452Y-11589024D01*
X9593452Y-11589024D02*
X9574405Y-11617595D01*
X9574405Y-11617595D02*
X9555357Y-11636643D01*
X9555357Y-11636643D02*
X9536310Y-11646167D01*
X9774405Y-11589024D02*
X9793452Y-11589024D01*
X9793452Y-11589024D02*
X9812500Y-11598548D01*
X9812500Y-11598548D02*
X9822024Y-11608071D01*
X9822024Y-11608071D02*
X9831548Y-11627119D01*
X9831548Y-11627119D02*
X9841071Y-11665214D01*
X9841071Y-11665214D02*
X9841071Y-11712833D01*
X9841071Y-11712833D02*
X9831548Y-11750928D01*
X9831548Y-11750928D02*
X9822024Y-11769976D01*
X9822024Y-11769976D02*
X9812500Y-11779500D01*
X9812500Y-11779500D02*
X9793452Y-11789024D01*
X9793452Y-11789024D02*
X9774405Y-11789024D01*
X9774405Y-11789024D02*
X9755357Y-11779500D01*
X9755357Y-11779500D02*
X9745833Y-11769976D01*
X9745833Y-11769976D02*
X9736310Y-11750928D01*
X9736310Y-11750928D02*
X9726786Y-11712833D01*
X9726786Y-11712833D02*
X9726786Y-11665214D01*
X9726786Y-11665214D02*
X9736310Y-11627119D01*
X9736310Y-11627119D02*
X9745833Y-11608071D01*
X9745833Y-11608071D02*
X9755357Y-11598548D01*
X9755357Y-11598548D02*
X9774405Y-11589024D01*
X9964881Y-11589024D02*
X9983929Y-11589024D01*
X9983929Y-11589024D02*
X10002976Y-11598548D01*
X10002976Y-11598548D02*
X10012500Y-11608071D01*
X10012500Y-11608071D02*
X10022024Y-11627119D01*
X10022024Y-11627119D02*
X10031548Y-11665214D01*
X10031548Y-11665214D02*
X10031548Y-11712833D01*
X10031548Y-11712833D02*
X10022024Y-11750928D01*
X10022024Y-11750928D02*
X10012500Y-11769976D01*
X10012500Y-11769976D02*
X10002976Y-11779500D01*
X10002976Y-11779500D02*
X9983929Y-11789024D01*
X9983929Y-11789024D02*
X9964881Y-11789024D01*
X9964881Y-11789024D02*
X9945833Y-11779500D01*
X9945833Y-11779500D02*
X9936310Y-11769976D01*
X9936310Y-11769976D02*
X9926786Y-11750928D01*
X9926786Y-11750928D02*
X9917262Y-11712833D01*
X9917262Y-11712833D02*
X9917262Y-11665214D01*
X9917262Y-11665214D02*
X9926786Y-11627119D01*
X9926786Y-11627119D02*
X9936310Y-11608071D01*
X9936310Y-11608071D02*
X9945833Y-11598548D01*
X9945833Y-11598548D02*
X9964881Y-11589024D01*
X10117262Y-11789024D02*
X10117262Y-11655690D01*
X10117262Y-11674738D02*
X10126786Y-11665214D01*
X10126786Y-11665214D02*
X10145833Y-11655690D01*
X10145833Y-11655690D02*
X10174405Y-11655690D01*
X10174405Y-11655690D02*
X10193452Y-11665214D01*
X10193452Y-11665214D02*
X10202976Y-11684262D01*
X10202976Y-11684262D02*
X10202976Y-11789024D01*
X10202976Y-11684262D02*
X10212500Y-11665214D01*
X10212500Y-11665214D02*
X10231548Y-11655690D01*
X10231548Y-11655690D02*
X10260119Y-11655690D01*
X10260119Y-11655690D02*
X10279167Y-11665214D01*
X10279167Y-11665214D02*
X10288691Y-11684262D01*
X10288691Y-11684262D02*
X10288691Y-11789024D01*
X10383929Y-11789024D02*
X10383929Y-11655690D01*
X10383929Y-11674738D02*
X10393452Y-11665214D01*
X10393452Y-11665214D02*
X10412500Y-11655690D01*
X10412500Y-11655690D02*
X10441072Y-11655690D01*
X10441072Y-11655690D02*
X10460119Y-11665214D01*
X10460119Y-11665214D02*
X10469643Y-11684262D01*
X10469643Y-11684262D02*
X10469643Y-11789024D01*
X10469643Y-11684262D02*
X10479167Y-11665214D01*
X10479167Y-11665214D02*
X10498214Y-11655690D01*
X10498214Y-11655690D02*
X10526786Y-11655690D01*
X10526786Y-11655690D02*
X10545833Y-11665214D01*
X10545833Y-11665214D02*
X10555357Y-11684262D01*
X10555357Y-11684262D02*
X10555357Y-11789024D01*
X10945833Y-11579500D02*
X10774405Y-11836643D01*
X11202976Y-11589024D02*
X11222024Y-11589024D01*
X11222024Y-11589024D02*
X11241072Y-11598548D01*
X11241072Y-11598548D02*
X11250595Y-11608071D01*
X11250595Y-11608071D02*
X11260119Y-11627119D01*
X11260119Y-11627119D02*
X11269643Y-11665214D01*
X11269643Y-11665214D02*
X11269643Y-11712833D01*
X11269643Y-11712833D02*
X11260119Y-11750928D01*
X11260119Y-11750928D02*
X11250595Y-11769976D01*
X11250595Y-11769976D02*
X11241072Y-11779500D01*
X11241072Y-11779500D02*
X11222024Y-11789024D01*
X11222024Y-11789024D02*
X11202976Y-11789024D01*
X11202976Y-11789024D02*
X11183929Y-11779500D01*
X11183929Y-11779500D02*
X11174405Y-11769976D01*
X11174405Y-11769976D02*
X11164881Y-11750928D01*
X11164881Y-11750928D02*
X11155357Y-11712833D01*
X11155357Y-11712833D02*
X11155357Y-11665214D01*
X11155357Y-11665214D02*
X11164881Y-11627119D01*
X11164881Y-11627119D02*
X11174405Y-11608071D01*
X11174405Y-11608071D02*
X11183929Y-11598548D01*
X11183929Y-11598548D02*
X11202976Y-11589024D01*
X11355357Y-11769976D02*
X11364881Y-11779500D01*
X11364881Y-11779500D02*
X11355357Y-11789024D01*
X11355357Y-11789024D02*
X11345833Y-11779500D01*
X11345833Y-11779500D02*
X11355357Y-11769976D01*
X11355357Y-11769976D02*
X11355357Y-11789024D01*
X11488691Y-11589024D02*
X11507738Y-11589024D01*
X11507738Y-11589024D02*
X11526786Y-11598548D01*
X11526786Y-11598548D02*
X11536310Y-11608071D01*
X11536310Y-11608071D02*
X11545833Y-11627119D01*
X11545833Y-11627119D02*
X11555357Y-11665214D01*
X11555357Y-11665214D02*
X11555357Y-11712833D01*
X11555357Y-11712833D02*
X11545833Y-11750928D01*
X11545833Y-11750928D02*
X11536310Y-11769976D01*
X11536310Y-11769976D02*
X11526786Y-11779500D01*
X11526786Y-11779500D02*
X11507738Y-11789024D01*
X11507738Y-11789024D02*
X11488691Y-11789024D01*
X11488691Y-11789024D02*
X11469643Y-11779500D01*
X11469643Y-11779500D02*
X11460119Y-11769976D01*
X11460119Y-11769976D02*
X11450595Y-11750928D01*
X11450595Y-11750928D02*
X11441072Y-11712833D01*
X11441072Y-11712833D02*
X11441072Y-11665214D01*
X11441072Y-11665214D02*
X11450595Y-11627119D01*
X11450595Y-11627119D02*
X11460119Y-11608071D01*
X11460119Y-11608071D02*
X11469643Y-11598548D01*
X11469643Y-11598548D02*
X11488691Y-11589024D01*
X11669643Y-11674738D02*
X11650595Y-11665214D01*
X11650595Y-11665214D02*
X11641072Y-11655690D01*
X11641072Y-11655690D02*
X11631548Y-11636643D01*
X11631548Y-11636643D02*
X11631548Y-11627119D01*
X11631548Y-11627119D02*
X11641072Y-11608071D01*
X11641072Y-11608071D02*
X11650595Y-11598548D01*
X11650595Y-11598548D02*
X11669643Y-11589024D01*
X11669643Y-11589024D02*
X11707738Y-11589024D01*
X11707738Y-11589024D02*
X11726786Y-11598548D01*
X11726786Y-11598548D02*
X11736310Y-11608071D01*
X11736310Y-11608071D02*
X11745833Y-11627119D01*
X11745833Y-11627119D02*
X11745833Y-11636643D01*
X11745833Y-11636643D02*
X11736310Y-11655690D01*
X11736310Y-11655690D02*
X11726786Y-11665214D01*
X11726786Y-11665214D02*
X11707738Y-11674738D01*
X11707738Y-11674738D02*
X11669643Y-11674738D01*
X11669643Y-11674738D02*
X11650595Y-11684262D01*
X11650595Y-11684262D02*
X11641072Y-11693786D01*
X11641072Y-11693786D02*
X11631548Y-11712833D01*
X11631548Y-11712833D02*
X11631548Y-11750928D01*
X11631548Y-11750928D02*
X11641072Y-11769976D01*
X11641072Y-11769976D02*
X11650595Y-11779500D01*
X11650595Y-11779500D02*
X11669643Y-11789024D01*
X11669643Y-11789024D02*
X11707738Y-11789024D01*
X11707738Y-11789024D02*
X11726786Y-11779500D01*
X11726786Y-11779500D02*
X11736310Y-11769976D01*
X11736310Y-11769976D02*
X11745833Y-11750928D01*
X11745833Y-11750928D02*
X11745833Y-11712833D01*
X11745833Y-11712833D02*
X11736310Y-11693786D01*
X11736310Y-11693786D02*
X11726786Y-11684262D01*
X11726786Y-11684262D02*
X11707738Y-11674738D01*
X11822024Y-11608071D02*
X11831548Y-11598548D01*
X11831548Y-11598548D02*
X11850595Y-11589024D01*
X11850595Y-11589024D02*
X11898214Y-11589024D01*
X11898214Y-11589024D02*
X11917262Y-11598548D01*
X11917262Y-11598548D02*
X11926786Y-11608071D01*
X11926786Y-11608071D02*
X11936310Y-11627119D01*
X11936310Y-11627119D02*
X11936310Y-11646167D01*
X11936310Y-11646167D02*
X11926786Y-11674738D01*
X11926786Y-11674738D02*
X11812500Y-11789024D01*
X11812500Y-11789024D02*
X11936310Y-11789024D01*
X12002976Y-11589024D02*
X12136310Y-11589024D01*
X12136310Y-11589024D02*
X12050595Y-11789024D01*
X12202976Y-11589024D02*
X12202976Y-11627119D01*
X12279167Y-11589024D02*
X12279167Y-11627119D01*
X12574405Y-11865214D02*
X12564881Y-11855690D01*
X12564881Y-11855690D02*
X12545834Y-11827119D01*
X12545834Y-11827119D02*
X12536310Y-11808071D01*
X12536310Y-11808071D02*
X12526786Y-11779500D01*
X12526786Y-11779500D02*
X12517262Y-11731881D01*
X12517262Y-11731881D02*
X12517262Y-11693786D01*
X12517262Y-11693786D02*
X12526786Y-11646167D01*
X12526786Y-11646167D02*
X12536310Y-11617595D01*
X12536310Y-11617595D02*
X12545834Y-11598548D01*
X12545834Y-11598548D02*
X12564881Y-11569976D01*
X12564881Y-11569976D02*
X12574405Y-11560452D01*
X12736310Y-11655690D02*
X12736310Y-11789024D01*
X12688691Y-11579500D02*
X12641072Y-11722357D01*
X12641072Y-11722357D02*
X12764881Y-11722357D01*
X12993453Y-11789024D02*
X12993453Y-11589024D01*
X13079167Y-11789024D02*
X13079167Y-11684262D01*
X13079167Y-11684262D02*
X13069643Y-11665214D01*
X13069643Y-11665214D02*
X13050596Y-11655690D01*
X13050596Y-11655690D02*
X13022024Y-11655690D01*
X13022024Y-11655690D02*
X13002976Y-11665214D01*
X13002976Y-11665214D02*
X12993453Y-11674738D01*
X13202976Y-11789024D02*
X13183929Y-11779500D01*
X13183929Y-11779500D02*
X13174405Y-11769976D01*
X13174405Y-11769976D02*
X13164881Y-11750928D01*
X13164881Y-11750928D02*
X13164881Y-11693786D01*
X13164881Y-11693786D02*
X13174405Y-11674738D01*
X13174405Y-11674738D02*
X13183929Y-11665214D01*
X13183929Y-11665214D02*
X13202976Y-11655690D01*
X13202976Y-11655690D02*
X13231548Y-11655690D01*
X13231548Y-11655690D02*
X13250596Y-11665214D01*
X13250596Y-11665214D02*
X13260119Y-11674738D01*
X13260119Y-11674738D02*
X13269643Y-11693786D01*
X13269643Y-11693786D02*
X13269643Y-11750928D01*
X13269643Y-11750928D02*
X13260119Y-11769976D01*
X13260119Y-11769976D02*
X13250596Y-11779500D01*
X13250596Y-11779500D02*
X13231548Y-11789024D01*
X13231548Y-11789024D02*
X13202976Y-11789024D01*
X13383929Y-11789024D02*
X13364881Y-11779500D01*
X13364881Y-11779500D02*
X13355357Y-11760452D01*
X13355357Y-11760452D02*
X13355357Y-11589024D01*
X13536310Y-11779500D02*
X13517262Y-11789024D01*
X13517262Y-11789024D02*
X13479167Y-11789024D01*
X13479167Y-11789024D02*
X13460119Y-11779500D01*
X13460119Y-11779500D02*
X13450596Y-11760452D01*
X13450596Y-11760452D02*
X13450596Y-11684262D01*
X13450596Y-11684262D02*
X13460119Y-11665214D01*
X13460119Y-11665214D02*
X13479167Y-11655690D01*
X13479167Y-11655690D02*
X13517262Y-11655690D01*
X13517262Y-11655690D02*
X13536310Y-11665214D01*
X13536310Y-11665214D02*
X13545834Y-11684262D01*
X13545834Y-11684262D02*
X13545834Y-11703309D01*
X13545834Y-11703309D02*
X13450596Y-11722357D01*
X13622024Y-11779500D02*
X13641072Y-11789024D01*
X13641072Y-11789024D02*
X13679167Y-11789024D01*
X13679167Y-11789024D02*
X13698215Y-11779500D01*
X13698215Y-11779500D02*
X13707738Y-11760452D01*
X13707738Y-11760452D02*
X13707738Y-11750928D01*
X13707738Y-11750928D02*
X13698215Y-11731881D01*
X13698215Y-11731881D02*
X13679167Y-11722357D01*
X13679167Y-11722357D02*
X13650596Y-11722357D01*
X13650596Y-11722357D02*
X13631548Y-11712833D01*
X13631548Y-11712833D02*
X13622024Y-11693786D01*
X13622024Y-11693786D02*
X13622024Y-11684262D01*
X13622024Y-11684262D02*
X13631548Y-11665214D01*
X13631548Y-11665214D02*
X13650596Y-11655690D01*
X13650596Y-11655690D02*
X13679167Y-11655690D01*
X13679167Y-11655690D02*
X13698215Y-11665214D01*
X13774405Y-11865214D02*
X13783929Y-11855690D01*
X13783929Y-11855690D02*
X13802977Y-11827119D01*
X13802977Y-11827119D02*
X13812500Y-11808071D01*
X13812500Y-11808071D02*
X13822024Y-11779500D01*
X13822024Y-11779500D02*
X13831548Y-11731881D01*
X13831548Y-11731881D02*
X13831548Y-11693786D01*
X13831548Y-11693786D02*
X13822024Y-11646167D01*
X13822024Y-11646167D02*
X13812500Y-11617595D01*
X13812500Y-11617595D02*
X13802977Y-11598548D01*
X13802977Y-11598548D02*
X13783929Y-11569976D01*
X13783929Y-11569976D02*
X13774405Y-11560452D01*
X14136310Y-11865214D02*
X14126786Y-11855690D01*
X14126786Y-11855690D02*
X14107738Y-11827119D01*
X14107738Y-11827119D02*
X14098215Y-11808071D01*
X14098215Y-11808071D02*
X14088691Y-11779500D01*
X14088691Y-11779500D02*
X14079167Y-11731881D01*
X14079167Y-11731881D02*
X14079167Y-11693786D01*
X14079167Y-11693786D02*
X14088691Y-11646167D01*
X14088691Y-11646167D02*
X14098215Y-11617595D01*
X14098215Y-11617595D02*
X14107738Y-11598548D01*
X14107738Y-11598548D02*
X14126786Y-11569976D01*
X14126786Y-11569976D02*
X14136310Y-11560452D01*
X14212500Y-11655690D02*
X14212500Y-11789024D01*
X14212500Y-11674738D02*
X14222024Y-11665214D01*
X14222024Y-11665214D02*
X14241072Y-11655690D01*
X14241072Y-11655690D02*
X14269643Y-11655690D01*
X14269643Y-11655690D02*
X14288691Y-11665214D01*
X14288691Y-11665214D02*
X14298215Y-11684262D01*
X14298215Y-11684262D02*
X14298215Y-11789024D01*
X14422024Y-11789024D02*
X14402977Y-11779500D01*
X14402977Y-11779500D02*
X14393453Y-11769976D01*
X14393453Y-11769976D02*
X14383929Y-11750928D01*
X14383929Y-11750928D02*
X14383929Y-11693786D01*
X14383929Y-11693786D02*
X14393453Y-11674738D01*
X14393453Y-11674738D02*
X14402977Y-11665214D01*
X14402977Y-11665214D02*
X14422024Y-11655690D01*
X14422024Y-11655690D02*
X14450596Y-11655690D01*
X14450596Y-11655690D02*
X14469643Y-11665214D01*
X14469643Y-11665214D02*
X14479167Y-11674738D01*
X14479167Y-11674738D02*
X14488691Y-11693786D01*
X14488691Y-11693786D02*
X14488691Y-11750928D01*
X14488691Y-11750928D02*
X14479167Y-11769976D01*
X14479167Y-11769976D02*
X14469643Y-11779500D01*
X14469643Y-11779500D02*
X14450596Y-11789024D01*
X14450596Y-11789024D02*
X14422024Y-11789024D01*
X14545834Y-11655690D02*
X14622024Y-11655690D01*
X14574405Y-11589024D02*
X14574405Y-11760452D01*
X14574405Y-11760452D02*
X14583929Y-11779500D01*
X14583929Y-11779500D02*
X14602977Y-11789024D01*
X14602977Y-11789024D02*
X14622024Y-11789024D01*
X14841072Y-11655690D02*
X14841072Y-11855690D01*
X14841072Y-11665214D02*
X14860119Y-11655690D01*
X14860119Y-11655690D02*
X14898215Y-11655690D01*
X14898215Y-11655690D02*
X14917262Y-11665214D01*
X14917262Y-11665214D02*
X14926786Y-11674738D01*
X14926786Y-11674738D02*
X14936310Y-11693786D01*
X14936310Y-11693786D02*
X14936310Y-11750928D01*
X14936310Y-11750928D02*
X14926786Y-11769976D01*
X14926786Y-11769976D02*
X14917262Y-11779500D01*
X14917262Y-11779500D02*
X14898215Y-11789024D01*
X14898215Y-11789024D02*
X14860119Y-11789024D01*
X14860119Y-11789024D02*
X14841072Y-11779500D01*
X15050596Y-11789024D02*
X15031548Y-11779500D01*
X15031548Y-11779500D02*
X15022024Y-11760452D01*
X15022024Y-11760452D02*
X15022024Y-11589024D01*
X15212500Y-11789024D02*
X15212500Y-11684262D01*
X15212500Y-11684262D02*
X15202977Y-11665214D01*
X15202977Y-11665214D02*
X15183929Y-11655690D01*
X15183929Y-11655690D02*
X15145834Y-11655690D01*
X15145834Y-11655690D02*
X15126786Y-11665214D01*
X15212500Y-11779500D02*
X15193453Y-11789024D01*
X15193453Y-11789024D02*
X15145834Y-11789024D01*
X15145834Y-11789024D02*
X15126786Y-11779500D01*
X15126786Y-11779500D02*
X15117262Y-11760452D01*
X15117262Y-11760452D02*
X15117262Y-11741405D01*
X15117262Y-11741405D02*
X15126786Y-11722357D01*
X15126786Y-11722357D02*
X15145834Y-11712833D01*
X15145834Y-11712833D02*
X15193453Y-11712833D01*
X15193453Y-11712833D02*
X15212500Y-11703309D01*
X15279167Y-11655690D02*
X15355358Y-11655690D01*
X15307739Y-11589024D02*
X15307739Y-11760452D01*
X15307739Y-11760452D02*
X15317262Y-11779500D01*
X15317262Y-11779500D02*
X15336310Y-11789024D01*
X15336310Y-11789024D02*
X15355358Y-11789024D01*
X15498215Y-11779500D02*
X15479167Y-11789024D01*
X15479167Y-11789024D02*
X15441072Y-11789024D01*
X15441072Y-11789024D02*
X15422024Y-11779500D01*
X15422024Y-11779500D02*
X15412500Y-11760452D01*
X15412500Y-11760452D02*
X15412500Y-11684262D01*
X15412500Y-11684262D02*
X15422024Y-11665214D01*
X15422024Y-11665214D02*
X15441072Y-11655690D01*
X15441072Y-11655690D02*
X15479167Y-11655690D01*
X15479167Y-11655690D02*
X15498215Y-11665214D01*
X15498215Y-11665214D02*
X15507739Y-11684262D01*
X15507739Y-11684262D02*
X15507739Y-11703309D01*
X15507739Y-11703309D02*
X15412500Y-11722357D01*
X15679167Y-11789024D02*
X15679167Y-11589024D01*
X15679167Y-11779500D02*
X15660120Y-11789024D01*
X15660120Y-11789024D02*
X15622024Y-11789024D01*
X15622024Y-11789024D02*
X15602977Y-11779500D01*
X15602977Y-11779500D02*
X15593453Y-11769976D01*
X15593453Y-11769976D02*
X15583929Y-11750928D01*
X15583929Y-11750928D02*
X15583929Y-11693786D01*
X15583929Y-11693786D02*
X15593453Y-11674738D01*
X15593453Y-11674738D02*
X15602977Y-11665214D01*
X15602977Y-11665214D02*
X15622024Y-11655690D01*
X15622024Y-11655690D02*
X15660120Y-11655690D01*
X15660120Y-11655690D02*
X15679167Y-11665214D01*
X15755358Y-11865214D02*
X15764881Y-11855690D01*
X15764881Y-11855690D02*
X15783929Y-11827119D01*
X15783929Y-11827119D02*
X15793453Y-11808071D01*
X15793453Y-11808071D02*
X15802977Y-11779500D01*
X15802977Y-11779500D02*
X15812500Y-11731881D01*
X15812500Y-11731881D02*
X15812500Y-11693786D01*
X15812500Y-11693786D02*
X15802977Y-11646167D01*
X15802977Y-11646167D02*
X15793453Y-11617595D01*
X15793453Y-11617595D02*
X15783929Y-11598548D01*
X15783929Y-11598548D02*
X15764881Y-11569976D01*
X15764881Y-11569976D02*
X15755358Y-11560452D01*
X9012500Y-12016500D02*
G75*
G03*
X9012500Y-12016500I-100000J0D01*
G01*
X9241071Y-11909024D02*
X9364881Y-11909024D01*
X9364881Y-11909024D02*
X9298214Y-11985214D01*
X9298214Y-11985214D02*
X9326786Y-11985214D01*
X9326786Y-11985214D02*
X9345833Y-11994738D01*
X9345833Y-11994738D02*
X9355357Y-12004262D01*
X9355357Y-12004262D02*
X9364881Y-12023309D01*
X9364881Y-12023309D02*
X9364881Y-12070928D01*
X9364881Y-12070928D02*
X9355357Y-12089976D01*
X9355357Y-12089976D02*
X9345833Y-12099500D01*
X9345833Y-12099500D02*
X9326786Y-12109024D01*
X9326786Y-12109024D02*
X9269643Y-12109024D01*
X9269643Y-12109024D02*
X9250595Y-12099500D01*
X9250595Y-12099500D02*
X9241071Y-12089976D01*
X9450595Y-12089976D02*
X9460119Y-12099500D01*
X9460119Y-12099500D02*
X9450595Y-12109024D01*
X9450595Y-12109024D02*
X9441071Y-12099500D01*
X9441071Y-12099500D02*
X9450595Y-12089976D01*
X9450595Y-12089976D02*
X9450595Y-12109024D01*
X9536310Y-11928071D02*
X9545833Y-11918548D01*
X9545833Y-11918548D02*
X9564881Y-11909024D01*
X9564881Y-11909024D02*
X9612500Y-11909024D01*
X9612500Y-11909024D02*
X9631548Y-11918548D01*
X9631548Y-11918548D02*
X9641071Y-11928071D01*
X9641071Y-11928071D02*
X9650595Y-11947119D01*
X9650595Y-11947119D02*
X9650595Y-11966167D01*
X9650595Y-11966167D02*
X9641071Y-11994738D01*
X9641071Y-11994738D02*
X9526786Y-12109024D01*
X9526786Y-12109024D02*
X9650595Y-12109024D01*
X9774405Y-11909024D02*
X9793452Y-11909024D01*
X9793452Y-11909024D02*
X9812500Y-11918548D01*
X9812500Y-11918548D02*
X9822024Y-11928071D01*
X9822024Y-11928071D02*
X9831548Y-11947119D01*
X9831548Y-11947119D02*
X9841071Y-11985214D01*
X9841071Y-11985214D02*
X9841071Y-12032833D01*
X9841071Y-12032833D02*
X9831548Y-12070928D01*
X9831548Y-12070928D02*
X9822024Y-12089976D01*
X9822024Y-12089976D02*
X9812500Y-12099500D01*
X9812500Y-12099500D02*
X9793452Y-12109024D01*
X9793452Y-12109024D02*
X9774405Y-12109024D01*
X9774405Y-12109024D02*
X9755357Y-12099500D01*
X9755357Y-12099500D02*
X9745833Y-12089976D01*
X9745833Y-12089976D02*
X9736310Y-12070928D01*
X9736310Y-12070928D02*
X9726786Y-12032833D01*
X9726786Y-12032833D02*
X9726786Y-11985214D01*
X9726786Y-11985214D02*
X9736310Y-11947119D01*
X9736310Y-11947119D02*
X9745833Y-11928071D01*
X9745833Y-11928071D02*
X9755357Y-11918548D01*
X9755357Y-11918548D02*
X9774405Y-11909024D01*
X9964881Y-11909024D02*
X9983929Y-11909024D01*
X9983929Y-11909024D02*
X10002976Y-11918548D01*
X10002976Y-11918548D02*
X10012500Y-11928071D01*
X10012500Y-11928071D02*
X10022024Y-11947119D01*
X10022024Y-11947119D02*
X10031548Y-11985214D01*
X10031548Y-11985214D02*
X10031548Y-12032833D01*
X10031548Y-12032833D02*
X10022024Y-12070928D01*
X10022024Y-12070928D02*
X10012500Y-12089976D01*
X10012500Y-12089976D02*
X10002976Y-12099500D01*
X10002976Y-12099500D02*
X9983929Y-12109024D01*
X9983929Y-12109024D02*
X9964881Y-12109024D01*
X9964881Y-12109024D02*
X9945833Y-12099500D01*
X9945833Y-12099500D02*
X9936310Y-12089976D01*
X9936310Y-12089976D02*
X9926786Y-12070928D01*
X9926786Y-12070928D02*
X9917262Y-12032833D01*
X9917262Y-12032833D02*
X9917262Y-11985214D01*
X9917262Y-11985214D02*
X9926786Y-11947119D01*
X9926786Y-11947119D02*
X9936310Y-11928071D01*
X9936310Y-11928071D02*
X9945833Y-11918548D01*
X9945833Y-11918548D02*
X9964881Y-11909024D01*
X10117262Y-12109024D02*
X10117262Y-11975690D01*
X10117262Y-11994738D02*
X10126786Y-11985214D01*
X10126786Y-11985214D02*
X10145833Y-11975690D01*
X10145833Y-11975690D02*
X10174405Y-11975690D01*
X10174405Y-11975690D02*
X10193452Y-11985214D01*
X10193452Y-11985214D02*
X10202976Y-12004262D01*
X10202976Y-12004262D02*
X10202976Y-12109024D01*
X10202976Y-12004262D02*
X10212500Y-11985214D01*
X10212500Y-11985214D02*
X10231548Y-11975690D01*
X10231548Y-11975690D02*
X10260119Y-11975690D01*
X10260119Y-11975690D02*
X10279167Y-11985214D01*
X10279167Y-11985214D02*
X10288691Y-12004262D01*
X10288691Y-12004262D02*
X10288691Y-12109024D01*
X10383929Y-12109024D02*
X10383929Y-11975690D01*
X10383929Y-11994738D02*
X10393452Y-11985214D01*
X10393452Y-11985214D02*
X10412500Y-11975690D01*
X10412500Y-11975690D02*
X10441072Y-11975690D01*
X10441072Y-11975690D02*
X10460119Y-11985214D01*
X10460119Y-11985214D02*
X10469643Y-12004262D01*
X10469643Y-12004262D02*
X10469643Y-12109024D01*
X10469643Y-12004262D02*
X10479167Y-11985214D01*
X10479167Y-11985214D02*
X10498214Y-11975690D01*
X10498214Y-11975690D02*
X10526786Y-11975690D01*
X10526786Y-11975690D02*
X10545833Y-11985214D01*
X10545833Y-11985214D02*
X10555357Y-12004262D01*
X10555357Y-12004262D02*
X10555357Y-12109024D01*
X10945833Y-11899500D02*
X10774405Y-12156643D01*
X11202976Y-11909024D02*
X11222024Y-11909024D01*
X11222024Y-11909024D02*
X11241072Y-11918548D01*
X11241072Y-11918548D02*
X11250595Y-11928071D01*
X11250595Y-11928071D02*
X11260119Y-11947119D01*
X11260119Y-11947119D02*
X11269643Y-11985214D01*
X11269643Y-11985214D02*
X11269643Y-12032833D01*
X11269643Y-12032833D02*
X11260119Y-12070928D01*
X11260119Y-12070928D02*
X11250595Y-12089976D01*
X11250595Y-12089976D02*
X11241072Y-12099500D01*
X11241072Y-12099500D02*
X11222024Y-12109024D01*
X11222024Y-12109024D02*
X11202976Y-12109024D01*
X11202976Y-12109024D02*
X11183929Y-12099500D01*
X11183929Y-12099500D02*
X11174405Y-12089976D01*
X11174405Y-12089976D02*
X11164881Y-12070928D01*
X11164881Y-12070928D02*
X11155357Y-12032833D01*
X11155357Y-12032833D02*
X11155357Y-11985214D01*
X11155357Y-11985214D02*
X11164881Y-11947119D01*
X11164881Y-11947119D02*
X11174405Y-11928071D01*
X11174405Y-11928071D02*
X11183929Y-11918548D01*
X11183929Y-11918548D02*
X11202976Y-11909024D01*
X11355357Y-12089976D02*
X11364881Y-12099500D01*
X11364881Y-12099500D02*
X11355357Y-12109024D01*
X11355357Y-12109024D02*
X11345833Y-12099500D01*
X11345833Y-12099500D02*
X11355357Y-12089976D01*
X11355357Y-12089976D02*
X11355357Y-12109024D01*
X11555357Y-12109024D02*
X11441072Y-12109024D01*
X11498214Y-12109024D02*
X11498214Y-11909024D01*
X11498214Y-11909024D02*
X11479167Y-11937595D01*
X11479167Y-11937595D02*
X11460119Y-11956643D01*
X11460119Y-11956643D02*
X11441072Y-11966167D01*
X11631548Y-11928071D02*
X11641072Y-11918548D01*
X11641072Y-11918548D02*
X11660119Y-11909024D01*
X11660119Y-11909024D02*
X11707738Y-11909024D01*
X11707738Y-11909024D02*
X11726786Y-11918548D01*
X11726786Y-11918548D02*
X11736310Y-11928071D01*
X11736310Y-11928071D02*
X11745833Y-11947119D01*
X11745833Y-11947119D02*
X11745833Y-11966167D01*
X11745833Y-11966167D02*
X11736310Y-11994738D01*
X11736310Y-11994738D02*
X11622024Y-12109024D01*
X11622024Y-12109024D02*
X11745833Y-12109024D01*
X11917262Y-11909024D02*
X11879167Y-11909024D01*
X11879167Y-11909024D02*
X11860119Y-11918548D01*
X11860119Y-11918548D02*
X11850595Y-11928071D01*
X11850595Y-11928071D02*
X11831548Y-11956643D01*
X11831548Y-11956643D02*
X11822024Y-11994738D01*
X11822024Y-11994738D02*
X11822024Y-12070928D01*
X11822024Y-12070928D02*
X11831548Y-12089976D01*
X11831548Y-12089976D02*
X11841072Y-12099500D01*
X11841072Y-12099500D02*
X11860119Y-12109024D01*
X11860119Y-12109024D02*
X11898214Y-12109024D01*
X11898214Y-12109024D02*
X11917262Y-12099500D01*
X11917262Y-12099500D02*
X11926786Y-12089976D01*
X11926786Y-12089976D02*
X11936310Y-12070928D01*
X11936310Y-12070928D02*
X11936310Y-12023309D01*
X11936310Y-12023309D02*
X11926786Y-12004262D01*
X11926786Y-12004262D02*
X11917262Y-11994738D01*
X11917262Y-11994738D02*
X11898214Y-11985214D01*
X11898214Y-11985214D02*
X11860119Y-11985214D01*
X11860119Y-11985214D02*
X11841072Y-11994738D01*
X11841072Y-11994738D02*
X11831548Y-12004262D01*
X11831548Y-12004262D02*
X11822024Y-12023309D01*
X12060119Y-11909024D02*
X12079167Y-11909024D01*
X12079167Y-11909024D02*
X12098214Y-11918548D01*
X12098214Y-11918548D02*
X12107738Y-11928071D01*
X12107738Y-11928071D02*
X12117262Y-11947119D01*
X12117262Y-11947119D02*
X12126786Y-11985214D01*
X12126786Y-11985214D02*
X12126786Y-12032833D01*
X12126786Y-12032833D02*
X12117262Y-12070928D01*
X12117262Y-12070928D02*
X12107738Y-12089976D01*
X12107738Y-12089976D02*
X12098214Y-12099500D01*
X12098214Y-12099500D02*
X12079167Y-12109024D01*
X12079167Y-12109024D02*
X12060119Y-12109024D01*
X12060119Y-12109024D02*
X12041072Y-12099500D01*
X12041072Y-12099500D02*
X12031548Y-12089976D01*
X12031548Y-12089976D02*
X12022024Y-12070928D01*
X12022024Y-12070928D02*
X12012500Y-12032833D01*
X12012500Y-12032833D02*
X12012500Y-11985214D01*
X12012500Y-11985214D02*
X12022024Y-11947119D01*
X12022024Y-11947119D02*
X12031548Y-11928071D01*
X12031548Y-11928071D02*
X12041072Y-11918548D01*
X12041072Y-11918548D02*
X12060119Y-11909024D01*
X12202976Y-11909024D02*
X12202976Y-11947119D01*
X12279167Y-11909024D02*
X12279167Y-11947119D01*
X12574405Y-12185214D02*
X12564881Y-12175690D01*
X12564881Y-12175690D02*
X12545834Y-12147119D01*
X12545834Y-12147119D02*
X12536310Y-12128071D01*
X12536310Y-12128071D02*
X12526786Y-12099500D01*
X12526786Y-12099500D02*
X12517262Y-12051881D01*
X12517262Y-12051881D02*
X12517262Y-12013786D01*
X12517262Y-12013786D02*
X12526786Y-11966167D01*
X12526786Y-11966167D02*
X12536310Y-11937595D01*
X12536310Y-11937595D02*
X12545834Y-11918548D01*
X12545834Y-11918548D02*
X12564881Y-11889976D01*
X12564881Y-11889976D02*
X12574405Y-11880452D01*
X12736310Y-11975690D02*
X12736310Y-12109024D01*
X12688691Y-11899500D02*
X12641072Y-12042357D01*
X12641072Y-12042357D02*
X12764881Y-12042357D01*
X12993453Y-12109024D02*
X12993453Y-11909024D01*
X13079167Y-12109024D02*
X13079167Y-12004262D01*
X13079167Y-12004262D02*
X13069643Y-11985214D01*
X13069643Y-11985214D02*
X13050596Y-11975690D01*
X13050596Y-11975690D02*
X13022024Y-11975690D01*
X13022024Y-11975690D02*
X13002976Y-11985214D01*
X13002976Y-11985214D02*
X12993453Y-11994738D01*
X13202976Y-12109024D02*
X13183929Y-12099500D01*
X13183929Y-12099500D02*
X13174405Y-12089976D01*
X13174405Y-12089976D02*
X13164881Y-12070928D01*
X13164881Y-12070928D02*
X13164881Y-12013786D01*
X13164881Y-12013786D02*
X13174405Y-11994738D01*
X13174405Y-11994738D02*
X13183929Y-11985214D01*
X13183929Y-11985214D02*
X13202976Y-11975690D01*
X13202976Y-11975690D02*
X13231548Y-11975690D01*
X13231548Y-11975690D02*
X13250596Y-11985214D01*
X13250596Y-11985214D02*
X13260119Y-11994738D01*
X13260119Y-11994738D02*
X13269643Y-12013786D01*
X13269643Y-12013786D02*
X13269643Y-12070928D01*
X13269643Y-12070928D02*
X13260119Y-12089976D01*
X13260119Y-12089976D02*
X13250596Y-12099500D01*
X13250596Y-12099500D02*
X13231548Y-12109024D01*
X13231548Y-12109024D02*
X13202976Y-12109024D01*
X13383929Y-12109024D02*
X13364881Y-12099500D01*
X13364881Y-12099500D02*
X13355357Y-12080452D01*
X13355357Y-12080452D02*
X13355357Y-11909024D01*
X13536310Y-12099500D02*
X13517262Y-12109024D01*
X13517262Y-12109024D02*
X13479167Y-12109024D01*
X13479167Y-12109024D02*
X13460119Y-12099500D01*
X13460119Y-12099500D02*
X13450596Y-12080452D01*
X13450596Y-12080452D02*
X13450596Y-12004262D01*
X13450596Y-12004262D02*
X13460119Y-11985214D01*
X13460119Y-11985214D02*
X13479167Y-11975690D01*
X13479167Y-11975690D02*
X13517262Y-11975690D01*
X13517262Y-11975690D02*
X13536310Y-11985214D01*
X13536310Y-11985214D02*
X13545834Y-12004262D01*
X13545834Y-12004262D02*
X13545834Y-12023309D01*
X13545834Y-12023309D02*
X13450596Y-12042357D01*
X13622024Y-12099500D02*
X13641072Y-12109024D01*
X13641072Y-12109024D02*
X13679167Y-12109024D01*
X13679167Y-12109024D02*
X13698215Y-12099500D01*
X13698215Y-12099500D02*
X13707738Y-12080452D01*
X13707738Y-12080452D02*
X13707738Y-12070928D01*
X13707738Y-12070928D02*
X13698215Y-12051881D01*
X13698215Y-12051881D02*
X13679167Y-12042357D01*
X13679167Y-12042357D02*
X13650596Y-12042357D01*
X13650596Y-12042357D02*
X13631548Y-12032833D01*
X13631548Y-12032833D02*
X13622024Y-12013786D01*
X13622024Y-12013786D02*
X13622024Y-12004262D01*
X13622024Y-12004262D02*
X13631548Y-11985214D01*
X13631548Y-11985214D02*
X13650596Y-11975690D01*
X13650596Y-11975690D02*
X13679167Y-11975690D01*
X13679167Y-11975690D02*
X13698215Y-11985214D01*
X13774405Y-12185214D02*
X13783929Y-12175690D01*
X13783929Y-12175690D02*
X13802977Y-12147119D01*
X13802977Y-12147119D02*
X13812500Y-12128071D01*
X13812500Y-12128071D02*
X13822024Y-12099500D01*
X13822024Y-12099500D02*
X13831548Y-12051881D01*
X13831548Y-12051881D02*
X13831548Y-12013786D01*
X13831548Y-12013786D02*
X13822024Y-11966167D01*
X13822024Y-11966167D02*
X13812500Y-11937595D01*
X13812500Y-11937595D02*
X13802977Y-11918548D01*
X13802977Y-11918548D02*
X13783929Y-11889976D01*
X13783929Y-11889976D02*
X13774405Y-11880452D01*
X14136310Y-12185214D02*
X14126786Y-12175690D01*
X14126786Y-12175690D02*
X14107738Y-12147119D01*
X14107738Y-12147119D02*
X14098215Y-12128071D01*
X14098215Y-12128071D02*
X14088691Y-12099500D01*
X14088691Y-12099500D02*
X14079167Y-12051881D01*
X14079167Y-12051881D02*
X14079167Y-12013786D01*
X14079167Y-12013786D02*
X14088691Y-11966167D01*
X14088691Y-11966167D02*
X14098215Y-11937595D01*
X14098215Y-11937595D02*
X14107738Y-11918548D01*
X14107738Y-11918548D02*
X14126786Y-11889976D01*
X14126786Y-11889976D02*
X14136310Y-11880452D01*
X14212500Y-11975690D02*
X14212500Y-12109024D01*
X14212500Y-11994738D02*
X14222024Y-11985214D01*
X14222024Y-11985214D02*
X14241072Y-11975690D01*
X14241072Y-11975690D02*
X14269643Y-11975690D01*
X14269643Y-11975690D02*
X14288691Y-11985214D01*
X14288691Y-11985214D02*
X14298215Y-12004262D01*
X14298215Y-12004262D02*
X14298215Y-12109024D01*
X14422024Y-12109024D02*
X14402977Y-12099500D01*
X14402977Y-12099500D02*
X14393453Y-12089976D01*
X14393453Y-12089976D02*
X14383929Y-12070928D01*
X14383929Y-12070928D02*
X14383929Y-12013786D01*
X14383929Y-12013786D02*
X14393453Y-11994738D01*
X14393453Y-11994738D02*
X14402977Y-11985214D01*
X14402977Y-11985214D02*
X14422024Y-11975690D01*
X14422024Y-11975690D02*
X14450596Y-11975690D01*
X14450596Y-11975690D02*
X14469643Y-11985214D01*
X14469643Y-11985214D02*
X14479167Y-11994738D01*
X14479167Y-11994738D02*
X14488691Y-12013786D01*
X14488691Y-12013786D02*
X14488691Y-12070928D01*
X14488691Y-12070928D02*
X14479167Y-12089976D01*
X14479167Y-12089976D02*
X14469643Y-12099500D01*
X14469643Y-12099500D02*
X14450596Y-12109024D01*
X14450596Y-12109024D02*
X14422024Y-12109024D01*
X14545834Y-11975690D02*
X14622024Y-11975690D01*
X14574405Y-11909024D02*
X14574405Y-12080452D01*
X14574405Y-12080452D02*
X14583929Y-12099500D01*
X14583929Y-12099500D02*
X14602977Y-12109024D01*
X14602977Y-12109024D02*
X14622024Y-12109024D01*
X14841072Y-11975690D02*
X14841072Y-12175690D01*
X14841072Y-11985214D02*
X14860119Y-11975690D01*
X14860119Y-11975690D02*
X14898215Y-11975690D01*
X14898215Y-11975690D02*
X14917262Y-11985214D01*
X14917262Y-11985214D02*
X14926786Y-11994738D01*
X14926786Y-11994738D02*
X14936310Y-12013786D01*
X14936310Y-12013786D02*
X14936310Y-12070928D01*
X14936310Y-12070928D02*
X14926786Y-12089976D01*
X14926786Y-12089976D02*
X14917262Y-12099500D01*
X14917262Y-12099500D02*
X14898215Y-12109024D01*
X14898215Y-12109024D02*
X14860119Y-12109024D01*
X14860119Y-12109024D02*
X14841072Y-12099500D01*
X15050596Y-12109024D02*
X15031548Y-12099500D01*
X15031548Y-12099500D02*
X15022024Y-12080452D01*
X15022024Y-12080452D02*
X15022024Y-11909024D01*
X15212500Y-12109024D02*
X15212500Y-12004262D01*
X15212500Y-12004262D02*
X15202977Y-11985214D01*
X15202977Y-11985214D02*
X15183929Y-11975690D01*
X15183929Y-11975690D02*
X15145834Y-11975690D01*
X15145834Y-11975690D02*
X15126786Y-11985214D01*
X15212500Y-12099500D02*
X15193453Y-12109024D01*
X15193453Y-12109024D02*
X15145834Y-12109024D01*
X15145834Y-12109024D02*
X15126786Y-12099500D01*
X15126786Y-12099500D02*
X15117262Y-12080452D01*
X15117262Y-12080452D02*
X15117262Y-12061405D01*
X15117262Y-12061405D02*
X15126786Y-12042357D01*
X15126786Y-12042357D02*
X15145834Y-12032833D01*
X15145834Y-12032833D02*
X15193453Y-12032833D01*
X15193453Y-12032833D02*
X15212500Y-12023309D01*
X15279167Y-11975690D02*
X15355358Y-11975690D01*
X15307739Y-11909024D02*
X15307739Y-12080452D01*
X15307739Y-12080452D02*
X15317262Y-12099500D01*
X15317262Y-12099500D02*
X15336310Y-12109024D01*
X15336310Y-12109024D02*
X15355358Y-12109024D01*
X15498215Y-12099500D02*
X15479167Y-12109024D01*
X15479167Y-12109024D02*
X15441072Y-12109024D01*
X15441072Y-12109024D02*
X15422024Y-12099500D01*
X15422024Y-12099500D02*
X15412500Y-12080452D01*
X15412500Y-12080452D02*
X15412500Y-12004262D01*
X15412500Y-12004262D02*
X15422024Y-11985214D01*
X15422024Y-11985214D02*
X15441072Y-11975690D01*
X15441072Y-11975690D02*
X15479167Y-11975690D01*
X15479167Y-11975690D02*
X15498215Y-11985214D01*
X15498215Y-11985214D02*
X15507739Y-12004262D01*
X15507739Y-12004262D02*
X15507739Y-12023309D01*
X15507739Y-12023309D02*
X15412500Y-12042357D01*
X15679167Y-12109024D02*
X15679167Y-11909024D01*
X15679167Y-12099500D02*
X15660120Y-12109024D01*
X15660120Y-12109024D02*
X15622024Y-12109024D01*
X15622024Y-12109024D02*
X15602977Y-12099500D01*
X15602977Y-12099500D02*
X15593453Y-12089976D01*
X15593453Y-12089976D02*
X15583929Y-12070928D01*
X15583929Y-12070928D02*
X15583929Y-12013786D01*
X15583929Y-12013786D02*
X15593453Y-11994738D01*
X15593453Y-11994738D02*
X15602977Y-11985214D01*
X15602977Y-11985214D02*
X15622024Y-11975690D01*
X15622024Y-11975690D02*
X15660120Y-11975690D01*
X15660120Y-11975690D02*
X15679167Y-11985214D01*
X15755358Y-12185214D02*
X15764881Y-12175690D01*
X15764881Y-12175690D02*
X15783929Y-12147119D01*
X15783929Y-12147119D02*
X15793453Y-12128071D01*
X15793453Y-12128071D02*
X15802977Y-12099500D01*
X15802977Y-12099500D02*
X15812500Y-12051881D01*
X15812500Y-12051881D02*
X15812500Y-12013786D01*
X15812500Y-12013786D02*
X15802977Y-11966167D01*
X15802977Y-11966167D02*
X15793453Y-11937595D01*
X15793453Y-11937595D02*
X15783929Y-11918548D01*
X15783929Y-11918548D02*
X15764881Y-11889976D01*
X15764881Y-11889976D02*
X15755358Y-11880452D01*
M02*
